<?xml version="1.0" encoding="utf-8"?>
<svg viewBox="14.651 160.607 475.61 76.338" xmlns="http://www.w3.org/2000/svg">
  <path d="M 2.556 -18.325 C 1.566 -17.706 0.73 -17.177 0.697 -17.15 C 0.646 -17.107 0.636 -16.942 0.636 -16.075 C 0.636 -15.302 0.624 -15.04 0.587 -15.011 C 0.559 -14.99 0.233 -14.813 -0.139 -14.619 C -0.512 -14.425 -0.937 -14.203 -1.085 -14.126 L -1.353 -13.986 L -1.343 -11.717 L -1.333 -9.45 L -0.935 -9.239 C -0.717 -9.123 -0.273 -8.89 0.049 -8.722 L 0.636 -8.415 L 0.636 -7.315 L 0.636 -6.215 L 0.826 -6.095 C 0.929 -6.03 1.552 -5.658 2.208 -5.27 C 2.865 -4.881 3.618 -4.434 3.882 -4.277 L 4.363 -3.991 L 5.295 -4.501 C 5.808 -4.781 6.252 -5.011 6.281 -5.012 C 6.311 -5.012 6.745 -4.789 7.245 -4.515 C 7.745 -4.241 8.175 -4.018 8.2 -4.018 C 8.225 -4.018 8.553 -4.2 8.928 -4.422 C 10.678 -5.462 11.032 -5.672 11.449 -5.921 L 11.895 -6.187 L 11.906 -7.295 L 11.918 -8.403 L 12.674 -8.801 C 13.09 -9.02 13.542 -9.26 13.679 -9.336 L 13.927 -9.473 L 13.927 -11.718 L 13.927 -13.964 L 13.838 -14.021 C 13.788 -14.052 13.336 -14.293 12.833 -14.556 L 11.918 -15.034 L 11.907 -16.089 L 11.896 -17.144 L 10.049 -18.299 L 8.201 -19.453 L 7.652 -19.15 C 7.35 -18.984 6.915 -18.744 6.686 -18.617 C 6.451 -18.488 6.252 -18.401 6.228 -18.419 C 6.206 -18.437 6.071 -18.514 5.928 -18.591 C 5.786 -18.669 5.428 -18.865 5.133 -19.029 C 4.838 -19.192 4.542 -19.354 4.475 -19.388 L 4.355 -19.45 L 2.556 -18.325 M 20.324 -19.268 C 20.57 -19.261 20.973 -19.261 21.219 -19.268 C 21.465 -19.275 21.264 -19.281 20.771 -19.281 C 20.279 -19.281 20.078 -19.275 20.324 -19.268 M 27.21 -19.268 C 27.48 -19.261 27.909 -19.262 28.165 -19.268 C 28.421 -19.275 28.201 -19.281 27.676 -19.281 C 27.15 -19.281 26.941 -19.275 27.21 -19.268 M 48.128 -16.373 C 48.128 -14.776 48.133 -14.128 48.139 -14.934 C 48.145 -15.74 48.145 -17.047 48.139 -17.839 C 48.133 -18.63 48.128 -17.971 48.128 -16.373 M 50.436 -16.015 C 50.436 -14.221 50.441 -13.492 50.447 -14.397 C 50.453 -15.301 50.453 -16.769 50.447 -17.66 C 50.441 -18.55 50.436 -17.81 50.436 -16.015 M 63.25 -16.393 C 63.25 -14.807 63.254 -14.158 63.26 -14.951 C 63.266 -15.744 63.266 -17.042 63.26 -17.836 C 63.254 -18.629 63.25 -17.98 63.25 -16.393 M 70.689 -18.244 C 70.689 -17.674 70.695 -17.447 70.702 -17.738 C 70.708 -18.03 70.708 -18.496 70.702 -18.773 C 70.695 -19.051 70.689 -18.812 70.689 -18.244 M 60.902 -16.115 C 60.902 -14.397 60.906 -13.694 60.913 -14.553 C 60.919 -15.412 60.919 -16.817 60.913 -17.677 C 60.906 -18.535 60.902 -17.833 60.902 -16.115 M 3.024 -17.824 C 2.291 -17.365 1.694 -16.975 1.698 -16.959 C 1.705 -16.927 1.824 -16.712 2.336 -15.806 C 2.613 -15.315 2.642 -15.279 2.752 -15.279 C 3.003 -15.279 3.278 -15.037 3.364 -14.741 C 3.544 -14.125 2.905 -13.607 2.318 -13.891 C 1.987 -14.051 1.824 -14.479 1.965 -14.816 L 2.028 -14.968 L 1.681 -15.591 L 1.333 -16.214 L 1.321 -15.418 L 1.309 -14.622 L 0.664 -14.282 C 0.31 -14.095 -0.137 -13.862 -0.328 -13.764 L -0.676 -13.588 L -0.676 -11.729 L -0.677 -9.87 L -0.508 -9.774 C -0.272 -9.64 0.595 -9.191 0.618 -9.191 C 0.628 -9.191 0.636 -9.831 0.635 -10.613 L 0.634 -12.036 L 0.536 -12.107 C 0.469 -12.156 0.351 -12.182 0.163 -12.189 C -0.068 -12.198 -0.135 -12.217 -0.258 -12.311 C -0.444 -12.453 -0.548 -12.624 -0.58 -12.841 C -0.618 -13.093 -0.454 -13.412 -0.215 -13.553 C -0.062 -13.642 -0.002 -13.654 0.215 -13.641 C 0.524 -13.621 0.704 -13.501 0.836 -13.227 C 0.905 -13.086 0.92 -13.001 0.903 -12.857 L 0.881 -12.67 L 1.097 -12.532 L 1.313 -12.394 L 1.313 -9.489 L 1.313 -6.584 L 1.423 -6.521 C 1.568 -6.437 3.009 -5.582 3.171 -5.483 C 3.294 -5.409 3.288 -5.426 3 -5.941 C 2.713 -6.454 2.695 -6.476 2.554 -6.5 C 2.215 -6.555 1.946 -6.841 1.918 -7.178 C 1.869 -7.773 2.494 -8.168 3.022 -7.876 C 3.323 -7.709 3.471 -7.343 3.363 -7.033 C 3.331 -6.939 3.303 -6.843 3.303 -6.819 C 3.303 -6.784 3.954 -5.588 4.004 -5.533 C 4.012 -5.524 4.019 -5.972 4.019 -6.528 L 4.019 -7.539 L 3.164 -8.295 L 2.309 -9.051 L 2.309 -10.733 L 2.308 -12.414 L 3.183 -12.997 L 4.059 -13.581 L 4.059 -14.721 L 4.059 -15.861 L 3.936 -15.952 C 3.786 -16.063 3.663 -16.32 3.662 -16.524 C 3.66 -16.803 3.863 -17.088 4.148 -17.207 C 4.647 -17.416 5.197 -16.995 5.146 -16.442 C 5.128 -16.251 4.992 -16.01 4.855 -15.929 L 4.735 -15.859 L 4.735 -14.541 L 4.735 -13.223 L 3.86 -12.639 L 2.984 -12.056 L 2.984 -10.707 L 2.984 -9.358 L 3.837 -8.608 L 4.689 -7.858 L 4.692 -6.398 L 4.696 -4.939 L 5.302 -5.273 L 5.909 -5.607 L 5.92 -6.822 L 5.93 -8.038 L 5.784 -8.166 C 5.605 -8.323 5.531 -8.493 5.531 -8.742 C 5.534 -9.373 6.301 -9.704 6.774 -9.277 C 7.144 -8.943 7.137 -8.451 6.758 -8.146 L 6.605 -8.024 L 6.605 -6.827 L 6.605 -5.629 L 7.19 -5.311 C 7.512 -5.136 7.789 -4.986 7.807 -4.979 C 7.824 -4.972 7.839 -5.606 7.839 -6.389 L 7.839 -7.812 L 7.957 -7.914 C 8.022 -7.971 8.416 -8.32 8.832 -8.691 L 9.59 -9.365 L 9.59 -10.705 L 9.59 -12.044 L 8.714 -12.633 L 7.839 -13.222 L 7.839 -14.524 L 7.839 -15.827 L 7.704 -15.93 C 7.542 -16.053 7.401 -16.327 7.402 -16.515 C 7.403 -16.591 7.436 -16.723 7.476 -16.811 C 7.657 -17.201 8.078 -17.366 8.457 -17.194 C 8.955 -16.968 9.048 -16.315 8.632 -15.956 L 8.517 -15.856 L 8.511 -14.722 L 8.505 -13.588 L 9.386 -12.995 L 10.267 -12.403 L 10.257 -10.729 L 10.246 -9.055 L 9.381 -8.283 L 8.515 -7.511 L 8.515 -6.494 C 8.515 -5.935 8.523 -5.484 8.531 -5.493 C 8.54 -5.503 8.711 -5.803 8.912 -6.161 L 9.277 -6.811 L 9.215 -6.967 C 9.138 -7.159 9.135 -7.322 9.206 -7.491 C 9.36 -7.859 9.718 -8.046 10.09 -7.953 C 10.447 -7.862 10.704 -7.476 10.644 -7.118 C 10.593 -6.817 10.322 -6.547 10.023 -6.499 C 9.861 -6.474 9.827 -6.428 9.408 -5.669 C 9.265 -5.411 9.261 -5.395 9.352 -5.454 C 9.481 -5.537 9.909 -5.794 10.634 -6.223 L 11.221 -6.57 L 11.221 -9.467 L 11.221 -12.365 L 11.44 -12.515 L 11.659 -12.666 L 11.659 -12.88 C 11.659 -13.187 11.816 -13.462 12.065 -13.592 C 12.194 -13.658 12.585 -13.666 12.706 -13.603 C 13.079 -13.411 13.24 -12.941 13.056 -12.582 C 12.916 -12.307 12.651 -12.16 12.339 -12.182 C 12.198 -12.192 12.127 -12.174 12.027 -12.103 L 11.898 -12.011 L 11.898 -10.583 L 11.898 -9.156 L 12.246 -9.34 C 12.438 -9.44 12.737 -9.6 12.913 -9.693 L 13.231 -9.863 L 13.231 -11.718 L 13.231 -13.573 L 13.131 -13.632 C 13.077 -13.664 12.629 -13.901 12.137 -14.16 L 11.241 -14.629 L 11.221 -15.395 L 11.202 -16.161 L 10.871 -15.571 L 10.54 -14.981 L 10.602 -14.787 C 10.676 -14.558 10.676 -14.547 10.623 -14.355 C 10.491 -13.88 9.896 -13.656 9.492 -13.929 C 9.324 -14.043 9.152 -14.36 9.152 -14.558 C 9.152 -14.894 9.504 -15.279 9.811 -15.279 C 9.923 -15.279 9.95 -15.304 10.062 -15.508 C 10.13 -15.634 10.238 -15.826 10.3 -15.936 C 10.723 -16.677 10.866 -16.953 10.846 -16.986 C 10.833 -17.007 10.621 -17.148 10.375 -17.3 C 10.129 -17.452 9.537 -17.822 9.058 -18.123 C 8.397 -18.538 8.172 -18.662 8.12 -18.636 C 8.082 -18.617 7.724 -18.422 7.324 -18.204 L 6.598 -17.806 L 6.612 -17.259 L 6.627 -16.712 L 6.751 -16.598 C 7.171 -16.215 7.098 -15.61 6.602 -15.357 C 6.299 -15.203 5.97 -15.274 5.723 -15.548 C 5.458 -15.842 5.48 -16.281 5.774 -16.561 L 5.929 -16.708 L 5.929 -17.262 L 5.929 -17.816 L 5.168 -18.239 C 4.75 -18.471 4.396 -18.661 4.382 -18.66 C 4.368 -18.66 3.757 -18.283 3.024 -17.824 M 80.712 -17.279 C 81.124 -17.272 81.786 -17.272 82.184 -17.279 C 82.582 -17.285 82.245 -17.29 81.436 -17.29 C 80.626 -17.29 80.3 -17.285 80.712 -17.279 M 52.454 -17.239 C 52.819 -17.232 53.428 -17.232 53.807 -17.239 C 54.186 -17.245 53.887 -17.251 53.143 -17.251 C 52.399 -17.251 52.089 -17.245 52.454 -17.239 M 57.55 -17.239 C 57.917 -17.232 58.516 -17.232 58.883 -17.239 C 59.25 -17.245 58.95 -17.251 58.217 -17.251 C 57.484 -17.251 57.184 -17.245 57.55 -17.239 M 78.21 -16.373 C 78.21 -15.892 78.215 -15.7 78.223 -15.948 C 78.229 -16.195 78.229 -16.589 78.222 -16.823 C 78.215 -17.057 78.21 -16.855 78.21 -16.373 M 4.281 -16.649 C 4.144 -16.513 4.244 -16.337 4.444 -16.361 C 4.533 -16.371 4.559 -16.396 4.569 -16.485 C 4.592 -16.686 4.416 -16.785 4.281 -16.649 M 8.018 -16.632 C 7.912 -16.514 7.991 -16.353 8.155 -16.353 C 8.318 -16.353 8.387 -16.48 8.298 -16.615 C 8.221 -16.732 8.115 -16.739 8.018 -16.632 M 6.13 -16.137 C 6.052 -16.043 6.111 -15.882 6.235 -15.851 C 6.373 -15.816 6.499 -15.954 6.45 -16.087 C 6.41 -16.195 6.205 -16.227 6.13 -16.137 M 81.588 -16.005 C 82.481 -15.999 83.932 -15.999 84.811 -16.005 C 85.69 -16.011 84.959 -16.016 83.187 -16.016 C 81.414 -16.016 80.695 -16.011 81.588 -16.005 M 70.69 -15.508 C 70.68 -15.481 70.676 -14.411 70.681 -13.13 L 70.692 -10.802 L 70.782 -10.797 C 70.857 -10.792 70.859 -10.795 70.792 -10.81 C 70.712 -10.828 70.711 -10.854 70.711 -13.172 L 70.711 -15.517 L 72.91 -15.528 L 75.109 -15.538 L 72.909 -15.548 C 71.179 -15.556 70.705 -15.547 70.69 -15.508 M 5.954 -14.743 C 5.509 -14.585 5.315 -14.067 5.549 -13.667 C 5.603 -13.575 5.693 -13.47 5.749 -13.433 L 5.851 -13.366 L 5.84 -12.386 L 5.829 -11.407 L 5.222 -10.97 L 4.614 -10.533 L 4.32 -10.528 C 4.055 -10.524 4.011 -10.512 3.873 -10.402 C 3.647 -10.221 3.574 -10.055 3.59 -9.763 C 3.607 -9.468 3.742 -9.262 3.994 -9.148 C 4.32 -8.999 4.705 -9.092 4.917 -9.37 C 5.007 -9.488 5.034 -9.57 5.047 -9.771 L 5.063 -10.024 L 5.526 -10.358 C 5.78 -10.541 6.037 -10.722 6.096 -10.759 L 6.202 -10.828 L 6.862 -10.377 C 7.307 -10.073 7.514 -9.909 7.5 -9.871 C 7.488 -9.84 7.505 -9.724 7.538 -9.611 C 7.661 -9.187 8.127 -8.958 8.526 -9.125 C 8.707 -9.2 8.943 -9.476 8.976 -9.648 C 9.037 -9.975 8.876 -10.321 8.597 -10.463 C 8.431 -10.548 8.066 -10.573 7.962 -10.506 C 7.923 -10.482 7.866 -10.499 7.782 -10.56 C 7.715 -10.61 7.405 -10.825 7.093 -11.039 L 6.526 -11.428 L 6.526 -12.397 L 6.526 -13.366 L 6.645 -13.455 C 7.112 -13.8 6.946 -14.601 6.375 -14.76 C 6.187 -14.812 6.143 -14.81 5.954 -14.743 M 2.504 -14.637 C 2.406 -14.454 2.633 -14.267 2.777 -14.411 C 2.847 -14.481 2.836 -14.669 2.762 -14.698 C 2.643 -14.744 2.549 -14.721 2.504 -14.637 M 9.75 -14.645 C 9.694 -14.54 9.698 -14.5 9.772 -14.426 C 9.863 -14.336 9.977 -14.35 10.049 -14.461 C 10.099 -14.536 10.103 -14.576 10.069 -14.64 C 10.011 -14.749 9.808 -14.752 9.75 -14.645 M 6.033 -14.142 C 5.958 -13.946 6.092 -13.799 6.272 -13.881 C 6.375 -13.928 6.4 -14.075 6.319 -14.157 C 6.25 -14.226 6.061 -14.216 6.033 -14.142 M 83.336 -14.055 C 83.899 -14.049 84.822 -14.049 85.385 -14.055 C 85.948 -14.062 85.487 -14.067 84.36 -14.067 C 83.233 -14.067 82.772 -14.062 83.336 -14.055 M 94.962 -13.21 C 94.962 -12.739 94.968 -12.547 94.975 -12.782 C 94.982 -13.017 94.982 -13.402 94.975 -13.638 C 94.968 -13.873 94.962 -13.68 94.962 -13.21 M 73.367 -13.498 C 73.57 -13.491 73.901 -13.491 74.104 -13.498 C 74.306 -13.506 74.141 -13.512 73.736 -13.512 C 73.331 -13.512 73.165 -13.506 73.367 -13.498 M 0.026 -13.064 C -0.022 -13.015 -0.001 -12.822 0.059 -12.773 C 0.209 -12.648 0.442 -12.881 0.318 -13.031 C 0.268 -13.091 0.075 -13.113 0.026 -13.064 M 12.264 -13.043 C 12.238 -13.016 12.216 -12.957 12.216 -12.911 C 12.216 -12.865 12.238 -12.806 12.264 -12.78 C 12.29 -12.754 12.349 -12.732 12.395 -12.732 C 12.441 -12.732 12.5 -12.754 12.526 -12.78 C 12.553 -12.806 12.574 -12.865 12.574 -12.911 C 12.574 -12.957 12.553 -13.016 12.526 -13.043 C 12.5 -13.069 12.441 -13.09 12.395 -13.09 C 12.349 -13.09 12.29 -13.069 12.264 -13.043 M 83.379 -12.782 C 83.965 -12.776 84.914 -12.776 85.487 -12.782 C 86.06 -12.788 85.58 -12.793 84.42 -12.793 C 83.26 -12.793 82.791 -12.788 83.379 -12.782 M 46.169 -12.743 C 46.339 -12.735 46.617 -12.735 46.786 -12.743 C 46.956 -12.75 46.817 -12.756 46.478 -12.756 C 46.138 -12.756 46 -12.75 46.169 -12.743 M 64.576 -12.742 C 64.757 -12.735 65.044 -12.735 65.212 -12.743 C 65.381 -12.75 65.232 -12.756 64.882 -12.756 C 64.532 -12.756 64.394 -12.75 64.576 -12.742 M 81.605 -10.792 C 82.508 -10.787 83.985 -10.787 84.888 -10.792 C 85.79 -10.798 85.052 -10.803 83.246 -10.803 C 81.441 -10.803 80.702 -10.798 81.605 -10.792 M 17.101 -10.753 C 17.325 -10.746 17.692 -10.746 17.917 -10.753 C 18.141 -10.76 17.957 -10.766 17.508 -10.766 C 17.06 -10.766 16.876 -10.76 17.101 -10.753 M 23.609 -10.753 C 23.846 -10.746 24.221 -10.746 24.444 -10.753 C 24.668 -10.76 24.474 -10.766 24.015 -10.766 C 23.555 -10.766 23.373 -10.76 23.609 -10.753 M 27.29 -10.753 C 27.515 -10.746 27.873 -10.746 28.086 -10.753 C 28.298 -10.76 28.113 -10.766 27.676 -10.766 C 27.238 -10.766 27.064 -10.76 27.29 -10.753 M 35.169 -10.753 C 35.394 -10.746 35.752 -10.746 35.965 -10.753 C 36.177 -10.76 35.992 -10.766 35.555 -10.766 C 35.117 -10.766 34.943 -10.76 35.169 -10.753 M 55.304 -10.753 C 55.53 -10.746 55.887 -10.746 56.1 -10.753 C 56.312 -10.76 56.127 -10.766 55.69 -10.766 C 55.252 -10.766 55.078 -10.76 55.304 -10.753 M 71.477 -10.753 C 71.691 -10.746 72.04 -10.746 72.253 -10.753 C 72.467 -10.76 72.292 -10.766 71.866 -10.766 C 71.439 -10.766 71.264 -10.76 71.477 -10.753 M 76.69 -10.753 C 76.926 -10.746 77.311 -10.746 77.546 -10.753 C 77.781 -10.76 77.589 -10.766 77.118 -10.766 C 76.648 -10.766 76.455 -10.76 76.69 -10.753 M 4.186 -9.939 C 4.074 -9.827 4.158 -9.629 4.317 -9.629 C 4.424 -9.629 4.496 -9.701 4.496 -9.807 C 4.496 -9.914 4.424 -9.987 4.317 -9.987 C 4.271 -9.987 4.212 -9.965 4.186 -9.939 M 8.076 -9.904 C 8.015 -9.79 8.122 -9.629 8.259 -9.629 C 8.388 -9.629 8.465 -9.779 8.399 -9.902 C 8.338 -10.016 8.137 -10.017 8.076 -9.904 M 6.136 -8.864 C 6.109 -8.838 6.088 -8.779 6.088 -8.733 C 6.088 -8.621 6.162 -8.554 6.287 -8.554 C 6.412 -8.554 6.486 -8.621 6.486 -8.733 C 6.486 -8.846 6.412 -8.912 6.287 -8.912 C 6.23 -8.912 6.162 -8.891 6.136 -8.864 M 16.302 -8.886 C 16.287 -8.871 16.275 -7.984 16.275 -6.915 C 16.275 -5.196 16.282 -4.968 16.337 -4.947 C 16.377 -4.931 16.476 -5 16.625 -5.148 L 16.852 -5.373 L 16.872 -6.496 L 16.892 -7.619 L 18.351 -6.156 L 19.811 -4.694 L 18.81 -4.694 L 17.808 -4.694 L 18.255 -5.142 C 18.501 -5.389 18.702 -5.609 18.702 -5.632 C 18.702 -5.694 18.409 -5.967 18.342 -5.967 C 18.31 -5.967 17.993 -5.676 17.637 -5.32 L 16.991 -4.673 L 16.991 -4.453 C 16.991 -4.332 17.013 -4.211 17.039 -4.185 C 17.075 -4.149 17.527 -4.137 18.828 -4.137 C 20.807 -4.137 20.652 -4.108 20.652 -4.481 L 20.652 -4.672 L 18.534 -6.792 C 17.368 -7.958 16.396 -8.912 16.372 -8.912 C 16.348 -8.912 16.316 -8.9 16.302 -8.886 M 20.085 -7.768 C 19.456 -7.138 18.941 -6.594 18.941 -6.559 C 18.941 -6.497 19.228 -6.206 19.289 -6.206 C 19.305 -6.206 19.646 -6.533 20.045 -6.932 L 20.771 -7.658 L 20.771 -6.503 L 20.771 -5.348 L 21.002 -5.121 C 21.128 -4.996 21.253 -4.893 21.28 -4.893 C 21.318 -4.893 21.329 -5.347 21.329 -6.903 C 21.329 -8.489 21.318 -8.912 21.279 -8.912 C 21.251 -8.912 20.714 -8.397 20.085 -7.768 M 64.164 -6.365 C 64.164 -5.238 64.169 -4.777 64.175 -5.341 C 64.182 -5.904 64.182 -6.827 64.175 -7.39 C 64.169 -7.954 64.164 -7.493 64.164 -6.365 M 37.873 -8.086 C 38.228 -8.08 38.81 -8.08 39.166 -8.086 C 39.521 -8.093 39.23 -8.099 38.519 -8.099 C 37.808 -8.099 37.517 -8.093 37.873 -8.086 M 40.687 -8.067 C 40.676 -8.039 40.672 -7.184 40.678 -6.166 L 40.689 -4.316 L 40.698 -6.196 L 40.708 -8.077 L 41.84 -8.077 L 42.973 -8.077 L 42.987 -7.768 L 43.001 -7.46 L 42.998 -7.778 L 42.996 -8.096 L 41.851 -8.107 C 40.956 -8.115 40.701 -8.106 40.687 -8.067 M 44.148 -8.067 C 44.138 -8.039 44.134 -7.184 44.14 -6.166 L 44.151 -4.316 L 44.16 -6.195 L 44.169 -8.073 L 44.538 -8.087 L 44.906 -8.1 L 44.537 -8.108 C 44.271 -8.114 44.162 -8.102 44.148 -8.067 M 48.683 -8.064 C 48.672 -8.034 48.669 -7.877 48.676 -7.715 L 48.69 -7.42 L 48.698 -7.748 L 48.706 -8.077 L 49.958 -8.077 L 51.209 -8.077 L 51.224 -7.788 L 51.238 -7.499 L 51.236 -7.798 L 51.233 -8.096 L 49.969 -8.107 C 48.933 -8.116 48.7 -8.108 48.683 -8.064 M 53.251 -8.086 L 54.393 -8.075 L 54.407 -7.748 L 54.42 -7.42 L 54.428 -7.768 L 54.436 -8.116 L 53.272 -8.107 L 52.108 -8.098 L 53.251 -8.086 M 62.134 -8.065 C 62.123 -8.037 62.12 -7.71 62.126 -7.339 L 62.138 -6.664 L 62.147 -7.369 L 62.156 -8.073 L 62.524 -8.087 L 62.892 -8.1 L 62.523 -8.108 C 62.252 -8.114 62.148 -8.103 62.134 -8.065 M 89.623 -8.086 C 89.946 -8.08 90.474 -8.08 90.797 -8.086 C 91.12 -8.093 90.856 -8.099 90.21 -8.099 C 89.564 -8.099 89.3 -8.093 89.623 -8.086 M 2.528 -7.362 C 2.383 -7.202 2.554 -6.979 2.744 -7.081 C 2.852 -7.138 2.854 -7.342 2.748 -7.399 C 2.64 -7.456 2.609 -7.451 2.528 -7.362 M 9.765 -7.34 C 9.705 -7.248 9.705 -7.234 9.765 -7.142 C 9.846 -7.018 9.963 -7.014 10.045 -7.13 C 10.125 -7.244 10.123 -7.264 10.028 -7.36 C 9.921 -7.466 9.844 -7.461 9.765 -7.34 M 38.139 -5.888 C 38.139 -5.023 38.145 -4.67 38.151 -5.102 C 38.157 -5.534 38.157 -6.241 38.151 -6.674 C 38.145 -7.106 38.139 -6.752 38.139 -5.888 M 38.895 -5.888 C 38.895 -5.023 38.901 -4.67 38.907 -5.102 C 38.913 -5.534 38.913 -6.241 38.907 -6.674 C 38.901 -7.106 38.895 -6.752 38.895 -5.888 M 64.92 -5.53 C 64.92 -4.862 64.925 -4.589 64.932 -4.923 C 64.938 -5.257 64.938 -5.803 64.932 -6.136 C 64.925 -6.47 64.92 -6.197 64.92 -5.53 M 42.936 -6.386 L 42.936 -6.089 L 42.19 -6.077 L 41.444 -6.065 L 42.21 -6.056 L 42.976 -6.047 L 42.976 -6.365 C 42.976 -6.54 42.967 -6.684 42.956 -6.684 C 42.945 -6.684 42.936 -6.55 42.936 -6.386 M 84.4 -6.338 C 85.131 -6.309 85.903 -6.308 85.886 -6.336 C 85.876 -6.352 85.47 -6.362 84.985 -6.357 C 84.499 -6.353 84.236 -6.344 84.4 -6.338 M 53.253 -6.057 C 53.466 -6.05 53.815 -6.05 54.028 -6.057 C 54.242 -6.064 54.067 -6.07 53.64 -6.07 C 53.214 -6.07 53.039 -6.064 53.253 -6.057 M 90.162 -6.057 C 90.388 -6.05 90.746 -6.05 90.958 -6.057 C 91.17 -6.064 90.986 -6.07 90.548 -6.07 C 90.11 -6.07 89.937 -6.064 90.162 -6.057 M 61.349 -6.017 L 62.115 -6.005 L 62.126 -5.161 L 62.138 -4.316 L 62.147 -5.181 L 62.156 -6.047 L 61.37 -6.038 L 60.584 -6.029 L 61.349 -6.017" stroke="none" fill="#cd2233" fill-rule="evenodd" style="" transform="matrix(4.937131, 0, 0, 4.937131, 21.331261, 256.648899)"/>
  <path d="M 90.946 -19.393 C 90.858 -19.384 90.608 -19.349 90.389 -19.315 C 90.17 -19.281 89.934 -19.245 89.864 -19.235 C 89.653 -19.207 89.099 -18.986 88.848 -18.832 C 88.394 -18.551 88.142 -18.168 88.058 -17.627 C 87.997 -17.234 88.034 -16.139 88.12 -15.816 C 88.309 -15.101 88.694 -14.702 89.434 -14.452 C 89.565 -14.408 89.728 -14.363 89.795 -14.352 C 89.91 -14.334 90.293 -14.242 91.408 -13.963 C 91.661 -13.9 91.93 -13.84 92.005 -13.83 C 92.264 -13.797 92.582 -13.653 92.631 -13.546 C 92.687 -13.423 92.691 -13.132 92.639 -12.995 C 92.601 -12.896 92.323 -12.721 92.228 -12.738 C 92.201 -12.743 91.974 -12.733 91.722 -12.717 C 91.145 -12.68 89.37 -12.747 88.644 -12.832 C 88.341 -12.868 88.086 -12.89 88.077 -12.88 C 88.068 -12.871 88.041 -12.66 88.017 -12.41 C 87.977 -11.996 87.991 -11.381 88.047 -11.016 L 88.07 -10.871 L 88.434 -10.824 C 89.677 -10.661 91.661 -10.611 92.489 -10.722 C 92.725 -10.753 92.931 -10.787 92.948 -10.798 C 92.964 -10.808 93.062 -10.826 93.164 -10.838 C 93.447 -10.871 94.013 -11.109 94.293 -11.312 C 94.585 -11.524 94.805 -11.831 94.887 -12.14 C 94.97 -12.449 94.967 -13.974 94.885 -14.37 C 94.818 -14.687 94.662 -14.967 94.446 -15.156 C 94.281 -15.301 93.988 -15.475 93.871 -15.498 C 93.824 -15.507 93.691 -15.55 93.576 -15.593 C 93.46 -15.636 93.225 -15.7 93.051 -15.735 C 92.878 -15.771 92.585 -15.843 92.399 -15.894 C 91.939 -16.023 91.13 -16.238 91.047 -16.254 C 90.831 -16.295 90.635 -16.379 90.509 -16.483 C 90.366 -16.6 90.366 -16.602 90.377 -16.881 C 90.394 -17.281 90.444 -17.313 91.134 -17.356 C 91.871 -17.403 93.548 -17.334 94.262 -17.227 C 94.575 -17.18 94.841 -17.151 94.851 -17.162 C 94.89 -17.2 94.916 -18.365 94.888 -18.745 L 94.859 -19.127 L 94.475 -19.192 C 93.694 -19.325 92.959 -19.387 92.04 -19.398 C 91.526 -19.404 91.034 -19.402 90.946 -19.393 M 42.976 -19.262 L 42.558 -19.238 L 42.548 -16.064 C 42.537 -12.58 42.537 -12.576 42.774 -12.071 C 42.999 -11.589 43.446 -11.229 44.126 -10.981 C 44.307 -10.915 44.53 -10.851 44.621 -10.84 C 44.712 -10.828 44.849 -10.803 44.926 -10.783 C 45.47 -10.642 47.279 -10.628 47.95 -10.759 C 48.136 -10.795 48.338 -10.832 48.399 -10.841 C 48.745 -10.89 49.385 -11.18 49.704 -11.432 C 49.944 -11.622 50.182 -11.95 50.314 -12.271 C 50.396 -12.47 50.397 -12.526 50.409 -15.861 L 50.42 -19.249 L 49.765 -19.278 C 49.405 -19.293 49.094 -19.296 49.074 -19.284 C 49.055 -19.272 48.838 -19.259 48.594 -19.255 L 48.149 -19.249 L 48.148 -16.399 C 48.148 -14.798 48.131 -13.478 48.11 -13.389 C 48.06 -13.169 47.789 -12.919 47.508 -12.831 C 47.224 -12.742 46.163 -12.704 45.779 -12.769 C 45.389 -12.835 45.089 -12.993 44.977 -13.191 L 44.888 -13.349 L 44.887 -16.281 C 44.886 -17.894 44.873 -19.222 44.856 -19.231 C 44.801 -19.263 43.399 -19.286 42.976 -19.262 M 61.717 -19.283 C 61.706 -19.272 61.522 -19.259 61.309 -19.255 L 60.922 -19.248 L 60.924 -16.08 C 60.924 -14.337 60.941 -12.788 60.96 -12.638 C 61.026 -12.131 61.365 -11.614 61.834 -11.309 C 62.102 -11.134 62.236 -11.059 62.236 -11.084 C 62.236 -11.095 62.288 -11.076 62.352 -11.043 C 62.507 -10.962 62.799 -10.865 62.938 -10.847 C 63 -10.838 63.221 -10.798 63.43 -10.758 C 63.961 -10.653 65.788 -10.65 66.295 -10.752 C 66.48 -10.79 66.702 -10.831 66.787 -10.844 C 67.052 -10.886 67.648 -11.135 67.927 -11.32 C 68.348 -11.6 68.606 -11.97 68.739 -12.483 C 68.794 -12.696 68.801 -13.122 68.792 -15.982 L 68.782 -19.238 L 68.287 -19.268 C 68.015 -19.283 67.504 -19.283 67.153 -19.268 L 66.513 -19.238 L 66.493 -16.274 C 66.471 -12.87 66.503 -13.138 66.091 -12.929 C 65.764 -12.764 65.431 -12.719 64.688 -12.742 C 64.151 -12.758 64.008 -12.776 63.815 -12.85 C 63.504 -12.969 63.33 -13.149 63.274 -13.408 C 63.245 -13.545 63.231 -14.536 63.231 -16.429 C 63.231 -18.655 63.22 -19.245 63.181 -19.246 C 63.153 -19.246 62.818 -19.259 62.435 -19.275 C 62.051 -19.291 61.729 -19.295 61.717 -19.283 M 19.579 -19.073 C 19.535 -18.972 19.498 -18.875 19.498 -18.856 C 19.498 -18.838 19.455 -18.728 19.403 -18.613 C 19.35 -18.497 19.217 -18.17 19.106 -17.885 C 18.996 -17.601 18.815 -17.144 18.703 -16.871 C 18.592 -16.597 18.494 -16.344 18.486 -16.309 C 18.477 -16.273 18.435 -16.166 18.392 -16.07 C 18.348 -15.974 18.23 -15.681 18.128 -15.418 C 18.027 -15.156 17.909 -14.86 17.867 -14.762 C 17.825 -14.663 17.716 -14.395 17.626 -14.165 C 17.536 -13.935 17.42 -13.648 17.369 -13.528 C 17.317 -13.408 17.228 -13.184 17.17 -13.031 C 16.945 -12.434 16.876 -12.257 16.677 -11.757 C 16.563 -11.473 16.432 -11.155 16.386 -11.051 C 16.34 -10.947 16.315 -10.849 16.331 -10.832 C 16.37 -10.794 18.218 -10.768 18.491 -10.802 L 18.697 -10.827 L 18.804 -11.113 C 18.989 -11.607 19.126 -11.984 19.258 -12.354 C 19.328 -12.551 19.419 -12.802 19.461 -12.911 C 19.503 -13.021 19.59 -13.263 19.655 -13.448 C 19.72 -13.635 19.838 -13.966 19.917 -14.185 C 19.997 -14.404 20.094 -14.672 20.133 -14.782 C 20.173 -14.891 20.268 -15.151 20.345 -15.359 C 20.421 -15.567 20.539 -15.887 20.606 -16.07 C 20.674 -16.253 20.736 -16.411 20.746 -16.42 C 20.755 -16.43 20.79 -16.36 20.824 -16.266 C 20.858 -16.172 20.951 -15.916 21.031 -15.697 C 21.111 -15.478 21.21 -15.2 21.25 -15.08 C 21.291 -14.96 21.367 -14.745 21.42 -14.603 C 21.604 -14.114 21.636 -14.165 21.136 -14.165 L 20.699 -14.165 L 20.618 -13.916 C 20.573 -13.779 20.508 -13.551 20.472 -13.409 C 20.437 -13.266 20.372 -13.043 20.33 -12.911 C 20.287 -12.78 20.241 -12.611 20.229 -12.536 C 20.217 -12.462 20.191 -12.358 20.171 -12.305 C 20.151 -12.253 20.135 -12.202 20.135 -12.193 C 20.135 -12.183 20.625 -12.175 21.225 -12.175 C 22.228 -12.175 22.316 -12.17 22.336 -12.106 C 22.349 -12.067 22.424 -11.857 22.505 -11.638 C 22.586 -11.419 22.683 -11.151 22.72 -11.041 C 22.777 -10.877 22.81 -10.838 22.905 -10.817 C 23.057 -10.784 24.809 -10.776 25.039 -10.807 L 25.218 -10.832 L 25.149 -11.016 C 25.036 -11.317 24.834 -11.824 24.751 -12.016 C 24.709 -12.114 24.59 -12.41 24.489 -12.673 C 24.387 -12.935 24.27 -13.225 24.229 -13.317 C 24.188 -13.409 24.154 -13.498 24.153 -13.516 C 24.153 -13.534 24.054 -13.79 23.933 -14.085 C 23.812 -14.381 23.622 -14.855 23.512 -15.14 C 23.401 -15.424 23.267 -15.752 23.215 -15.867 C 23.163 -15.983 23.119 -16.088 23.119 -16.101 C 23.119 -16.134 22.851 -16.808 22.737 -17.061 C 22.685 -17.177 22.642 -17.282 22.642 -17.295 C 22.642 -17.341 22.271 -18.274 21.988 -18.94 L 21.862 -19.238 L 20.761 -19.247 L 19.66 -19.255 L 19.579 -19.073 M 26.529 -19.232 C 26.514 -19.218 26.502 -17.321 26.502 -15.019 L 26.502 -10.833 L 26.651 -10.808 C 26.845 -10.776 28.506 -10.776 28.7 -10.808 L 28.85 -10.833 L 28.84 -15.036 L 28.83 -19.238 L 27.693 -19.249 C 27.068 -19.255 26.544 -19.247 26.529 -19.232 M 34.381 -18.263 L 34.381 -17.268 L 37.634 -17.278 L 40.887 -17.289 L 40.921 -17.776 C 40.94 -18.049 40.94 -18.478 40.921 -18.751 L 40.887 -19.238 L 37.634 -19.249 L 34.381 -19.259 L 34.381 -18.263 M 51.795 -19.134 C 51.781 -19.065 51.77 -18.674 51.77 -18.263 C 51.77 -17.853 51.781 -17.461 51.795 -17.393 L 51.82 -17.269 L 53.168 -17.269 L 54.516 -17.269 L 54.516 -14.051 L 54.516 -10.833 L 54.665 -10.808 C 54.859 -10.776 56.52 -10.776 56.714 -10.808 L 56.864 -10.833 L 56.864 -14.051 L 56.864 -17.269 L 58.213 -17.269 L 59.562 -17.269 L 59.591 -17.696 C 59.62 -18.12 59.59 -19.152 59.547 -19.222 C 59.534 -19.244 57.943 -19.258 55.673 -19.258 L 51.82 -19.258 L 51.795 -19.134 M 70.711 -18.224 L 70.711 -17.189 L 72.924 -17.189 C 74.795 -17.189 75.174 -17.18 75.375 -17.127 C 75.766 -17.026 75.911 -16.778 75.875 -16.27 C 75.85 -15.922 75.762 -15.781 75.487 -15.645 L 75.268 -15.538 L 72.99 -15.526 L 70.711 -15.514 L 70.711 -13.173 L 70.711 -10.832 L 70.836 -10.807 C 70.997 -10.775 72.675 -10.776 72.87 -10.808 L 73.019 -10.833 L 73.019 -12.18 L 73.019 -13.528 L 73.729 -13.528 L 74.439 -13.528 L 74.565 -13.353 C 74.634 -13.256 74.704 -13.144 74.721 -13.104 C 74.737 -13.064 74.856 -12.844 74.986 -12.616 C 75.233 -12.178 75.845 -10.937 75.845 -10.871 C 75.845 -10.85 75.928 -10.822 76.03 -10.808 C 76.275 -10.774 78.053 -10.779 78.242 -10.815 L 78.39 -10.842 L 77.883 -11.857 C 77.416 -12.793 77.255 -13.088 76.952 -13.565 C 76.89 -13.662 76.84 -13.751 76.841 -13.764 C 76.842 -13.776 76.987 -13.857 77.164 -13.942 C 77.715 -14.209 78.024 -14.604 78.134 -15.181 C 78.203 -15.541 78.215 -17.103 78.152 -17.507 C 78.083 -17.947 77.938 -18.206 77.587 -18.523 C 77.328 -18.755 77.031 -18.906 76.577 -19.037 C 75.859 -19.243 75.62 -19.258 73.069 -19.258 L 70.711 -19.258 L 70.711 -18.224 M 80.01 -19.232 C 79.995 -19.217 79.983 -18.781 79.983 -18.263 L 79.983 -17.321 L 82.162 -17.295 C 83.36 -17.281 84.826 -17.269 85.419 -17.269 L 86.498 -17.269 L 86.523 -17.513 C 86.538 -17.648 86.549 -17.985 86.549 -18.263 C 86.549 -18.542 86.538 -18.879 86.523 -19.014 L 86.498 -19.258 L 83.267 -19.258 C 81.49 -19.258 80.024 -19.246 80.01 -19.232 M 79.983 -13.409 L 79.983 -10.822 L 83.241 -10.822 L 86.498 -10.822 L 86.523 -11.031 C 86.537 -11.146 86.548 -11.491 86.548 -11.797 C 86.548 -12.103 86.537 -12.448 86.523 -12.563 L 86.498 -12.772 L 84.415 -12.772 L 82.331 -12.772 L 82.331 -13.429 L 82.331 -14.085 L 84.355 -14.085 L 86.38 -14.085 L 86.408 -14.563 C 86.424 -14.826 86.424 -15.255 86.408 -15.518 L 86.38 -15.995 L 83.182 -15.995 L 79.983 -15.995 L 79.983 -13.409 M 34.381 -13.374 L 34.381 -10.833 L 34.566 -10.808 C 34.802 -10.775 36.383 -10.776 36.579 -10.808 L 36.728 -10.833 L 36.728 -12.379 L 36.728 -13.926 L 38.678 -13.926 L 40.627 -13.926 L 40.656 -14.035 C 40.695 -14.18 40.693 -15.803 40.654 -15.866 C 40.63 -15.905 39.946 -15.916 37.502 -15.916 L 34.381 -15.916 L 34.381 -13.374 M 23.54 -8.17 C 23.43 -7.636 23.235 -6.723 23.135 -6.266 C 23.081 -6.025 23.022 -5.73 23.002 -5.609 C 22.982 -5.489 22.911 -5.161 22.844 -4.881 C 22.776 -4.6 22.721 -4.362 22.721 -4.352 C 22.721 -4.342 22.895 -4.338 23.107 -4.345 L 23.493 -4.356 L 23.566 -4.734 C 23.734 -5.604 23.804 -5.958 23.843 -6.142 L 23.884 -6.336 L 24.064 -5.963 C 24.163 -5.757 24.358 -5.355 24.497 -5.067 C 24.637 -4.78 24.751 -4.533 24.751 -4.519 C 24.751 -4.504 24.804 -4.4 24.869 -4.287 L 24.986 -4.08 L 25.541 -5.207 C 25.908 -5.952 26.103 -6.309 26.117 -6.26 C 26.128 -6.22 26.158 -6.052 26.183 -5.888 C 26.249 -5.448 26.338 -4.951 26.408 -4.625 L 26.47 -4.336 L 26.827 -4.336 L 27.184 -4.336 L 27.156 -4.565 C 27.141 -4.691 27.094 -4.955 27.051 -5.152 C 27.009 -5.349 26.956 -5.617 26.934 -5.749 C 26.911 -5.88 26.834 -6.292 26.761 -6.664 C 26.689 -7.036 26.581 -7.591 26.522 -7.898 C 26.462 -8.204 26.407 -8.462 26.399 -8.47 C 26.391 -8.479 26.076 -7.857 25.7 -7.088 C 25.324 -6.318 25.003 -5.689 24.989 -5.689 C 24.974 -5.689 24.679 -6.284 24.334 -7.012 C 23.989 -7.74 23.683 -8.368 23.655 -8.408 C 23.61 -8.473 23.596 -8.444 23.54 -8.17 M 29.42 -7.35 C 29.133 -6.776 28.69 -5.897 28.437 -5.398 C 28.185 -4.899 27.967 -4.456 27.954 -4.413 C 27.93 -4.34 27.951 -4.336 28.321 -4.336 L 28.713 -4.336 L 28.929 -4.775 L 29.146 -5.213 L 29.937 -5.202 L 30.728 -5.191 L 30.919 -4.774 L 31.109 -4.356 L 31.515 -4.345 L 31.92 -4.333 L 31.892 -4.424 C 31.876 -4.474 31.76 -4.721 31.634 -4.973 C 31.508 -5.224 31.24 -5.77 31.038 -6.187 C 30.48 -7.336 29.959 -8.395 29.951 -8.395 C 29.947 -8.395 29.708 -7.925 29.42 -7.35 M 32.749 -6.365 L 32.749 -4.336 L 33.127 -4.336 L 33.504 -4.336 L 33.515 -5.53 L 33.525 -6.725 L 34.918 -5.392 C 35.684 -4.659 36.324 -4.058 36.341 -4.058 C 36.357 -4.058 36.37 -4.962 36.37 -6.067 L 36.37 -8.077 L 35.992 -8.077 L 35.614 -8.077 L 35.614 -6.881 L 35.614 -5.685 L 34.215 -7.04 C 33.446 -7.785 32.801 -8.395 32.783 -8.395 C 32.764 -8.395 32.749 -7.482 32.749 -6.365 M 64.185 -6.372 L 64.185 -4.336 L 64.544 -4.336 L 64.902 -4.336 L 64.902 -5.53 C 64.902 -6.187 64.912 -6.723 64.923 -6.723 C 64.935 -6.723 65.563 -6.128 66.317 -5.4 C 67.072 -4.673 67.707 -4.071 67.728 -4.064 C 67.753 -4.056 67.767 -4.774 67.767 -6.064 L 67.767 -8.077 L 67.389 -8.077 L 67.012 -8.077 L 67.001 -6.902 L 66.991 -5.728 L 65.674 -6.992 C 64.95 -7.687 64.318 -8.29 64.271 -8.331 L 64.185 -8.407 L 64.185 -6.372 M 57.142 -8.128 C 56.117 -7.95 55.394 -7.147 55.394 -6.187 C 55.394 -5.483 55.81 -4.837 56.478 -4.499 C 56.812 -4.331 57.111 -4.283 57.66 -4.308 C 58.041 -4.325 58.158 -4.346 58.366 -4.437 L 58.614 -4.545 L 58.614 -4.958 C 58.614 -5.185 58.606 -5.37 58.596 -5.37 C 58.571 -5.37 58.214 -5.126 58.145 -5.062 C 58.116 -5.035 58.079 -5.011 58.065 -5.01 C 58.05 -5.008 57.993 -4.995 57.938 -4.98 C 57.884 -4.965 57.669 -4.953 57.461 -4.953 C 57.136 -4.953 57.051 -4.968 56.86 -5.057 C 56.585 -5.186 56.39 -5.377 56.253 -5.652 C 56.163 -5.832 56.147 -5.915 56.148 -6.204 C 56.15 -6.626 56.219 -6.796 56.516 -7.098 C 56.696 -7.28 56.783 -7.334 57.034 -7.418 C 57.2 -7.474 57.395 -7.519 57.468 -7.519 C 57.735 -7.518 58.176 -7.357 58.462 -7.156 C 58.52 -7.115 58.578 -7.082 58.591 -7.082 C 58.604 -7.082 58.614 -7.26 58.614 -7.479 L 58.614 -7.876 L 58.493 -7.939 C 58.176 -8.102 57.522 -8.194 57.142 -8.128 M 70.427 -8.061 C 70.211 -8.004 70.001 -7.916 69.865 -7.826 C 69.607 -7.655 69.296 -7.348 69.21 -7.181 C 69.176 -7.116 69.136 -7.053 69.121 -7.042 C 69.107 -7.031 69.062 -6.941 69.022 -6.843 C 68.967 -6.706 68.95 -6.555 68.95 -6.198 C 68.95 -5.749 68.955 -5.722 69.088 -5.442 C 69.269 -5.062 69.625 -4.704 70.012 -4.513 C 70.167 -4.437 70.338 -4.364 70.393 -4.351 C 70.593 -4.302 71.334 -4.289 71.554 -4.33 C 72.138 -4.438 72.741 -4.908 73.001 -5.458 C 73.145 -5.764 73.146 -5.764 73.132 -6.234 C 73.12 -6.661 73.108 -6.727 72.996 -6.962 C 72.745 -7.493 72.209 -7.923 71.609 -8.076 C 71.205 -8.179 70.856 -8.175 70.427 -8.061 M 78.352 -8.095 C 77.942 -8.002 77.644 -7.834 77.319 -7.511 C 76.708 -6.905 76.575 -6.16 76.94 -5.392 C 77.18 -4.885 77.769 -4.438 78.337 -4.331 C 78.472 -4.305 78.768 -4.296 79.04 -4.308 C 79.47 -4.327 79.533 -4.34 79.796 -4.466 C 79.953 -4.541 80.183 -4.684 80.304 -4.784 C 80.522 -4.962 80.846 -5.401 80.877 -5.56 C 80.885 -5.603 80.911 -5.709 80.935 -5.793 C 80.958 -5.878 80.978 -6.064 80.978 -6.206 C 80.978 -6.348 80.958 -6.534 80.935 -6.619 C 80.911 -6.704 80.886 -6.804 80.879 -6.842 C 80.859 -6.945 80.624 -7.322 80.484 -7.475 C 80.302 -7.674 79.864 -7.947 79.578 -8.039 C 79.245 -8.146 78.689 -8.171 78.352 -8.095 M 83.644 -8.13 C 83.016 -8.007 82.485 -7.652 82.167 -7.142 C 81.975 -6.834 81.953 -6.733 81.955 -6.187 C 81.957 -5.71 81.965 -5.65 82.065 -5.434 C 82.214 -5.109 82.704 -4.628 83.051 -4.465 C 83.577 -4.218 84.379 -4.219 84.878 -4.466 C 85.517 -4.783 85.873 -5.344 85.873 -6.034 L 85.873 -6.326 L 84.997 -6.326 L 84.122 -6.326 L 84.122 -6.007 L 84.122 -5.689 L 84.599 -5.689 C 84.862 -5.689 85.077 -5.679 85.077 -5.667 C 85.077 -5.601 84.93 -5.371 84.805 -5.241 C 84.521 -4.944 83.959 -4.846 83.507 -5.015 C 83.02 -5.197 82.642 -5.718 82.644 -6.202 C 82.646 -6.711 82.997 -7.201 83.505 -7.404 C 84.021 -7.61 84.579 -7.493 85.008 -7.086 L 85.219 -6.887 L 85.456 -7.089 C 85.587 -7.201 85.693 -7.321 85.693 -7.355 C 85.693 -7.39 85.544 -7.539 85.361 -7.685 C 84.953 -8.013 84.644 -8.124 84.102 -8.139 C 83.905 -8.145 83.699 -8.141 83.644 -8.13 M 93.253 -8.078 C 92.952 -7.98 92.715 -7.779 92.581 -7.511 C 92.336 -7.02 92.563 -6.523 93.166 -6.226 C 93.321 -6.149 93.474 -6.087 93.504 -6.087 C 93.629 -6.087 94.115 -5.794 94.171 -5.685 C 94.362 -5.315 94.099 -4.933 93.652 -4.933 C 93.323 -4.933 93.158 -5.066 93.093 -5.386 C 93.059 -5.556 93.039 -5.587 92.974 -5.575 C 92.931 -5.567 92.771 -5.539 92.617 -5.513 C 92.287 -5.457 92.271 -5.423 92.402 -5.074 C 92.503 -4.803 92.697 -4.573 92.953 -4.423 C 93.12 -4.325 93.169 -4.316 93.573 -4.316 C 93.813 -4.316 94.06 -4.329 94.121 -4.344 C 94.397 -4.412 94.787 -4.772 94.884 -5.047 C 94.963 -5.273 94.963 -5.728 94.884 -5.919 C 94.762 -6.209 94.446 -6.449 93.931 -6.642 C 93.358 -6.855 93.234 -6.946 93.234 -7.15 C 93.234 -7.3 93.429 -7.468 93.64 -7.5 C 93.858 -7.532 94.01 -7.465 94.177 -7.263 L 94.292 -7.124 L 94.578 -7.272 C 94.741 -7.356 94.865 -7.446 94.865 -7.48 C 94.865 -7.597 94.552 -7.906 94.32 -8.017 C 94.011 -8.166 93.595 -8.19 93.253 -8.078 M 37.246 -7.758 L 37.246 -7.44 L 37.704 -7.44 L 38.161 -7.44 L 38.161 -5.888 L 38.161 -4.336 L 38.519 -4.336 L 38.877 -4.336 L 38.877 -5.888 L 38.877 -7.44 L 39.335 -7.44 L 39.793 -7.44 L 39.793 -7.758 L 39.793 -8.077 L 38.519 -8.077 L 37.246 -8.077 L 37.246 -7.758 M 40.708 -6.206 L 40.708 -4.336 L 41.842 -4.336 L 42.976 -4.336 L 42.976 -4.676 L 42.976 -5.016 L 42.21 -5.011 L 41.444 -5.006 L 41.444 -5.536 L 41.444 -6.067 L 42.19 -6.078 L 42.936 -6.089 L 42.936 -6.406 L 42.936 -6.723 L 42.18 -6.723 L 41.424 -6.723 L 41.424 -7.082 L 41.424 -7.44 L 42.2 -7.44 L 42.976 -7.44 L 42.976 -7.758 L 42.976 -8.077 L 41.842 -8.077 L 40.708 -8.077 L 40.708 -6.206 M 44.169 -6.206 L 44.169 -4.336 L 45.106 -4.336 L 46.043 -4.336 L 46.032 -4.664 L 46.02 -4.993 L 45.453 -4.993 L 44.886 -4.993 L 44.886 -6.534 L 44.886 -8.077 L 44.528 -8.077 L 44.169 -8.077 L 44.169 -6.206 M 48.706 -7.758 L 48.706 -7.44 L 49.144 -7.44 L 49.582 -7.44 L 49.582 -5.888 L 49.582 -4.336 L 49.96 -4.336 L 50.338 -4.336 L 50.338 -5.888 L 50.338 -7.44 L 50.776 -7.44 L 51.213 -7.44 L 51.213 -7.758 L 51.213 -8.077 L 49.96 -8.077 L 48.706 -8.077 L 48.706 -7.758 M 52.128 -6.206 L 52.128 -4.336 L 53.262 -4.336 L 54.397 -4.336 L 54.397 -4.676 L 54.397 -5.016 L 53.642 -5.004 L 52.888 -4.993 L 52.877 -5.523 C 52.87 -5.815 52.872 -6.061 52.881 -6.07 C 52.89 -6.079 53.236 -6.087 53.649 -6.087 L 54.4 -6.087 L 54.388 -6.395 L 54.377 -6.704 L 53.63 -6.714 L 52.884 -6.725 L 52.884 -7.083 L 52.884 -7.44 L 53.64 -7.44 L 54.397 -7.44 L 54.397 -7.758 L 54.397 -8.077 L 53.262 -8.077 L 52.128 -8.077 L 52.128 -6.206 M 59.848 -6.206 L 59.848 -4.336 L 60.226 -4.336 L 60.604 -4.336 L 60.604 -5.191 L 60.604 -6.047 L 61.38 -6.047 L 62.156 -6.047 L 62.156 -5.191 L 62.156 -4.336 L 62.514 -4.336 L 62.872 -4.336 L 62.872 -6.206 L 62.872 -8.077 L 62.514 -8.077 L 62.156 -8.077 L 62.156 -7.38 L 62.156 -6.684 L 61.38 -6.684 L 60.604 -6.684 L 60.604 -7.38 L 60.604 -8.077 L 60.226 -8.077 L 59.848 -8.077 L 59.848 -6.206 M 74.253 -6.206 L 74.253 -4.336 L 75.208 -4.336 L 76.163 -4.336 L 76.163 -4.674 L 76.163 -5.012 L 75.586 -5.012 L 75.009 -5.012 L 75.009 -6.544 L 75.009 -8.077 L 74.631 -8.077 L 74.253 -8.077 L 74.253 -6.206 M 86.987 -6.206 L 86.987 -4.336 L 87.365 -4.336 L 87.743 -4.336 L 87.743 -6.206 L 87.743 -8.077 L 87.365 -8.077 L 86.987 -8.077 L 86.987 -6.206 M 89.056 -6.206 L 89.056 -4.336 L 90.212 -4.336 L 91.367 -4.336 L 91.355 -4.664 L 91.344 -4.993 L 90.558 -5.003 L 89.772 -5.014 L 89.772 -5.551 L 89.772 -6.087 L 90.548 -6.087 L 91.324 -6.087 L 91.324 -6.405 L 91.324 -6.723 L 90.548 -6.723 L 89.772 -6.723 L 89.772 -7.082 L 89.772 -7.44 L 90.568 -7.44 L 91.364 -7.44 L 91.364 -7.758 L 91.364 -8.077 L 90.21 -8.077 L 89.056 -8.077 L 89.056 -6.206 M 70.711 -7.465 C 70.212 -7.316 69.958 -7.111 69.769 -6.704 C 69.607 -6.355 69.615 -6.041 69.797 -5.673 C 69.955 -5.353 70.189 -5.145 70.542 -5.012 C 70.838 -4.9 71.349 -4.914 71.634 -5.042 C 71.883 -5.153 72.168 -5.422 72.296 -5.667 C 72.385 -5.838 72.401 -5.919 72.402 -6.206 C 72.403 -6.503 72.388 -6.573 72.285 -6.777 C 72.22 -6.906 72.092 -7.075 72 -7.155 C 71.673 -7.441 71.095 -7.58 70.711 -7.465 M 78.471 -7.447 C 78.157 -7.342 78.035 -7.27 77.847 -7.075 C 77.652 -6.874 77.526 -6.602 77.492 -6.312 C 77.463 -6.061 77.583 -5.666 77.757 -5.447 C 77.895 -5.273 78.251 -5.021 78.414 -4.982 C 78.563 -4.946 79.173 -4.945 79.32 -4.981 C 79.621 -5.054 80.002 -5.388 80.145 -5.703 C 80.201 -5.825 80.22 -5.962 80.221 -6.226 C 80.221 -6.55 80.21 -6.604 80.105 -6.788 C 79.782 -7.351 79.058 -7.643 78.471 -7.447 M 29.694 -6.344 L 29.447 -5.848 L 29.924 -5.848 C 30.187 -5.848 30.401 -5.856 30.401 -5.865 C 30.401 -5.888 29.977 -6.803 29.957 -6.823 C 29.948 -6.832 29.83 -6.617 29.694 -6.344" stroke="none" fill-rule="evenodd" style="fill: rgb(0, 0, 0);" transform="matrix(4.937131, 0, 0, 4.937131, 21.331261, 256.648899)"/>
</svg>