<?xml version="1.0" encoding="utf-8"?>
<svg viewBox="14.432 26.677 475.609 76.338" xmlns="http://www.w3.org/2000/svg">
  <path d="M 33.731 32.245 C 28.846 35.302 24.716 37.912 24.552 38.048 C 24.3 38.257 24.254 39.076 24.254 43.355 C 24.254 47.17 24.195 48.462 24.009 48.606 C 23.874 48.712 22.262 49.583 20.425 50.541 C 18.586 51.499 16.488 52.596 15.757 52.977 L 14.432 53.669 L 14.481 64.868 L 14.53 76.065 L 16.494 77.105 C 17.574 77.677 19.763 78.826 21.355 79.659 L 24.251 81.174 L 24.253 86.606 L 24.254 92.036 L 25.189 92.625 C 25.701 92.948 28.774 94.784 32.015 96.702 C 35.257 98.622 38.977 100.827 40.281 101.603 L 42.652 103.015 L 47.255 100.496 C 49.787 99.112 51.979 97.977 52.124 97.975 C 52.271 97.972 54.412 99.076 56.884 100.428 C 59.353 101.778 61.476 102.883 61.599 102.883 C 61.722 102.883 63.34 101.984 65.191 100.885 C 73.831 95.753 75.58 94.714 77.637 93.488 L 79.841 92.175 L 79.896 86.703 L 79.953 81.232 L 83.684 79.269 C 85.738 78.188 87.971 77 88.646 76.626 L 89.873 75.948 L 89.873 64.863 L 89.873 53.775 L 89.432 53.497 C 89.187 53.342 86.956 52.154 84.471 50.856 L 79.953 48.493 L 79.899 43.284 L 79.847 38.075 L 70.724 32.376 L 61.602 26.677 L 58.891 28.171 C 57.399 28.992 55.255 30.176 54.123 30.802 C 52.962 31.443 51.979 31.869 51.863 31.781 C 51.752 31.695 51.086 31.312 50.382 30.931 C 49.679 30.549 47.91 29.578 46.453 28.771 C 44.996 27.963 43.535 27.165 43.207 26.996 L 42.612 26.69 L 33.731 32.245 M 121.455 27.588 C 122.67 27.624 124.66 27.624 125.875 27.588 C 127.09 27.554 126.096 27.526 123.664 27.526 C 121.234 27.526 120.238 27.554 121.455 27.588 M 155.454 27.588 C 156.784 27.624 158.905 27.622 160.169 27.588 C 161.432 27.554 160.345 27.526 157.751 27.526 C 155.158 27.526 154.123 27.554 155.454 27.588 M 258.726 41.882 C 258.726 49.769 258.752 52.968 258.781 48.989 C 258.811 45.01 258.811 38.556 258.781 34.647 C 258.752 30.738 258.726 33.993 258.726 41.882 M 270.123 43.649 C 270.123 52.51 270.147 56.106 270.176 51.64 C 270.206 47.176 270.206 39.927 270.176 35.53 C 270.147 31.136 270.123 34.788 270.123 43.649 M 333.384 41.784 C 333.384 49.617 333.408 52.821 333.437 48.904 C 333.467 44.987 333.467 38.578 333.437 34.661 C 333.408 30.745 333.384 33.949 333.384 41.784 M 370.115 32.647 C 370.115 35.458 370.141 36.579 370.175 35.142 C 370.208 33.704 370.208 31.404 370.175 30.033 C 370.141 28.662 370.115 29.839 370.115 32.647 M 321.792 43.158 C 321.792 51.64 321.815 55.111 321.846 50.869 C 321.875 46.628 321.875 39.689 321.846 35.447 C 321.815 31.207 321.792 34.677 321.792 43.158 M 36.042 34.719 C 32.423 36.984 29.477 38.909 29.496 38.992 C 29.532 39.149 30.119 40.208 32.646 44.682 C 34.015 47.106 34.156 47.284 34.699 47.284 C 35.938 47.284 37.297 48.479 37.722 49.942 C 38.608 52.983 35.456 55.541 32.556 54.136 C 30.922 53.345 30.116 51.235 30.814 49.569 L 31.127 48.82 L 29.41 45.743 L 27.693 42.667 L 27.634 46.597 L 27.576 50.526 L 24.392 52.207 C 22.641 53.132 20.437 54.281 19.491 54.762 L 17.773 55.635 L 17.773 64.81 L 17.772 73.987 L 18.607 74.461 C 19.772 75.123 24.051 77.343 24.162 77.343 C 24.214 77.343 24.253 74.182 24.248 70.319 L 24.242 63.296 L 23.759 62.945 C 23.429 62.703 22.846 62.577 21.919 62.541 C 20.779 62.497 20.445 62.4 19.837 61.937 C 18.919 61.236 18.407 60.394 18.247 59.323 C 18.06 58.078 18.87 56.5 20.052 55.808 C 20.808 55.365 21.101 55.305 22.175 55.373 C 23.698 55.47 24.589 56.063 25.242 57.414 C 25.581 58.112 25.656 58.529 25.572 59.241 L 25.462 60.166 L 26.527 60.845 L 27.593 61.528 L 27.595 75.869 L 27.597 90.211 L 28.137 90.523 C 28.854 90.937 35.97 95.159 36.769 95.646 C 37.375 96.012 37.345 95.929 35.924 93.388 C 34.508 90.855 34.419 90.744 33.723 90.629 C 32.047 90.355 30.722 88.942 30.584 87.282 C 30.34 84.344 33.428 82.39 36.032 83.834 C 37.517 84.656 38.249 86.466 37.716 87.997 C 37.556 88.459 37.422 88.932 37.421 89.051 C 37.419 89.226 40.634 95.129 40.879 95.401 C 40.921 95.446 40.953 93.236 40.953 90.49 L 40.953 85.496 L 36.732 81.763 L 32.511 78.031 L 32.51 69.73 L 32.507 61.43 L 36.829 58.55 L 41.151 55.669 L 41.151 50.041 L 41.151 44.412 L 40.544 43.962 C 39.803 43.415 39.197 42.146 39.191 41.137 C 39.182 39.759 40.183 38.352 41.59 37.765 C 44.057 36.734 46.769 38.811 46.519 41.541 C 46.431 42.486 45.758 43.674 45.082 44.074 L 44.49 44.422 L 44.49 50.93 L 44.49 57.437 L 40.168 60.317 L 35.846 63.199 L 35.846 69.859 L 35.846 76.518 L 40.054 80.221 L 44.262 83.924 L 44.278 91.129 L 44.295 98.336 L 47.29 96.686 L 50.286 95.037 L 50.338 89.036 L 50.39 83.033 L 49.67 82.401 C 48.786 81.625 48.419 80.788 48.422 79.559 C 48.434 76.445 52.222 74.81 54.555 76.915 C 56.382 78.564 56.351 80.996 54.48 82.499 L 53.724 83.105 L 53.724 89.015 L 53.724 94.926 L 56.611 96.499 C 58.2 97.362 59.569 98.1 59.657 98.135 C 59.743 98.171 59.814 95.039 59.814 91.175 L 59.814 84.15 L 60.396 83.644 C 60.716 83.367 62.662 81.64 64.718 79.81 L 68.458 76.481 L 68.458 69.869 L 68.458 63.258 L 64.136 60.348 L 59.814 57.44 L 59.814 51.011 L 59.814 44.581 L 59.147 44.072 C 58.347 43.462 57.652 42.112 57.658 41.182 C 57.66 40.809 57.825 40.154 58.025 39.72 C 58.914 37.794 60.997 36.981 62.868 37.83 C 65.326 38.947 65.782 42.168 63.73 43.944 L 63.163 44.436 L 63.133 50.035 L 63.104 55.635 L 67.452 58.559 L 71.803 61.485 L 71.752 69.749 L 71.7 78.013 L 67.427 81.825 L 63.154 85.637 L 63.154 90.658 C 63.154 93.419 63.19 95.643 63.231 95.597 C 63.274 95.552 64.12 94.07 65.111 92.303 L 66.914 89.092 L 66.607 88.321 C 66.228 87.376 66.214 86.567 66.564 85.735 C 67.323 83.92 69.093 82.996 70.926 83.456 C 72.693 83.901 73.96 85.809 73.663 87.574 C 73.411 89.063 72.076 90.395 70.595 90.631 C 69.797 90.758 69.629 90.985 67.561 94.73 C 66.857 96.002 66.837 96.082 67.286 95.791 C 67.921 95.38 70.037 94.112 73.616 91.997 L 76.513 90.284 L 76.513 75.979 L 76.513 61.673 L 77.595 60.93 L 78.674 60.185 L 78.674 59.127 C 78.674 57.611 79.448 56.256 80.678 55.615 C 81.315 55.286 83.244 55.25 83.844 55.559 C 85.686 56.506 86.48 58.825 85.571 60.602 C 84.882 61.957 83.573 62.685 82.033 62.575 C 81.334 62.525 80.987 62.614 80.493 62.966 L 79.853 63.421 L 79.853 70.469 L 79.853 77.515 L 81.573 76.608 C 82.519 76.11 83.999 75.323 84.864 74.862 L 86.435 74.022 L 86.435 64.865 L 86.435 55.707 L 85.944 55.418 C 85.674 55.259 83.463 54.087 81.033 52.811 L 76.611 50.495 L 76.513 46.712 L 76.416 42.928 L 74.783 45.844 L 73.151 48.758 L 73.457 49.715 C 73.819 50.842 73.82 50.9 73.559 51.847 C 72.908 54.189 69.969 55.296 67.976 53.949 C 67.145 53.385 66.298 51.82 66.298 50.844 C 66.298 49.186 68.036 47.284 69.55 47.284 C 70.105 47.284 70.239 47.163 70.789 46.155 C 71.128 45.533 71.657 44.582 71.966 44.042 C 74.053 40.382 74.761 39.02 74.66 38.857 C 74.596 38.754 73.55 38.057 72.337 37.306 C 71.122 36.556 68.196 34.728 65.835 33.242 C 62.572 31.193 61.458 30.584 61.202 30.711 C 61.015 30.803 59.247 31.765 57.274 32.845 L 53.687 34.809 L 53.758 37.51 L 53.83 40.208 L 54.445 40.771 C 56.517 42.664 56.158 45.649 53.707 46.9 C 52.213 47.661 50.589 47.308 49.367 45.955 C 48.059 44.504 48.169 42.338 49.618 40.956 L 50.384 40.228 L 50.384 37.493 L 50.384 34.757 L 46.63 32.671 C 44.565 31.524 42.818 30.588 42.749 30.591 C 42.68 30.594 39.663 32.452 36.042 34.719 M 419.598 37.412 C 421.632 37.444 424.902 37.444 426.866 37.412 C 428.832 37.379 427.168 37.354 423.171 37.354 C 419.172 37.354 417.565 37.379 419.598 37.412 M 280.084 37.607 C 281.889 37.642 284.893 37.642 286.766 37.609 C 288.635 37.576 287.16 37.55 283.487 37.55 C 279.813 37.55 278.282 37.576 280.084 37.607 M 305.244 37.607 C 307.054 37.642 310.015 37.642 311.826 37.607 C 313.637 37.576 312.155 37.55 308.536 37.55 C 304.916 37.55 303.435 37.576 305.244 37.607 M 407.243 41.882 C 407.243 44.259 407.271 45.204 407.307 43.983 C 407.341 42.76 407.341 40.817 407.305 39.661 C 407.271 38.505 407.243 39.505 407.243 41.882 M 42.246 40.52 C 41.574 41.192 42.065 42.059 43.054 41.944 C 43.495 41.895 43.62 41.769 43.67 41.33 C 43.783 40.34 42.916 39.849 42.246 40.52 M 60.697 40.606 C 60.173 41.186 60.564 41.98 61.375 41.98 C 62.178 41.98 62.521 41.357 62.083 40.689 C 61.703 40.109 61.176 40.076 60.697 40.606 M 51.376 43.048 C 50.991 43.513 51.281 44.308 51.894 44.462 C 52.575 44.633 53.197 43.952 52.957 43.296 C 52.759 42.76 51.747 42.602 51.376 43.048 M 423.923 43.698 C 428.334 43.728 435.494 43.728 439.836 43.698 C 444.177 43.67 440.567 43.645 431.815 43.645 C 423.062 43.645 419.512 43.67 423.923 43.698 M 370.118 46.155 C 370.067 46.289 370.048 51.572 370.076 57.893 L 370.126 69.387 L 370.572 69.412 C 370.941 69.435 370.95 69.424 370.621 69.35 C 370.229 69.261 370.224 69.129 370.224 57.685 L 370.224 46.109 L 381.079 46.056 L 391.934 46.004 L 381.073 45.956 C 372.53 45.919 370.192 45.962 370.118 46.155 M 50.51 49.93 C 48.311 50.713 47.351 53.267 48.51 55.244 C 48.775 55.698 49.219 56.218 49.495 56.399 L 49.998 56.728 L 49.946 61.565 L 49.893 66.4 L 46.893 68.559 L 43.891 70.718 L 42.441 70.74 C 41.133 70.76 40.916 70.82 40.235 71.365 C 39.119 72.257 38.757 73.074 38.839 74.519 C 38.922 75.976 39.587 76.99 40.833 77.556 C 42.443 78.288 44.344 77.829 45.39 76.457 C 45.835 75.874 45.964 75.47 46.028 74.476 L 46.108 73.227 L 48.393 71.582 C 49.651 70.676 50.916 69.785 51.207 69.599 L 51.735 69.259 L 54.989 71.484 C 57.19 72.988 58.209 73.798 58.139 73.984 C 58.083 74.135 58.167 74.712 58.329 75.266 C 58.937 77.362 61.237 78.494 63.209 77.668 C 64.099 77.295 65.267 75.935 65.426 75.085 C 65.73 73.472 64.935 71.764 63.555 71.061 C 62.736 70.642 60.934 70.519 60.42 70.847 C 60.228 70.967 59.946 70.883 59.535 70.581 C 59.203 70.338 57.67 69.274 56.13 68.218 L 53.33 66.295 L 53.33 61.512 L 53.33 56.727 L 53.921 56.29 C 56.225 54.586 55.406 50.63 52.589 49.847 C 51.661 49.59 51.439 49.599 50.51 49.93 M 33.475 50.452 C 32.992 51.357 34.11 52.281 34.824 51.568 C 35.167 51.226 35.116 50.295 34.75 50.154 C 34.159 49.928 33.698 50.037 33.475 50.452 M 69.251 50.415 C 68.975 50.931 68.995 51.132 69.356 51.495 C 69.806 51.942 70.368 51.873 70.727 51.324 C 70.972 50.953 70.993 50.756 70.823 50.44 C 70.536 49.903 69.534 49.887 69.251 50.415 M 50.897 52.9 C 50.526 53.865 51.192 54.589 52.08 54.185 C 52.589 53.952 52.712 53.227 52.31 52.824 C 51.968 52.483 51.037 52.532 50.897 52.9 M 432.552 53.326 C 435.334 53.356 439.888 53.356 442.67 53.326 C 445.451 53.295 443.175 53.27 437.61 53.27 C 432.046 53.27 429.77 53.295 432.552 53.326 M 489.952 57.5 C 489.952 59.823 489.982 60.774 490.016 59.612 C 490.05 58.451 490.05 56.55 490.016 55.388 C 489.982 54.227 489.952 55.178 489.952 57.5 M 383.337 56.075 C 384.339 56.111 385.972 56.111 386.972 56.075 C 387.973 56.04 387.155 56.01 385.155 56.01 C 383.156 56.01 382.339 56.04 383.337 56.075 M 21.242 58.221 C 21.002 58.463 21.109 59.414 21.404 59.658 C 22.146 60.276 23.297 59.124 22.681 58.382 C 22.437 58.086 21.483 57.98 21.242 58.221 M 81.66 58.325 C 81.531 58.455 81.426 58.747 81.426 58.973 C 81.426 59.201 81.531 59.492 81.66 59.621 C 81.791 59.752 82.083 59.857 82.309 59.857 C 82.537 59.857 82.828 59.752 82.957 59.621 C 83.088 59.492 83.193 59.201 83.193 58.973 C 83.193 58.747 83.088 58.455 82.957 58.325 C 82.828 58.195 82.537 58.09 82.309 58.09 C 82.083 58.09 81.791 58.195 81.66 58.325 M 432.763 59.612 C 435.66 59.642 440.346 59.642 443.174 59.612 C 446.003 59.581 443.632 59.556 437.905 59.556 C 432.178 59.556 429.864 59.581 432.763 59.612 M 249.057 59.807 C 249.894 59.844 251.265 59.844 252.102 59.807 C 252.94 59.771 252.255 59.741 250.579 59.741 C 248.904 59.741 248.219 59.771 249.057 59.807 M 339.93 59.808 C 340.826 59.844 342.242 59.844 343.072 59.807 C 343.905 59.77 343.172 59.741 341.443 59.741 C 339.713 59.741 339.034 59.771 339.93 59.808 M 424.006 69.435 C 428.463 69.464 435.757 69.464 440.214 69.435 C 444.671 69.406 441.024 69.381 432.11 69.381 C 423.196 69.381 419.549 69.406 424.006 69.435 M 105.541 69.63 C 106.649 69.666 108.461 69.666 109.569 69.63 C 110.676 69.596 109.769 69.567 107.554 69.567 C 105.34 69.567 104.434 69.596 105.541 69.63 M 137.673 69.63 C 138.841 69.666 140.697 69.666 141.798 69.63 C 142.901 69.596 141.945 69.567 139.676 69.567 C 137.408 69.568 136.506 69.596 137.673 69.63 M 155.846 69.63 C 156.959 69.666 158.727 69.666 159.775 69.63 C 160.822 69.595 159.911 69.567 157.751 69.567 C 155.589 69.567 154.732 69.596 155.846 69.63 M 194.746 69.63 C 195.859 69.666 197.627 69.666 198.675 69.63 C 199.722 69.595 198.811 69.567 196.651 69.567 C 194.489 69.567 193.632 69.596 194.746 69.63 M 294.155 69.63 C 295.269 69.666 297.036 69.666 298.085 69.63 C 299.132 69.595 298.221 69.567 296.06 69.567 C 293.899 69.567 293.042 69.596 294.155 69.63 M 374.006 69.63 C 375.06 69.666 376.784 69.666 377.837 69.63 C 378.891 69.595 378.029 69.567 375.922 69.567 C 373.815 69.567 372.953 69.595 374.006 69.63 M 399.743 69.63 C 400.905 69.666 402.805 69.666 403.967 69.63 C 405.129 69.596 404.178 69.568 401.854 69.568 C 399.532 69.568 398.581 69.596 399.743 69.63 M 41.78 73.65 C 41.228 74.2 41.643 75.181 42.428 75.181 C 42.953 75.181 43.312 74.825 43.312 74.298 C 43.312 73.771 42.953 73.414 42.428 73.414 C 42.201 73.414 41.909 73.521 41.78 73.65 M 60.986 73.819 C 60.685 74.383 61.213 75.181 61.886 75.181 C 62.524 75.181 62.903 74.439 62.578 73.832 C 62.277 73.267 61.286 73.261 60.986 73.819 M 51.406 78.954 C 51.276 79.083 51.17 79.375 51.17 79.602 C 51.17 80.157 51.535 80.487 52.152 80.487 C 52.77 80.487 53.135 80.157 53.135 79.602 C 53.135 79.046 52.77 78.718 52.152 78.718 C 51.872 78.718 51.535 78.823 51.406 78.954 M 101.596 78.849 C 101.524 78.921 101.465 83.3 101.465 88.58 C 101.465 97.066 101.499 98.193 101.769 98.297 C 101.969 98.373 102.456 98.033 103.192 97.303 L 104.314 96.192 L 104.412 90.647 L 104.51 85.104 L 111.716 92.324 L 118.922 99.544 L 113.979 99.544 L 109.035 99.544 L 111.241 97.33 C 112.455 96.112 113.449 95.026 113.449 94.914 C 113.449 94.607 111.999 93.257 111.67 93.257 C 111.511 93.257 109.946 94.695 108.191 96.451 L 105.001 99.646 L 105.001 100.733 C 105.001 101.333 105.107 101.928 105.237 102.058 C 105.413 102.233 107.645 102.293 114.071 102.293 C 123.838 102.293 123.075 102.438 123.075 100.593 L 123.075 99.65 L 112.617 89.184 C 106.863 83.427 102.06 78.718 101.941 78.718 C 101.823 78.718 101.667 78.778 101.596 78.849 M 120.274 84.368 C 117.169 87.475 114.627 90.162 114.627 90.337 C 114.627 90.643 116.044 92.077 116.345 92.077 C 116.425 92.077 118.105 90.465 120.077 88.494 L 123.664 84.91 L 123.664 90.612 L 123.664 96.313 L 124.801 97.437 C 125.424 98.055 126.043 98.56 126.175 98.56 C 126.36 98.56 126.415 96.319 126.415 88.64 C 126.415 80.806 126.363 78.718 126.169 78.718 C 126.032 78.718 123.381 81.26 120.274 84.368 M 337.899 91.293 C 337.899 96.857 337.924 99.133 337.955 96.351 C 337.986 93.569 337.986 89.015 337.955 86.233 C 337.924 83.451 337.899 85.727 337.899 91.293 M 208.095 82.795 C 209.85 82.827 212.723 82.827 214.479 82.795 C 216.234 82.761 214.798 82.735 211.286 82.735 C 207.774 82.735 206.338 82.761 208.095 82.795 M 221.987 82.89 C 221.935 83.027 221.916 87.249 221.945 92.275 L 221.997 101.41 L 222.045 92.126 L 222.092 82.843 L 227.684 82.843 L 233.275 82.843 L 233.343 84.367 L 233.413 85.889 L 233.401 84.316 L 233.389 82.746 L 227.735 82.693 C 223.319 82.653 222.061 82.696 221.987 82.89 M 239.078 82.893 C 239.026 83.028 239.008 87.249 239.036 92.275 L 239.091 101.41 L 239.137 92.134 L 239.183 82.859 L 241.002 82.794 L 242.818 82.729 L 240.995 82.689 C 239.686 82.659 239.146 82.717 239.078 82.893 M 261.468 82.908 C 261.412 83.055 261.397 83.83 261.434 84.631 L 261.502 86.086 L 261.543 84.465 L 261.581 82.843 L 267.761 82.843 L 273.94 82.843 L 274.012 84.269 L 274.081 85.693 L 274.07 84.22 L 274.056 82.746 L 267.814 82.694 C 262.701 82.651 261.551 82.69 261.468 82.908 M 284.019 82.795 L 289.659 82.85 L 289.726 84.468 L 289.792 86.086 L 289.832 84.367 L 289.871 82.647 L 284.125 82.693 L 278.378 82.739 L 284.019 82.795 M 327.876 82.899 C 327.823 83.039 327.805 84.653 327.838 86.485 L 327.897 89.818 L 327.942 86.338 L 327.985 82.859 L 329.802 82.794 L 331.62 82.729 L 329.796 82.689 C 328.461 82.659 327.946 82.714 327.876 82.899 M 463.593 82.795 C 465.186 82.827 467.795 82.827 469.388 82.795 C 470.983 82.761 469.679 82.735 466.49 82.735 C 463.303 82.735 461.999 82.761 463.593 82.795 M 33.594 86.373 C 32.88 87.16 33.723 88.26 34.659 87.76 C 35.192 87.475 35.205 86.472 34.68 86.19 C 34.149 85.907 33.992 85.932 33.594 86.373 M 69.325 86.478 C 69.027 86.933 69.027 87.005 69.325 87.46 C 69.722 88.068 70.303 88.092 70.706 87.515 C 71.101 86.954 71.093 86.853 70.62 86.38 C 70.096 85.856 69.714 85.884 69.325 86.478 M 209.411 93.649 C 209.411 97.917 209.438 99.664 209.469 97.53 C 209.501 95.395 209.501 91.904 209.469 89.769 C 209.438 87.634 209.411 89.382 209.411 93.649 M 213.144 93.649 C 213.144 97.917 213.171 99.664 213.202 97.53 C 213.233 95.395 213.233 91.904 213.202 89.769 C 213.171 87.634 213.144 89.382 213.144 93.649 M 341.629 95.417 C 341.629 98.714 341.656 100.061 341.688 98.413 C 341.721 96.766 341.721 94.07 341.688 92.422 C 341.656 90.775 341.629 92.122 341.629 95.417 M 233.094 91.189 L 233.094 92.658 L 229.41 92.715 L 225.727 92.775 L 229.509 92.819 L 233.29 92.864 L 233.29 91.293 C 233.29 90.428 233.247 89.72 233.192 89.72 C 233.138 89.72 233.094 90.382 233.094 91.189 M 437.807 91.428 C 441.417 91.569 445.229 91.575 445.144 91.439 C 445.094 91.358 443.091 91.31 440.693 91.331 C 438.296 91.352 436.997 91.396 437.807 91.428 M 284.027 92.813 C 285.08 92.849 286.804 92.849 287.858 92.813 C 288.911 92.778 288.049 92.748 285.942 92.748 C 283.835 92.748 282.973 92.778 284.027 92.813 M 466.256 92.813 C 467.369 92.849 469.137 92.849 470.185 92.813 C 471.232 92.778 470.321 92.748 468.161 92.75 C 465.999 92.75 465.142 92.778 466.256 92.813 M 324.002 93.011 L 327.781 93.069 L 327.838 97.239 L 327.896 101.41 L 327.94 97.137 L 327.985 92.864 L 324.105 92.908 L 320.225 92.953 L 324.002 93.011" stroke="none" fill="#cd2233" fill-rule="evenodd" style=""/>
  <path d="M 470.126 26.974 C 469.692 27.018 468.455 27.192 467.375 27.36 C 466.295 27.527 465.128 27.704 464.784 27.751 C 463.743 27.891 461.007 28.98 459.766 29.745 C 457.523 31.128 456.283 33.02 455.866 35.694 C 455.563 37.631 455.747 43.036 456.17 44.631 C 457.107 48.164 459.004 50.131 462.66 51.367 C 463.308 51.587 464.112 51.808 464.444 51.86 C 465.011 51.949 466.9 52.405 472.403 53.781 C 473.655 54.094 474.982 54.39 475.351 54.437 C 476.633 54.602 478.204 55.314 478.445 55.842 C 478.721 56.448 478.74 57.882 478.483 58.56 C 478.296 59.05 476.921 59.912 476.455 59.831 C 476.323 59.807 475.2 59.853 473.957 59.933 C 471.108 60.114 462.342 59.786 458.76 59.365 C 457.265 59.188 456.004 59.081 455.958 59.127 C 455.913 59.172 455.78 60.216 455.662 61.449 C 455.467 63.492 455.533 66.527 455.814 68.332 L 455.925 69.046 L 457.72 69.28 C 463.861 70.083 473.655 70.329 477.741 69.785 C 478.906 69.629 479.925 69.461 480.009 69.409 C 480.09 69.359 480.571 69.268 481.077 69.209 C 482.472 69.046 485.265 67.872 486.648 66.868 C 488.089 65.825 489.176 64.307 489.584 62.782 C 489.989 61.256 489.979 53.725 489.57 51.774 C 489.24 50.209 488.469 48.826 487.405 47.891 C 486.589 47.176 485.142 46.315 484.568 46.204 C 484.334 46.158 483.675 45.947 483.107 45.735 C 482.538 45.523 481.375 45.206 480.519 45.031 C 479.664 44.855 478.215 44.502 477.296 44.247 C 475.025 43.612 471.031 42.551 470.621 42.473 C 469.559 42.266 468.588 41.854 467.967 41.341 C 467.263 40.762 467.261 40.751 467.317 39.376 C 467.4 37.398 467.645 37.244 471.054 37.029 C 474.692 36.797 482.969 37.14 486.494 37.668 C 488.043 37.9 489.353 38.044 489.406 37.99 C 489.595 37.802 489.727 32.047 489.586 30.173 L 489.445 28.287 L 487.546 27.965 C 483.693 27.311 480.062 27.003 475.528 26.949 C 472.989 26.919 470.557 26.929 470.126 26.974 M 233.29 27.621 L 231.227 27.736 L 231.177 43.41 C 231.122 60.612 231.122 60.629 232.291 63.124 C 233.404 65.503 235.609 67.28 238.966 68.506 C 239.86 68.832 240.961 69.145 241.41 69.2 C 241.861 69.257 242.539 69.383 242.918 69.481 C 245.606 70.176 254.536 70.248 257.848 69.599 C 258.767 69.42 259.764 69.239 260.066 69.196 C 261.773 68.954 264.934 67.521 266.506 66.276 C 267.693 65.337 268.866 63.722 269.519 62.136 C 269.924 61.151 269.931 60.878 269.986 44.41 L 270.043 27.686 L 266.808 27.543 C 265.029 27.465 263.495 27.45 263.397 27.509 C 263.302 27.57 262.234 27.633 261.026 27.652 L 258.83 27.683 L 258.826 41.756 C 258.823 49.66 258.741 56.175 258.639 56.615 C 258.39 57.7 257.053 58.937 255.667 59.371 C 254.262 59.81 249.027 59.997 247.127 59.676 C 245.202 59.351 243.725 58.572 243.168 57.593 L 242.728 56.813 L 242.723 42.336 C 242.722 34.373 242.655 27.819 242.573 27.773 C 242.303 27.616 235.38 27.503 233.29 27.621 M 325.817 27.514 C 325.761 27.57 324.854 27.633 323.803 27.652 L 321.894 27.687 L 321.901 43.332 C 321.904 51.934 321.986 59.581 322.081 60.322 C 322.404 62.828 324.081 65.38 326.394 66.887 C 327.716 67.749 328.378 68.119 328.378 67.994 C 328.378 67.943 328.636 68.035 328.952 68.2 C 329.719 68.596 331.158 69.078 331.847 69.168 C 332.154 69.209 333.244 69.406 334.273 69.607 C 336.897 70.122 345.918 70.139 348.417 69.635 C 349.335 69.449 350.43 69.245 350.85 69.178 C 352.156 68.973 355.098 67.746 356.478 66.829 C 358.553 65.448 359.829 63.62 360.487 61.089 C 360.758 60.037 360.791 57.936 360.746 43.814 L 360.696 27.736 L 358.254 27.592 C 356.91 27.514 354.39 27.514 352.654 27.592 L 349.498 27.736 L 349.399 42.373 C 349.286 59.176 349.446 57.853 347.412 58.885 C 345.798 59.703 344.153 59.923 340.483 59.811 C 337.833 59.731 337.13 59.644 336.175 59.277 C 334.638 58.687 333.78 57.801 333.505 56.52 C 333.36 55.845 333.29 50.953 333.29 41.609 C 333.29 30.618 333.238 27.702 333.044 27.701 C 332.909 27.699 331.252 27.634 329.36 27.554 C 327.468 27.475 325.875 27.456 325.817 27.514 M 117.777 28.555 C 117.557 29.051 117.378 29.53 117.378 29.622 C 117.378 29.713 117.166 30.254 116.906 30.824 C 116.646 31.395 115.989 33.011 115.443 34.416 C 114.899 35.821 114.004 38.075 113.453 39.425 C 112.904 40.777 112.419 42.025 112.378 42.201 C 112.336 42.378 112.127 42.907 111.915 43.379 C 111.701 43.852 111.117 45.301 110.615 46.597 C 110.115 47.893 109.532 49.353 109.324 49.838 C 109.115 50.324 108.581 51.651 108.136 52.784 C 107.692 53.919 107.119 55.335 106.864 55.928 C 106.61 56.523 106.167 57.629 105.883 58.384 C 104.772 61.328 104.434 62.203 103.449 64.672 C 102.886 66.075 102.241 67.645 102.011 68.157 C 101.783 68.67 101.661 69.157 101.741 69.239 C 101.931 69.429 111.059 69.558 112.404 69.39 L 113.424 69.262 L 113.95 67.85 C 114.863 65.415 115.542 63.553 116.192 61.725 C 116.538 60.752 116.989 59.514 117.194 58.973 C 117.4 58.434 117.83 57.24 118.151 56.322 C 118.471 55.403 119.054 53.767 119.446 52.686 C 119.839 51.606 120.319 50.28 120.513 49.74 C 120.707 49.2 121.176 47.918 121.556 46.891 C 121.936 45.864 122.517 44.284 122.848 43.379 C 123.181 42.474 123.489 41.697 123.537 41.649 C 123.583 41.603 123.756 41.946 123.922 42.412 C 124.089 42.876 124.55 44.14 124.946 45.222 C 125.342 46.302 125.83 47.673 126.028 48.266 C 126.227 48.861 126.604 49.921 126.868 50.624 C 127.773 53.034 127.934 52.784 125.463 52.784 L 123.304 52.784 L 122.905 54.013 C 122.685 54.689 122.362 55.816 122.185 56.517 C 122.011 57.221 121.694 58.325 121.482 58.973 C 121.27 59.621 121.047 60.455 120.988 60.825 C 120.928 61.193 120.798 61.706 120.7 61.966 C 120.602 62.225 120.522 62.476 120.522 62.522 C 120.522 62.569 122.942 62.608 125.902 62.608 C 130.853 62.608 131.289 62.636 131.39 62.952 C 131.451 63.142 131.825 64.181 132.224 65.261 C 132.621 66.341 133.101 67.667 133.286 68.208 C 133.567 69.016 133.727 69.212 134.196 69.314 C 134.948 69.478 143.598 69.518 144.731 69.363 L 145.617 69.242 L 145.276 68.332 C 144.718 66.844 143.723 64.341 143.313 63.394 C 143.102 62.908 142.519 61.449 142.018 60.152 C 141.516 58.856 140.939 57.424 140.734 56.971 C 140.531 56.517 140.362 56.075 140.36 55.989 C 140.359 55.902 139.868 54.636 139.271 53.178 C 138.675 51.719 137.739 49.376 137.193 47.973 C 136.647 46.568 135.986 44.95 135.728 44.381 C 135.469 43.809 135.255 43.29 135.255 43.226 C 135.255 43.063 133.93 39.737 133.366 38.486 C 133.11 37.916 132.899 37.395 132.899 37.329 C 132.899 37.105 131.068 32.499 129.672 29.21 L 129.046 27.736 L 123.611 27.696 L 118.175 27.655 L 117.777 28.555 M 152.089 27.766 C 152.016 27.839 151.956 37.201 151.956 48.568 L 151.956 69.236 L 152.692 69.359 C 153.65 69.516 161.852 69.516 162.81 69.359 L 163.548 69.236 L 163.497 48.486 L 163.448 27.736 L 157.836 27.684 C 154.749 27.655 152.163 27.692 152.089 27.766 M 190.854 32.55 L 190.854 37.464 L 206.915 37.413 L 222.976 37.363 L 223.146 34.956 C 223.239 33.61 223.239 31.49 223.146 30.143 L 222.976 27.736 L 206.915 27.686 L 190.854 27.635 L 190.854 32.55 M 276.832 28.253 C 276.764 28.59 276.709 30.524 276.709 32.55 C 276.709 34.575 276.764 36.51 276.832 36.848 L 276.954 37.461 L 283.61 37.461 L 290.264 37.461 L 290.264 53.348 L 290.264 69.236 L 291 69.359 C 291.959 69.516 300.161 69.516 301.119 69.359 L 301.856 69.236 L 301.856 53.348 L 301.856 37.461 L 308.517 37.461 L 315.177 37.461 L 315.323 35.349 C 315.465 33.259 315.318 28.162 315.106 27.816 C 315.041 27.711 307.186 27.638 295.975 27.638 L 276.954 27.638 L 276.832 28.253 M 370.224 32.745 L 370.224 37.855 L 381.149 37.855 C 390.384 37.855 392.254 37.901 393.25 38.159 C 395.179 38.659 395.894 39.886 395.716 42.392 C 395.596 44.111 395.161 44.808 393.801 45.476 L 392.719 46.008 L 381.472 46.065 L 370.224 46.124 L 370.224 57.681 L 370.224 69.239 L 370.839 69.362 C 371.632 69.521 379.919 69.518 380.882 69.359 L 381.619 69.236 L 381.619 62.583 L 381.619 55.928 L 385.122 55.928 L 388.625 55.928 L 389.248 56.795 C 389.59 57.273 389.937 57.826 390.019 58.023 C 390.099 58.222 390.688 59.307 391.326 60.434 C 392.548 62.592 395.569 68.722 395.569 69.046 C 395.569 69.15 395.977 69.291 396.48 69.36 C 397.692 69.527 406.468 69.5 407.402 69.326 L 408.136 69.19 L 405.633 64.181 C 403.326 59.56 402.532 58.103 401.032 55.747 C 400.728 55.27 400.482 54.827 400.486 54.765 C 400.489 54.703 401.207 54.307 402.08 53.884 C 404.799 52.568 406.327 50.618 406.872 47.766 C 407.212 45.989 407.268 38.28 406.957 36.283 C 406.617 34.112 405.903 32.831 404.167 31.269 C 402.89 30.121 401.425 29.376 399.183 28.732 C 395.639 27.714 394.459 27.64 381.864 27.64 L 370.224 27.638 L 370.224 32.745 M 416.13 27.769 C 416.059 27.84 416 29.993 416 32.55 L 416 37.201 L 426.757 37.33 C 432.672 37.401 439.908 37.461 442.839 37.461 L 448.164 37.461 L 448.29 36.253 C 448.36 35.59 448.416 33.923 448.416 32.55 C 448.416 31.176 448.36 29.509 448.29 28.846 L 448.164 27.638 L 432.212 27.638 C 423.441 27.638 416.203 27.698 416.13 27.769 M 416 56.517 L 416 69.288 L 432.083 69.288 L 448.164 69.288 L 448.288 68.257 C 448.357 67.69 448.413 65.988 448.413 64.475 C 448.413 62.963 448.357 61.261 448.288 60.693 L 448.164 59.661 L 437.879 59.661 L 427.592 59.661 L 427.592 56.419 L 427.592 53.178 L 437.586 53.178 L 447.581 53.178 L 447.72 50.82 C 447.797 49.523 447.797 47.401 447.72 46.105 L 447.581 43.749 L 431.791 43.749 L 416 43.749 L 416 56.517 M 190.854 56.688 L 190.854 69.234 L 191.767 69.36 C 192.934 69.519 200.739 69.518 201.709 69.359 L 202.445 69.236 L 202.445 61.601 L 202.445 53.964 L 212.07 53.964 L 221.692 53.964 L 221.837 53.424 C 222.03 52.709 222.021 44.698 221.827 44.385 C 221.708 44.194 218.331 44.14 206.265 44.14 L 190.854 44.14 L 190.854 56.688 M 137.331 82.383 C 136.788 85.021 135.828 89.526 135.331 91.784 C 135.068 92.971 134.773 94.431 134.675 95.024 C 134.577 95.619 134.225 97.238 133.894 98.622 C 133.562 100.006 133.291 101.182 133.291 101.233 C 133.291 101.284 134.148 101.3 135.196 101.269 L 137.099 101.213 L 137.46 99.346 C 138.292 95.052 138.636 93.302 138.828 92.396 L 139.033 91.438 L 139.92 93.281 C 140.408 94.294 141.369 96.282 142.059 97.701 C 142.748 99.118 143.312 100.337 143.312 100.409 C 143.312 100.48 143.573 100.996 143.892 101.555 L 144.473 102.573 L 147.212 97.011 C 149.024 93.333 149.987 91.572 150.054 91.812 C 150.11 92.012 150.257 92.839 150.38 93.649 C 150.709 95.822 151.146 98.273 151.493 99.886 L 151.798 101.311 L 153.561 101.311 L 155.324 101.311 L 155.187 100.182 C 155.113 99.56 154.88 98.257 154.669 97.284 C 154.46 96.311 154.198 94.986 154.088 94.337 C 153.976 93.689 153.594 91.655 153.236 89.818 C 152.879 87.981 152.347 85.241 152.054 83.727 C 151.76 82.215 151.488 80.942 151.447 80.899 C 151.407 80.856 149.853 83.929 147.996 87.726 C 146.138 91.524 144.558 94.631 144.485 94.631 C 144.411 94.631 142.957 91.692 141.252 88.1 C 139.547 84.506 138.04 81.404 137.9 81.205 C 137.679 80.886 137.61 81.028 137.331 82.383 M 166.365 86.429 C 164.944 89.266 162.76 93.603 161.512 96.067 C 160.264 98.532 159.189 100.72 159.123 100.929 C 159.008 101.29 159.11 101.311 160.938 101.311 L 162.873 101.311 L 163.941 99.146 L 165.009 96.981 L 168.914 97.035 L 172.82 97.088 L 173.762 99.15 L 174.704 101.213 L 176.705 101.269 L 178.705 101.325 L 178.565 100.876 C 178.489 100.63 177.916 99.411 177.294 98.168 C 176.674 96.926 175.349 94.229 174.352 92.175 C 171.597 86.499 169.023 81.272 168.984 81.273 C 168.965 81.273 167.787 83.594 166.365 86.429 M 182.799 91.293 L 182.799 101.311 L 184.663 101.311 L 186.526 101.311 L 186.58 95.414 L 186.63 89.517 L 193.507 96.098 C 197.289 99.719 200.449 102.682 200.531 102.683 C 200.611 102.685 200.678 98.222 200.678 92.766 L 200.678 82.843 L 198.811 82.843 L 196.945 82.843 L 196.945 88.747 L 196.945 94.649 L 190.038 87.96 C 186.238 84.282 183.056 81.272 182.965 81.272 C 182.875 81.272 182.799 85.781 182.799 91.293 M 338.004 91.261 L 338.004 101.311 L 339.773 101.311 L 341.541 101.311 L 341.541 95.417 C 341.541 92.175 341.589 89.524 341.648 89.524 C 341.707 89.524 344.804 92.463 348.53 96.057 C 352.255 99.649 355.39 102.618 355.494 102.653 C 355.617 102.696 355.685 99.147 355.685 92.781 L 355.685 82.843 L 353.823 82.843 L 351.96 82.843 L 351.906 88.643 L 351.856 94.44 L 345.354 88.199 C 341.779 84.767 338.661 81.791 338.428 81.585 L 338.004 81.211 L 338.004 91.261 M 303.232 82.589 C 298.168 83.47 294.601 87.432 294.601 92.175 C 294.601 95.649 296.652 98.837 299.954 100.505 C 301.601 101.334 303.076 101.575 305.785 101.45 C 307.67 101.366 308.247 101.26 309.272 100.812 L 310.499 100.278 L 310.499 98.241 C 310.499 97.121 310.459 96.204 310.407 96.204 C 310.285 96.204 308.523 97.41 308.182 97.726 C 308.038 97.861 307.858 97.978 307.785 97.986 C 307.711 97.995 307.429 98.06 307.161 98.133 C 306.891 98.205 305.83 98.263 304.803 98.263 C 303.202 98.263 302.779 98.189 301.839 97.75 C 300.48 97.115 299.517 96.171 298.84 94.812 C 298.396 93.925 298.319 93.517 298.324 92.088 C 298.33 90.006 298.674 89.166 300.141 87.677 C 301.027 86.776 301.457 86.509 302.695 86.094 C 303.515 85.819 304.478 85.595 304.837 85.597 C 306.158 85.601 308.337 86.398 309.745 87.387 C 310.032 87.589 310.318 87.755 310.383 87.755 C 310.447 87.755 310.499 86.874 310.499 85.795 L 310.499 83.835 L 309.9 83.525 C 308.336 82.717 305.106 82.264 303.232 82.589 M 368.818 82.92 C 367.755 83.202 366.717 83.637 366.046 84.083 C 364.773 84.927 363.235 86.439 362.81 87.264 C 362.644 87.588 362.447 87.898 362.374 87.951 C 362.301 88.006 362.08 88.448 361.884 88.934 C 361.611 89.612 361.528 90.355 361.528 92.119 C 361.528 94.336 361.554 94.469 362.209 95.851 C 363.101 97.726 364.862 99.496 366.773 100.438 C 367.537 100.815 368.382 101.174 368.653 101.239 C 369.64 101.477 373.3 101.542 374.385 101.34 C 377.268 100.806 380.244 98.486 381.527 95.772 C 382.241 94.262 382.242 94.259 382.176 91.941 C 382.116 89.83 382.055 89.508 381.504 88.344 C 380.262 85.726 377.618 83.604 374.655 82.846 C 372.662 82.337 370.94 82.359 368.818 82.92 M 407.945 82.752 C 405.924 83.211 404.452 84.043 402.845 85.637 C 399.832 88.628 399.175 92.306 400.974 96.1 C 402.161 98.601 405.069 100.809 407.871 101.337 C 408.54 101.462 410.001 101.511 411.341 101.45 C 413.466 101.357 413.776 101.291 415.074 100.671 C 415.853 100.3 416.984 99.592 417.586 99.098 C 418.66 98.22 420.261 96.051 420.411 95.27 C 420.452 95.054 420.582 94.535 420.699 94.116 C 420.814 93.698 420.909 92.781 420.909 92.077 C 420.909 91.376 420.814 90.459 420.699 90.039 C 420.582 89.62 420.457 89.126 420.421 88.939 C 420.323 88.432 419.162 86.567 418.473 85.815 C 417.576 84.831 415.409 83.485 413.998 83.031 C 412.353 82.503 409.608 82.377 407.945 82.752 M 434.074 82.579 C 430.975 83.186 428.353 84.941 426.782 87.46 C 425.835 88.977 425.724 89.478 425.734 92.175 C 425.743 94.529 425.786 94.822 426.279 95.892 C 427.015 97.495 429.433 99.87 431.144 100.673 C 433.745 101.892 437.704 101.889 440.165 100.668 C 443.319 99.103 445.076 96.333 445.076 92.926 L 445.076 91.488 L 440.754 91.488 L 436.432 91.488 L 436.432 93.06 L 436.432 94.631 L 438.79 94.631 C 440.086 94.631 441.147 94.68 441.147 94.741 C 441.147 95.064 440.423 96.199 439.807 96.843 C 438.401 98.311 435.628 98.793 433.395 97.957 C 430.994 97.06 429.125 94.49 429.137 92.101 C 429.148 89.585 430.88 87.165 433.386 86.163 C 435.936 85.146 438.689 85.727 440.81 87.735 L 441.849 88.715 L 443.021 87.717 C 443.665 87.166 444.192 86.576 444.192 86.404 C 444.192 86.232 443.454 85.499 442.551 84.775 C 440.534 83.159 439.012 82.61 436.334 82.533 C 435.361 82.506 434.344 82.527 434.074 82.579 M 481.513 82.837 C 480.029 83.322 478.856 84.312 478.197 85.634 C 476.989 88.058 478.106 90.512 481.083 91.98 C 481.85 92.358 482.604 92.667 482.756 92.667 C 483.371 92.667 485.771 94.115 486.049 94.652 C 486.992 96.477 485.69 98.364 483.485 98.364 C 481.859 98.364 481.047 97.707 480.725 96.128 C 480.555 95.287 480.458 95.134 480.136 95.195 C 479.925 95.235 479.133 95.373 478.376 95.502 C 476.747 95.779 476.666 95.946 477.311 97.67 C 477.81 99.005 478.771 100.14 480.031 100.88 C 480.86 101.367 481.099 101.409 483.092 101.41 C 484.28 101.41 485.498 101.348 485.799 101.274 C 487.162 100.937 489.087 99.161 489.567 97.799 C 489.958 96.686 489.958 94.438 489.565 93.496 C 488.967 92.063 487.405 90.877 484.86 89.928 C 482.034 88.873 481.421 88.426 481.421 87.419 C 481.421 86.678 482.385 85.847 483.427 85.69 C 484.503 85.53 485.253 85.861 486.077 86.861 L 486.642 87.548 L 488.058 86.816 C 488.86 86.402 489.473 85.957 489.473 85.791 C 489.475 85.211 487.93 83.687 486.783 83.137 C 485.255 82.401 483.202 82.285 481.513 82.837 M 205 84.416 L 205 85.987 L 207.26 85.987 L 209.519 85.987 L 209.519 93.649 L 209.519 101.311 L 211.286 101.311 L 213.055 101.311 L 213.055 93.649 L 213.055 85.987 L 215.313 85.987 L 217.574 85.987 L 217.574 84.416 L 217.574 82.843 L 211.286 82.843 L 205 82.843 L 205 84.416 M 222.092 92.077 L 222.092 101.311 L 227.692 101.311 L 233.29 101.311 L 233.29 99.634 L 233.29 97.956 L 229.509 97.981 L 225.727 98.003 L 225.727 95.385 L 225.727 92.766 L 229.41 92.711 L 233.094 92.658 L 233.094 91.091 L 233.094 89.524 L 229.361 89.524 L 225.628 89.524 L 225.628 87.755 L 225.628 85.987 L 229.46 85.987 L 233.29 85.987 L 233.29 84.416 L 233.29 82.843 L 227.692 82.843 L 222.092 82.843 L 222.092 92.077 M 239.183 92.077 L 239.183 101.311 L 243.809 101.311 L 248.434 101.311 L 248.376 99.69 L 248.32 98.069 L 245.52 98.069 L 242.72 98.069 L 242.72 90.457 L 242.72 82.843 L 240.953 82.843 L 239.183 82.843 L 239.183 92.077 M 261.581 84.416 L 261.581 85.987 L 263.741 85.987 L 265.903 85.987 L 265.903 93.649 L 265.903 101.311 L 267.77 101.311 L 269.636 101.311 L 269.636 93.649 L 269.636 85.987 L 271.798 85.987 L 273.958 85.987 L 273.958 84.416 L 273.958 82.843 L 267.77 82.843 L 261.581 82.843 L 261.581 84.416 M 278.476 92.077 L 278.476 101.311 L 284.076 101.311 L 289.675 101.311 L 289.675 99.633 L 289.675 97.954 L 285.951 98.012 L 282.228 98.069 L 282.171 95.45 C 282.138 94.009 282.148 92.793 282.193 92.748 C 282.239 92.704 283.944 92.667 285.984 92.667 L 289.692 92.667 L 289.635 91.144 L 289.577 89.622 L 285.893 89.569 L 282.209 89.515 L 282.209 87.751 L 282.209 85.987 L 285.942 85.987 L 289.675 85.987 L 289.675 84.416 L 289.675 82.843 L 284.076 82.843 L 278.476 82.843 L 278.476 92.077 M 316.59 92.077 L 316.59 101.311 L 318.456 101.311 L 320.323 101.311 L 320.323 97.088 L 320.323 92.864 L 324.154 92.864 L 327.985 92.864 L 327.985 97.088 L 327.985 101.311 L 329.753 101.311 L 331.522 101.311 L 331.522 92.077 L 331.522 82.843 L 329.753 82.843 L 327.985 82.843 L 327.985 86.282 L 327.985 89.72 L 324.154 89.72 L 320.323 89.72 L 320.323 86.282 L 320.323 82.843 L 318.456 82.843 L 316.59 82.843 L 316.59 92.077 M 387.71 92.077 L 387.71 101.311 L 392.425 101.311 L 397.14 101.311 L 397.14 99.641 L 397.14 97.972 L 394.29 97.972 L 391.443 97.972 L 391.443 90.408 L 391.443 82.843 L 389.575 82.843 L 387.71 82.843 L 387.71 92.077 M 450.578 92.077 L 450.578 101.311 L 452.444 101.311 L 454.309 101.311 L 454.309 92.077 L 454.309 82.843 L 452.444 82.843 L 450.578 82.843 L 450.578 92.077 M 460.793 92.077 L 460.793 101.311 L 466.499 101.311 L 472.204 101.311 L 472.146 99.69 L 472.09 98.069 L 468.21 98.017 L 464.329 97.963 L 464.329 95.315 L 464.329 92.667 L 468.161 92.667 L 471.992 92.667 L 471.992 91.095 L 471.992 89.524 L 468.161 89.524 L 464.329 89.524 L 464.329 87.755 L 464.329 85.987 L 468.259 85.987 L 472.188 85.987 L 472.188 84.416 L 472.188 82.843 L 466.49 82.843 L 460.793 82.843 L 460.793 92.077 M 370.224 85.861 C 367.757 86.598 366.506 87.61 365.571 89.622 C 364.77 91.345 364.813 92.892 365.708 94.708 C 366.49 96.291 367.647 97.319 369.389 97.975 C 370.849 98.527 373.371 98.457 374.778 97.828 C 376.008 97.278 377.413 95.948 378.046 94.738 C 378.486 93.898 378.566 93.494 378.569 92.077 C 378.573 90.612 378.502 90.267 377.992 89.258 C 377.673 88.625 377.041 87.787 376.588 87.392 C 374.971 85.982 372.116 85.295 370.224 85.861 M 408.534 85.953 C 406.982 86.471 406.382 86.828 405.452 87.79 C 404.492 88.781 403.867 90.125 403.701 91.554 C 403.557 92.796 404.152 94.744 405.008 95.824 C 405.691 96.684 407.446 97.929 408.25 98.122 C 408.989 98.3 411.998 98.303 412.724 98.127 C 414.21 97.766 416.093 96.119 416.801 94.56 C 417.074 93.96 417.17 93.285 417.173 91.98 C 417.175 90.38 417.12 90.116 416.599 89.207 C 415.006 86.428 411.431 84.985 408.534 85.953 M 167.714 91.398 L 166.495 93.846 L 168.852 93.846 C 170.149 93.846 171.208 93.809 171.208 93.764 C 171.208 93.65 169.115 89.132 169.015 89.033 C 168.971 88.988 168.385 90.052 167.714 91.398" stroke="none" fill-rule="evenodd" style="fill: rgb(255, 255, 255);"/>
</svg>