<svg enable-background="new 0 0 700 300" height="300" viewBox="0 0 700 300" width="700" xmlns="http://www.w3.org/2000/svg"><g fill="#fff"><path d="m46.8 154.9h37.4v-12.4s-30.7 0-34.8 0c-18.3 0-29.8 11.7-29.8 28.2s12.3 28.1 30.6 28h33.9v-12.3s-31.8 0-37.8 0c-5.5 0-12.6-6.9-12.6-15.7 0-8.9 7.2-15.8 13.1-15.8z"/><path d="m241 128.5h13.9v70.3h-13.9z"/><path d="m261.4 155.8c2.2-.7 8.8-4.4 18.7-2.4s16.7 13.3 3.7 42.2c-2.1 3.9 3.8 4.5 3.8 4.5l9.5-1.1s15.9-33.5 3.4-47.7-38.1-8.5-39.8-7.4c-3.4 2.1-1.6 12.6.7 11.9"/><path d="m504 142.5h-19.4v-10.5h-14.1v10.5h-12.2v13h12.2v43.3h14.1v-43.3h19.4z"/><path d="m558.4 142.5h-19.4v-10.5h-14v10.5h-12.2v13h12.2v43.3h14v-43.3h19.4z"/><path d="m165.4 160.7c0-8.2-7.1-18.1-20.9-18.1h-45.2v12.4h45.1c4.4 0 6.9 2.4 6.9 5.6v25.9s-37 0-40 0c-4.2 0-6.9-2.6-6.9-5.7 0-3.2 2.5-5.5 6.9-5.5h35.1v-11.9s-25.7 0-35.1 0c-13.8 0-20.9 9.9-20.9 18.1 0 10.4 9.6 17.5 21.1 17.4h53.9v-38z"/><path d="m385.4 160.7c0-8.2-7.1-18.1-20.9-18.1h-45.2v12.4h45.1c4.4 0 6.9 2.4 6.9 5.6v25.9s-37 0-40 0c-4.2 0-6.9-2.6-6.9-5.7 0-3.2 2.5-5.5 6.9-5.5h35.1v-11.9s-25.7 0-35.1 0c-13.8 0-20.9 9.9-20.9 18.1 0 10.4 9.6 17.5 21.1 17.4h53.9v-38z"/><path d="m174.2 142.5h13.9v56.3h-13.9z"/><path d="m194.5 156c2.2-.7 5.6-4.4 15.6-2.4 6.3 1.2 10.2 5.8 9.8 16.8-.1 3 13.3 1.9 13.3-.4.1-9 1.2-15.4-6.5-22.5-9.5-8.7-31-4.6-32.7-3.5-3.6 2.2-1.7 12.7.5 12"/><path d="m394.2 142.5h13.9v56.3h-13.9z"/><path d="m414.5 156c2.2-.7 5.6-4.4 15.6-2.4 6.3 1.2 10.2 5.8 9.8 16.8-.1 3 13.3 1.9 13.3-.4.1-9 1.2-15.4-6.5-22.5-9.5-8.7-31-4.6-32.7-3.5-3.6 2.2-1.7 12.7.5 12"/></g><path d="m641.7 144.8c-9.1-2.8-14.1-12.8-11.2-22.4 1-3.3 2.8-6.2 5.2-8.4 0 0 6.1-6 15.6-2.7-.1 0-.2 0-.3 0-5.8 0-10.5 5.2-10.5 11.6s4.7 11.6 10.5 11.6c4.6 0 8.5-3.2 9.9-7.7s.3-1 .5-2.6c0-.3.1-.6.1-.6.4-4-.3-11.2-8.2-16.9-10.7-7.5-25.7-6.8-25.7-6.8-26.7 0-48.4 22.1-48.4 49.4s21.7 49.4 48.4 49.4h35.9v-66.5c-3 9.8-12.7 15.3-21.8 12.6" fill="#fcb813"/><path d="m674.8 187.8c3 0 5.5 2.4 5.5 5.5 0 3.2-2.5 5.6-5.5 5.6s-5.6-2.4-5.6-5.6c.1-3.1 2.6-5.5 5.6-5.5zm0 10.2c2.5 0 4.5-2 4.5-4.7 0-2.6-2-4.7-4.5-4.7-2.6 0-4.6 2-4.6 4.7.1 2.7 2 4.7 4.6 4.7zm-2.1-7.9h2.5c1.5 0 2.3.6 2.3 1.8s-.7 1.7-1.7 1.8l1.8 2.9h-1.1l-1.8-2.8h-1.1v2.8h-1v-6.5zm1 2.9h1c.9 0 1.7 0 1.7-1.1 0-.9-.7-1-1.4-1h-1.3z" fill="#fff"/></svg>