<?xml version="1.0" encoding="utf-8"?>
<svg viewBox="40.447 95.397 404.815 114.595" xmlns="http://www.w3.org/2000/svg">
  <defs>
    <clipPath id="a" transform="translate(.02 -.05)">
      <path fill="none" d="M372.8 120.4H1380V271H372.8z"/>
    </clipPath>
    <clipPath id="b" transform="translate(.02 -.05)">
      <path fill="none" d="M0 0h350.6v390.7H0z"/>
    </clipPath>
  </defs>
  <g clip-path="url(#a)" transform="matrix(0.293344, 0, 0, 0.293344, 40.440697, 95.396812)" style="">
    <path d="M1370.02 163.35a9.85 9.85 0 1 0 10 9.8 9.86 9.86 0 0 0-10-9.8m0 18.1a8.25 8.25 0 1 1 8.1-8.3 8 8 0 0 1-8.1 8.3m4.6-10.7c0-2.2-1.3-3.2-4-3.2h-4.4v11.4h1.8v-5h2l3 4.9h1.9l-3.2-5a3 3 0 0 0 2.9-3.1m-6.7 1.7v-3.5h2.4c2 0 2.5.6 2.5 1.7 0 1.3-.7 1.9-2.8 1.9h-2.1zm-728.9 75c0 10.3-11.5 23.1-24.7 23.1-12.1 0-23.3-5.9-23.3-27.3l.2-61.3h-30l-.4 56.7c0 8.3 2.8 12.3 8.5 12.3 3.2 0 5.1-1.4 6.9-2.8 2.8-2.2 3.6-3.6 6.3-3.6a2.73 2.73 0 0 1 2.6 3c0 10.3-11.3 23.1-25.5 23.1-11.3 0-22.5-5.9-22.5-27.3l.2-61.3h-6.1c-6.3 0-7.9-1.2-7.9-5.1 0-3.6 1-5.1 5.1-6.9 5.7-2.6 8.7-4.9 11.9-9.9 7.3-10.9 7.1-21.7 16.4-21.7 3 0 4.2 1.8 4.2 4.3l-.2 24.3h17.2c7.5 0 11.9-.4 16.2-6.9 7.3-10.9 7.1-21.7 16.4-21.7 2.6 0 4.2 1.6 4.2 4.3l-.2 24.3h21.1c3.2 0 5.1.8 5.1 5.1 0 3.8-.8 9.9-7.1 9.9h-18.8l-.2 56.7c0 8.3 2.8 12.3 8.3 12.3 3.2 0 5.1-1.4 7.1-3 2.8-2.4 3.6-3.4 6.1-3.4a2.56 2.56 0 0 1 2.9 2.8m55.2 16c0 2.6-1 4.5-4 4.5-4.9 0-12.7-1-19.8-1h-8.1c-6.9 0-14.6 1-19.2 1-2.8 0-3.6-1.8-3.6-4.5 0-4.9 3.8-6.3 7.5-7.7 3.8-1.2 8.1-3.8 8.1-9.7l-.4-91.7c-.2-5.1-3-10.1-13.8-11.5-3-.4-4.7-1.8-4.7-4.2s.8-4.5 4.5-5.3c26.7-5.5 27.1-10.3 33.2-10.3 2.6 0 4.2 2.2 4.2 5.9 0 2-.2 5.5-.2 15.4l-.4 101.8c0 5.5 3.4 7.9 8.1 9.3 3.8 1.3 8.6 2.7 8.6 8m-203.8-122.5c0-7.7 6.7-14 14.8-14 8.3 0 14.8 6.3 14.8 14s-6.5 13.8-14.8 13.8c-8.1 0-14.8-6.1-14.8-13.8m249.6 61.8c1-1 1-2.8 1-5.1 0-10.1-5.1-19.8-13-19.8-8.3 0-15 10.3-15 28.9v3c0 32.6 14 41.5 23.5 41.5 7.5 0 11.1-2 14.2-5.1 2.4-2.2 3.8-5.1 7.1-5.1 2.8 0 3.8 2 3.8 4.5 0 11.1-13.4 25.3-31.4 25.3-26.9 0-41.9-23.9-41.9-52.8 0-32.4 20-54.6 41.5-54.6 22.1 0 32.8 17.4 32.8 40.7 0 4.7-.2 8.1-1.8 10.3-2.6 3.4-6.3 3.4-14.8 3.4h-21c-3.6 0-6.1-1.6-6.1-5.1 0-5.3 3.4-6.7 10.5-7.5 7.3-.9 9.4-1.3 10.6-2.5m-260.1 22.4c0 5.5-5.5 15.4-8.7 26.7-1.8 6.5-1.2 11.3-2 15-.4 2.4-2 3.4-5.1 3.4-5.3 0-13.4-4-40.7-4h-6.9c-12.5 0-24.9 1.6-37 1.6-6.5 0-6.7-3.6-6.7-6.1 0-9.9 19-4.5 19-24.3v-87.4c0-15.8-18-11.9-18-22.1a4.35 4.35 0 0 1 4.2-4.5c3.4 0 12.8 1.2 25.7 1.2h3c13 0 24.1-1.2 25.7-1.2a4.29 4.29 0 0 1 4.2 4.5c0 10.1-18.6 6.3-18.6 21.9l-.4 88.2c-.2 10.5 5.3 12.6 15.8 12.6h7.5c7.3 0 13.6-4.5 17.6-11.3l8.1-14c3.2-5.3 5.7-6.3 7.9-6.3 4.2.1 5.4 3.3 5.4 6.1m53.6 37.9c0 2.6-.8 4.9-3.6 4.9-4.9 0-13-1-20.2-1h-8.1c-7.3 0-15.4 1-20.2 1-3 0-3.8-2.2-3.8-4.9 0-4.5 3.8-5.7 7.7-6.9 4.2-1.4 9.1-4 9.1-10.1l-.4-51c-.2-5.1-3-10.3-14-11.5-3-.4-4.5-2-4.5-4.2 0-2.4.8-4.5 4.5-5.3 26.5-5.7 24.7-10.5 33-10.5 2.8 0 4.7 2.2 4.7 6.1 0 2-.4 5.5-.4 15.4l-.4 61.1c0 5.7 3.6 8.3 8.1 9.7 3.7 1.3 8.5 2.3 8.5 7.2m588.8-24.5c0 15.8-11.3 31.8-33 31.8a43.82 43.82 0 0 1-21.1-5.7c-3.6 3-6.3 4.2-7.5 4.2-4 0-5.1-4-5.1-8.5 0-6.1 0-10.3-.8-13.8-.8-4-2-6.9-2-10.7 0-4.7 2.4-7.3 6.1-7.3 3 0 4.5 1.4 6.5 6.3 6.3 16 13.4 21 23.5 21 7.7 0 11.7-4.9 11.7-9.5 0-6.9-5.3-11.3-12.3-15l-6.9-3.6c-23.1-11.7-27.3-19.8-27.3-33.2 0-16.4 12.9-31.2 31.8-31.2a29.54 29.54 0 0 1 17.6 5.3c2.4-2.4 3.8-4 6.1-4a4.65 4.65 0 0 1 4.9 4.7v6.5c0 6.7 2.2 13.4 2.2 19.4 0 4.2-1.6 7.1-5.3 7.1-4.5 0-6.5-3.4-10.1-11.1-3.6-6.9-7.7-14.4-15.8-14.4-5.9 0-10.9 3.6-10.9 10.5 0 4.9 1.8 8.7 9.9 13l10.1 5.3c14.7 8 27.7 15.3 27.7 32.9m165.3-64.4c0 8.7-6.1 14.2-12.1 14.2-4 0-6.9-2.2-10.5-2.2-10.3 0-14.4 16.4-14.8 31.2l-.2 28.7c0 5.3 3.4 7.7 8.1 9.3 4 1.4 9.1 2.2 9.1 7.3 0 2.8-.8 5.3-4 5.3-4.9 0-13-1-20.4-1h-8.1c-8.3 0-26.5.4-37.4.4-5.5 0-10.9.2-15 .6-6.5 0-6.1-4.3-6.1-20.2l-.2-27.5a27.78 27.78 0 0 0-6.7.8c-10.1 2-17.8 10.5-17.8 19.4 0 9.3 5.3 14 15.4 13.2 3.4-.4 4.7.2 4.7 1.8 0 8.7-11.9 15-20.9 15-12.7 0-23.9-10.1-23.9-25.1 0-19.4 15.4-34.2 43.1-37.9a42.73 42.73 0 0 1 6.1-.4v-3.2c0-19.4-3.6-25.9-12.6-25.9-7.9 0-11.9 4.2-15.4 12.8-2.2 5.7-4.3 11.9-9.1 11.9-3.9 0-5.7-2.8-5.7-8.3 0-6.5 2.4-13.2 2.4-19.6v-5.5a4.56 4.56 0 0 1 4.7-4.9c1.8 0 5.1 1.4 8.5 3.6 5.5-3.2 11.3-5.9 19.6-5.9 12.6 0 21.3 5.3 25.9 14.2 4 7.7 5.3 18 5.3 30v18.2c-.4 28.9 4 32.6 13.6 32.6 7.5 0 14.2-5.5 14.2-12.5l-.4-49.8c0-4.7-2.8-9.3-14-10.5a5 5 0 0 1-4.5-5.3c0-2.4 1-4.7 4.2-5.3 24.5-5.1 22.7-10.5 30.2-10.5 3.4 0 5.7 2.2 5.7 5.9 0 2.2-.4 5.7-.4 15.6v4.2c6.1-19.8 16-28.1 26.7-28.1 7.7-.1 12.7 6 12.7 13.4m-469.3 17c0 41.9 13.6 62.1 31 61.7 8.5 0 15.8-8.7 21.1-20 5.5-11.7 7.5-13.4 11.7-13.6 3.6 0 5.5 2.4 5.5 5.7 0 4.2-1.6 8.9-3.4 14.4-3.6 11.3-4.2 17.2-6.9 24.9-1.2 3.4-3.8 4.2-6.3 4.5-2.2 0-5.1-1-7.5-4.9-5.5 4-10.1 6.5-20.6 6.7-26.5.4-52.8-26.5-52.8-73.7 0-40.9 26.1-75.9 60.1-76.5 11.1-.2 18.8 2.8 28.1 8.5 4-3.4 5.9-5.5 9.7-5.5a5 5 0 0 1 5.3 5.1c0 5.3-2.8 7.9-5.7 15.2-3 7.7-3.2 13.2-4 17-1.2 4.9-3 10.5-7.9 10.5-4 0-6.3-2.8-6.3-6.7l-.2-9.9c-.2-11.1-6.7-18.8-19.2-18.6-17.7.4-31.7 22.5-31.7 55.2m537.8 47.4c0 15.8-11.9 31.8-35 31.8a46.16 46.16 0 0 1-21.7-5.7c-3.6 3-6.3 4.2-7.5 4.2-4 0-5.1-4-5.1-8.5 0-6.1 0-10.3-.8-13.8-.8-4-2-6.9-2-10.7 0-4.7 2.4-7.3 6.1-7.3 3 0 4.5 1.4 6.5 6.3 6.3 16 13.8 21 24.1 21 9.1 0 13.8-4.9 13.8-9.5 0-6.7-5.5-10.7-12.3-14.6l-7.3-4.1c-22.1-12.3-26.5-19.8-26.5-33.2a31 31 0 0 1 31.4-31.2 29.54 29.54 0 0 1 17.6 5.3c2.4-2.4 3.8-4 6.1-4a4.65 4.65 0 0 1 4.9 4.7v6.5c0 6.7 2.2 13.4 2.2 19.4 0 4.2-1.6 7.1-5.3 7.1-4.5 0-6.5-3.4-10.1-11.1-3.6-6.9-7.7-14.4-15.8-14.4-5.7 0-10.5 3.6-10.5 10.5 0 4.9 1.8 8.7 9.5 13l10.1 5.7c14.4 8.3 27.6 15.2 27.6 32.6m-330.6-35.8c1-1 1-2.8 1-5.1 0-10.1-5.1-19.8-13-19.8-8.3 0-15 10.3-15 28.9v3c0 32.6 14 41.5 23.5 41.5 7.5 0 11.1-2 14.2-5.1 2.4-2.2 3.8-5.1 7.1-5.1 2.8 0 3.8 2 3.8 4.5 0 11.1-13.4 25.3-31.4 25.3-26.9 0-41.9-23.9-41.9-52.8 0-32.4 20-54.6 41.5-54.6 22.1 0 32.8 17.4 32.8 40.7 0 4.7-.2 8.1-1.8 10.3-2.6 3.4-6.3 3.4-14.8 3.4h-21c-3.6 0-6.1-1.6-6.1-5.1 0-5.3 3.4-6.7 10.5-7.5 7.4-.9 9.4-1.3 10.6-2.5m-46.5 59.1c0 2.8-1.2 6.1-4.3 6.1-1.4 0-7.7-.6-12.1-.6-5.7 0-11.1.4-15 .6-6.5 0-6.1-4.3-6.1-20.2l-.2-27.5a28.3 28.3 0 0 0-6.9.8c-10.1 2-17.6 10.7-17.6 19.4 0 9.3 5.1 14.2 15.4 13.2 3.4-.4 4.7.2 4.7 1.8 0 8.7-11.9 15-20.8 15-13 0-23.9-10.1-23.9-25.1 0-19.2 15.2-34 43.1-37.9a42.73 42.73 0 0 1 6.1-.4v-3.2c0-19.4-3.8-25.9-12.5-25.9-8.1 0-11.9 4.5-15.4 12.8-2.2 5.7-4.2 11.9-9.1 11.9-3.8 0-5.7-2.8-5.7-8.3 0-6.5 2.2-13.2 2.2-19.6v-5.5a4.66 4.66 0 0 1 4.7-4.9c2 0 5.1 1.4 8.5 3.6 5.5-3 11.5-5.9 19.8-5.9 12.7 0 21.2 5.5 26.1 14.4 4 7.7 5.1 17.8 5.1 29.8v18c0 26.7 3 31 10.3 32.8 3 .7 3.6 2.6 3.6 4.8" fill="#ff671b"/>
  </g>
  <g clip-path="url(#b)" transform="matrix(0.293344, 0, 0, 0.293344, 40.440697, 95.396812)" style="">
    <g clip-path="url(#b)">
      <path d="M143.02 314.55l.6-68.7c11.3 1.2 19.8-1 33-7.2 18.1-8.6 42.4-29.3 62.5-57.1l7.1-9.7c-4.8 30.1-32.5 65.5-45.5 84.9a11.75 11.75 0 0 0-2 4.6c-.1.8-.2 2.2.7 2.6a2.39 2.39 0 0 0 2-.4 11.5 11.5 0 0 0 2.3-2.1c.9-1 1.7-1.9 2.5-2.9 2.7-3.3 5.3-6.3 7.9-9.7 18.6-26.8 31.5-46.5 36.8-70.2.2.8.3 1.6.5 2.4 4.9 26.7-2.2 37.5-10.4 53.2-1 2-2.1 4.3-1.6 6.5.7 2.9 2.3 2.4 4.9-.3a74.41 74.41 0 0 0 13.6-27.8l16.3 93.4zm90.6-22.4l-.3-4.8-8.8.6-.4-5.6 8.8-.6-.3-4.8-13.6.9 1 15.2zm-18.3 5.7l-1.3-19.6-4.8.3 1.6 24.4 23.3-1.5-.3-4.8zm28.8-21.6l-4.8.3 1.6 24.4 23.3-1.5-.3-4.8-18.5 1.2zm5.9 14.8l13.6-.9-.3-4.8-8.8.6-.4-5.6 8.8-.6-.3-4.8-13.6 1zm-46.5 3.1l-.3-4.8-8.8.6-.4-5.6 8.8-.6-.3-4.8-13.6.9 1 15.2zm-48.3 7.6l-1.3-19.6-4.8.3 1.6 24.4 23.3-1.5-.3-4.8zm18.2-5.6l-.3-4.8-8.8.6-.4-5.6 8.8-.6-.3-4.8-13.6.9 1 15.2zm11.9 3.6l-1.3-19.6-4.8.3 1.6 24.4 23.3-1.5-.3-4.8zm100.6-165.3a4.34 4.34 0 0 0-1.3-3 8.27 8.27 0 0 0-4.9-2.3c-2.6-.3-6.7 1-7 4a4.73 4.73 0 0 0 .1 1.7c-13.5-.1-28.8-1.7-36.8-7.6a112.75 112.75 0 0 0 18.3-4.8 4.83 4.83 0 0 0 .8 3.1c1.6 2.5 5.1 3.4 7.9 2.9 2.2-.4 4.7-1.9 5.3-4.2a4.21 4.21 0 0 0-.9-3.7 7.27 7.27 0 0 0-2.6-2c12-4.9 22.4-10.2 26.5-11.7 2.1 5.4 5.5 21.3 6.4 25.4a.81.81 0 0 1-.8 1.1c-2 .3-6 .8-11 1.1m1.8-19.2a6.63 6.63 0 0 0-3.9-.9 8.15 8.15 0 0 0-5.1 2.2c-2.2 2-1.4 5 .9 6.6 1.9 1.4 4.5 1 6.5 0s4.3-3.3 3.5-5.7a5.1 5.1 0 0 0-1.9-2.2m-173.7-66.6c-3.8-1.7-11.6 1.9-8.9 6.7a4.61 4.61 0 0 0 3.5 2.2c2.5.4 5.8-.5 7.3-2.7a4.36 4.36 0 0 0-.2-5 5.91 5.91 0 0 0-1.7-1.2m-29.4 7.4c-1.8 1.1-5 3.5-3.1 5.9s6.6.8 8.8-.3c1.9-.8 5-3.3 4-5.7a2.37 2.37 0 0 0-1.1-1.3c-2.3-1.3-6.8.3-8.6 1.4m11.7-29.7a9.18 9.18 0 0 0-6.8 3.4c-.9 1.2-1.2 2.8-.6 3.6a4.32 4.32 0 0 0 4.1 1.4 9.74 9.74 0 0 0 6.6-4.4c2.1-3-1.2-4.2-3.3-4m-37.3 44.2c-.9 2.3-1.1 5.4 1.9 5.9 4.3.7 9.3-4.1 10.3-7.9a3.59 3.59 0 0 0-2.3-4.5c-3.9-1.3-8.6 3.2-9.9 6.5m-11.5 6.8c-2-.8-5.2 1.6-6.5 2.8-1.9 1.9-3.6 4.5-3.4 7.3.1 2 1.1 3.9 3.2 4.2 4.8.7 10-7.1 9.5-11.2a3.92 3.92 0 0 0-2.8-3.1m-9.8-14.9a2.2 2.2 0 0 0-1.4-.1c-4 .6-9.2 6.9-6.9 11a2.89 2.89 0 0 0 2 1.4 2.54 2.54 0 0 0 1.7-.4 11.13 11.13 0 0 0 5.3-5.4 8.43 8.43 0 0 0 .9-4 2.58 2.58 0 0 0-1.6-2.5m-12 22.8a4.46 4.46 0 0 0-3.7.6c-3.2 2.1-7.3 10.8-1.6 12.5a5.19 5.19 0 0 0 4.5-1.1c2.5-2.1 4.4-6.7 3-9.9a.35.35 0 0 0-.1-.2 3.88 3.88 0 0 0-2.1-1.9m32-32.8a3 3 0 0 0-2.7-1c-3.8.4-9.1 4.8-8.3 8.9a2.65 2.65 0 0 0 1.2 2 3.85 3.85 0 0 0 2.6.2c2.5-.6 7.8-4.4 7.9-7.9a3.6 3.6 0 0 0-.7-2.2m-26.7 50.7c-6-.3-13.4 13.7-5.4 15.5a5.36 5.36 0 0 0 2.8-.2c3.8-1.2 8.1-8.4 6.9-12.5-.4-1.6-1.8-2.7-4.3-2.8m110-63.8c-10 19.5-32.1 24-49.2 31.1a103.42 103.42 0 0 0-37.1 26.4c-9.4 10.7-15.8 28.5-31.6 31-13 2.1-16.2-11.4-14.9-22.4 1.7-13.6 11.3-35.3 29.8-51.5a169.43 169.43 0 0 1 33-22.8c-1.1 6.7-2.1 12.7-2.4 15.1a15 15 0 0 0-3.8 4.7 2.32 2.32 0 0 0 .4 2.6 2.38 2.38 0 0 0 2.9.5 30.33 30.33 0 0 1 10.5-5.3c3.3-.9 6.9-1 8.1-1.3a2.76 2.76 0 0 0 2.3-2.4 2.86 2.86 0 0 0-1.9-3 8.3 8.3 0 0 0-2-.5l-2.2-16.2c18.9-8.3 32.6-10.1 32.6-10.1a60.87 60.87 0 0 0-15.3 24.9c14 5.5 30.2 1.5 40.8-.8" fill="#ff671b"/>
    </g>
    <g clip-path="url(#b)">
      <path d="M117.52 385.75c-.8 0-1.4-.6-.7-1.1a132.46 132.46 0 0 1 13-6.2 16.45 16.45 0 0 1 3.5 6.8l-15.8.5m131.2-7.4c.1-.2 11.8 5.4 13 6.2.7.5.1 1.1-.7 1.1l-15.8-.5a16.45 16.45 0 0 1 3.5-6.8m-95.8-308.6a95.41 95.41 0 0 0-5.6 10.2 33 33 0 0 0-.6-4.5c1.9-1.9 3.9-3.8 6.2-5.7m-12.2 12.5a17.14 17.14 0 0 0 3.5 5 76.84 76.84 0 0 0-2.7 8.1c-1.9-5.7-3.6-7.4-4.8-7.7a62.46 62.46 0 0 1 4-5.4m-7.4 11c.1 4.1 3.4 7.2 6.4 8.9-.8 3.4-1.7 6.4-2.5 9.3-1.3-6.4-2.8-8.2-4-8.4s-2.1.5-2.9 2.1c-2.9 5.6 1.2 10.6 4.7 13.1-1.2 3.3-2.3 6.2-3.4 8.7-1-7.1-2.5-9.1-3.8-9.4q-1.5-.3-2.7 1.5a68.35 68.35 0 0 1 8.2-25.8m-8.2 43.5c-.3-3-.4-6-.5-9a15.08 15.08 0 0 0 4 4.9 44.78 44.78 0 0 1-3.4 5.3c0-.4-.1-.8-.1-1.2m-52.9 19.7c-.7-.1-3.5-.4-4.7-1.4-.6-.4-.4-1.6 0-2.1 1.6-2.2 7-3.5 9.9-3.8a29.33 29.33 0 0 0-5.2 7.3m-2 4.5a12.91 12.91 0 0 0-2.1.5 6.5 6.5 0 0 0-2.9 1.6 2 2 0 0 0-.5.9 4.89 4.89 0 0 0-.1 1.3 4.15 4.15 0 0 0 .3 1.3 2 2 0 0 0 .6.7 6.66 6.66 0 0 0 3 .9 11.48 11.48 0 0 0 1.9.1c-1.6-1.9-1-4.9-.2-7.3m1.5 28.1a15 15 0 0 1-3.7 0 2 2 0 0 1-1.6-2.1 2.1 2.1 0 0 1 1.7-2.2 16.92 16.92 0 0 1 3.7-.2s6-.3 6 2-6.1 2.5-6.1 2.5m7.9-12.2a1.25 1.25 0 0 0-.6-1.1 5.26 5.26 0 0 0-2-1.1 19.73 19.73 0 0 0-2.6-.7 6.75 6.75 0 0 0-1.4-.2l-1.5-.2-2.9-.3c-1.4-.1-2.7 0-3.4 1.4s-.7 3.9 1.1 4.6a7.55 7.55 0 0 0 2.3.3c.9 0 1.9 0 2.9-.1l1.6-.1a7.57 7.57 0 0 0 1.5-.1 20.24 20.24 0 0 0 2.6-.4 3.8 3.8 0 0 0 1.8-.9c.5-.2.6-.5.6-1.1m62.6 207.8c-.4-2.3-1.5-7.2-3.8-9.6a56.6 56.6 0 0 1 6.5-2.8c3.5 3 5.8 9.5 6 11.9zm17.2-.9a26.53 26.53 0 0 0-6.2-14.9l7.3-2.9c6.7 6.6 7.4 17.5 7.4 17.5s-6.2.3-8.5.3m26.4-.4c-2.1.2-7.3.2-8.8.2-2.4-13.7-8.3-20.4-8.3-20.4-.1-.4 8.3-1.8 8.3-1.8s6.8 1.7 8.7 1.7v20.3zm0-27.7c-.7 1.8-9.2-1.1-9.2-3.3 0-1.4-3.1-29.8-3.2-31.4l12.2-.8c.3 10.3.4 25.3.2 35.5m47.8 16.6a56.6 56.6 0 0 1 6.5 2.8c-2.3 2.4-3.4 7.3-3.8 9.6l-8.7-.5c.2-2.4 2.4-9 6-11.9m-15.6-6.2l7.3 2.8a27 27 0 0 0-6.1 14.9c-2.3.1-8.5-.3-8.5-.3s.5-10.8 7.3-17.4m-8.3-3s-5.9 6.7-8.3 20.4c-1.5 0-6.9 0-9-.2l.2-20.4c1.9 0 8.7-1.7 8.7-1.7s8.5 1.5 8.4 1.9m-16.8-43.3c2.9-.3 9.2-.6 12.2-.7 0 0-3.3 31.8-3.3 33.3 0 2.2-8.5 5.1-9.2 3.3-.1-10.3 0-25.6.3-35.9m134.7-201a17.23 17.23 0 0 0-1.9 4.4c-.8 3.3-11.7 65.2-11.7 65.2s-10.1 3-50.5 13.3l-3.9-14.9c14-2.7 42.4-8 43-8.6s5-21.9 6.9-32.2c.3-1.9 1.2-5.7-.6-4.1-2.7 2.3-8.2 5.7-11.2 2.4a3.81 3.81 0 0 1-.4-4.2q2.1-.3 3.9-.6a4.94 4.94 0 0 0 4-5.9c4.2-4.4 15.4-17.9 12.2-29.4s-19-9.5-27.9-2.8c-3.1 2.3-3.5 1.6-3.8 1.2a2.54 2.54 0 0 1-.2-1.2c.2-4 9.8-17.6 22.9-10.9a8.06 8.06 0 0 0 3.3 1.1c4.7 0-6.7-22.6-3.4-24.1 2.5-1.1 5.6 4.6 8.2 11 2.2 5.6 3.1 11.8 4.6 11.7 2.1-.2 4.4-26.4 8.7-25.5 4 .9-.1 22.6-.5 25s-.5 3.3.3 3.5c1.6.6 3.8-3.1 6.3-7 3.6-5.8 6.6-9.9 7.9-8.8 4.3 3.1-8.7 28.2-16.2 41.4m-150.1-43.8a13 13 0 0 0 5.7 7.2 12.77 12.77 0 0 0 4.7 1.8 13.6 13.6 0 0 0 5.3-.2 11.09 11.09 0 0 0 4.8-2.8 11.33 11.33 0 0 0 2.8-4.5 13.49 13.49 0 0 0-.1-9.1l-.1-.4a2.17 2.17 0 0 0-2-1.4 2.09 2.09 0 0 0-2 2.1 17.07 17.07 0 0 1-1 6.5 6.26 6.26 0 0 1-4.1 3.7 8.18 8.18 0 0 1-5.9-.6 12.71 12.71 0 0 1-2.7-1.8 10.67 10.67 0 0 1-2.2-2.5 1.76 1.76 0 0 0-2.1-.7 2 2 0 0 0-1.3 2.4zm-63.5 166.3c-9.3-14-22.7-34.5-30.3-49.7v-.6l.1-5.4c.1.1.2.1.3.2a2.59 2.59 0 0 0 3.4-1c1.1-1.9-2.5-4.5-1.1-14.6.7-5 3.9-10.3 3.9-10.6a1.41 1.41 0 0 0-.1-.9 5.17 5.17 0 0 0-.6-1.3 2.34 2.34 0 0 0-.7-.7c-.9-.7-2.3-1-5.3 4.5-2.3 4.3-3 8.1-7 6.8-6.8-2.1 2.4-13.6 4.6-15.9a15.53 15.53 0 0 1 10.5-4.5c6.4 0 5.5 16.3 4.4 25.9-.2 1.6-1.3 9.9-1.3 9.9s5.3 11.7 10.2 19.8c1.5 2.5 5.3 8.1 8.2 12.1a24.68 24.68 0 0 0 3.4 4.2c.8-.2 4.8-4 6.4-5.3 2-1.7 19.5-18.7 23.4-22.2.2-.1.6-.1.8-.2s.7-.1 1.1-.2a20.08 20.08 0 0 1 2.5-.1c1.7 0 3.3.2 4.8.3h.4a3.3 3.3 0 0 0 3.3-1.9 3.47 3.47 0 0 0-1.6-4.6 16.43 16.43 0 0 0-6.7-1.6c-1.2 0-2.3-.1-3.5 0-.6.1-1.3.1-2 .2a12.88 12.88 0 0 0-2.1.6c-.3.1-.5.3-.8.4-8.7-11-13.8-27.5-14.5-30-.6-2.1-1.1-4.3-1.5-6.5h.7a20.93 20.93 0 0 0 2.4-.1c4.7-.5 7.9-2.7 9.4-6.1.7-1.6.6-2.7-.2-3.4-.5-.4-1.8-1.5-8.6 2.4a49.56 49.56 0 0 0 3.9-6.3 21.23 21.23 0 0 0 5.9-1.7c4.3-1.9 6.7-4.9 7.1-8.7.2-1.7-.3-2.8-1.3-3.2-.6-.2-2.3-.9-7.9 5.4.9-2.1 1.7-4.3 2.6-6.8a28.31 28.31 0 0 0 5.1-1.9c4.1-2.2 6.4-5.4 6.5-9.1.1-1.7-.4-2.8-1.5-3.1-.7-.2-2.4-.7-7.6 5.9.8-2.8 1.6-5.9 2.4-9.1.1-.4.2-.7.3-1.1a18.63 18.63 0 0 0 4.9-1.5c4.3-1.9 6.8-4.8 7.2-8.6.2-1.7-.2-2.8-1.2-3.2-.7-.3-2.5-1-8.9 6.3a81.14 81.14 0 0 1 3.3-8.8 21.75 21.75 0 0 0 6-.9c4.5-1.4 7.3-4 8.2-7.7.4-1.7.1-2.8-.8-3.3-.7-.4-2.5-1.4-10.6 6.3a83.44 83.44 0 0 1 6.6-10.7 13.47 13.47 0 0 0 2.2.1 22.56 22.56 0 0 0 3.5-.3c4.6-.8 7.8-3 9.1-6.6.6-1.6.5-2.8-.4-3.4-.5-.4-1.8-1.3-7.7 2.3a34.88 34.88 0 0 1 5.1-4.3c19.2-9.6 45.3-15.9 80.1-16 27.2-.1 35.8 4.8 35.8 8.5 0 12.2-35.5 34.8-58.7 41.1-4.9 1.5-8.8 2.4-6.3 7.7l4.4 10.2c-10.3 1.2-30.6-1.8-40.7-4a46.37 46.37 0 0 1 5.7-6.1l.1-.1a2.26 2.26 0 0 0 .6-2.2 2.19 2.19 0 0 0-2.7-1.5 20.57 20.57 0 0 0-4.8 2.1 19.93 19.93 0 0 0-4.2 3.3 27.13 27.13 0 0 0-6 8.7 35.34 35.34 0 0 0-2.7 10 43.49 43.49 0 0 0-.2 5.1 23.14 23.14 0 0 0 .7 5.1 2 2 0 0 0 1.7 1.6 2.09 2.09 0 0 0 2.5-1.7v-.2c.3-1.4.5-2.9.8-4.4s.7-2.9 1-4.3a35.33 35.33 0 0 1 1.5-4.6c23.2 37.4 53.2 36.2 60 37.1.1 0 1 .1 1.8.1l2.5 8.8c-63.8 88.6-101.9 76.8-101.9 76.8v-12.5c1.6-2 10.2-12.5 8.4-15.4-.6-.9-3.2-2.5-5.1-.2-7.6 10-21.8 25.6-32.6 31.1m91.3-174.1a13.91 13.91 0 0 0 15.6 9.5 11.77 11.77 0 0 0 5.2-2.4 11.36 11.36 0 0 0 3.2-4.5 5.64 5.64 0 0 0 .4-1.2l.3-1.2a19.42 19.42 0 0 0 .2-2.4 12.32 12.32 0 0 0-.9-4.4l-.2-.5a2 2 0 0 0-1.9-1.3 2 2 0 0 0-2 2 13.36 13.36 0 0 1-1.3 6.4 6.46 6.46 0 0 1-1.8 2.2 5.65 5.65 0 0 1-2.5 1.1 9.88 9.88 0 0 1-6-.9 12.71 12.71 0 0 1-2.7-1.8 11 11 0 0 1-2.3-2.5 1.93 1.93 0 0 0-3.4 1.7z" fill="#fff"/>
    </g>
    <g clip-path="url(#b)">
      <path d="M108.52 57.55c2.5.4 5.8-.5 7.3-2.7a4.36 4.36 0 0 0-.2-5 4.43 4.43 0 0 0-1.5-1.2c-3.8-1.7-11.6 1.9-8.9 6.7.5 1.3 1.9 1.9 3.3 2.2m125.1 234.6l-.3-4.8-8.8.6-.4-5.6 8.8-.6-.3-4.8-13.6.9 1 15.2zM27.92 87.35a.35.35 0 0 0-.1-.2 3.57 3.57 0 0 0-2.1-1.9 4.46 4.46 0 0 0-3.7.6c-3.2 2.1-7.3 10.8-1.6 12.5a5.19 5.19 0 0 0 4.5-1.1c2.5-2.2 4.4-6.8 3-9.9m187.4 210.5l-1.3-19.6-4.8.3 1.6 24.4 23.3-1.5-.3-4.8zm28.8-21.6l-4.8.3 1.6 24.4 23.3-1.5-.3-4.8-18.5 1.2zm103.6-204.8c-4-2.4-9.6 2.3-12.1 7.1 1.4-8.7 2.2-20.8-3.7-21.9-6.3-1.2-11 13.5-11.4 18.8 0 0-6.3-18.5-13.1-16.3s-5 12.3-.5 25.4c-15.9-8.3-27.6 11.1-26.4 20.3-5.7 3.5-20.6 10.9-54.4 20.3a4.5 4.5 0 0 1-.8.2 5.44 5.44 0 0 0 .4.8c.9 1.6 4.6 11.2 42.2 14.5a131.67 131.67 0 0 0 23.5-.1 8 8 0 0 0-.4 3.4 8.45 8.45 0 0 0 3.3 6 9.29 9.29 0 0 0 6.1 1.7 7.49 7.49 0 0 0 1.6-.4 1.69 1.69 0 0 0 .6-.3s-2.6 13.5-5.6 21.8c-1.8.4-3 1.3-39.3 5.6l-1.9-7.3c-2.4-7.4-6.8-25.8-6.8-25.8-43.5 1.8-61-33.6-61.1-33.7.5.1 8.5 2.1 24.5 3.8a116.5 116.5 0 0 0 19.6.9c2.6-.2 6.5-1 6-4.4-.3-2.2-4.5-11.6-5.7-14 6.6-2.4 13.5-4.3 19.8-7.4 11.1-5.5 43.4-24.4 43.3-41 0-7.5-6.9-10.4-12.4-11.9-18.7-5.3-63.1-5.8-97.2 6-.7.2-1.4.5-2 .7a9.74 9.74 0 0 0 .2-2.4c-.1-1.7-.7-2.7-1.7-2.9-.7-.2-2.8-.6-8.7 9.5-.8.3-1.5.7-2.3 1 1.1-3.3.8-4.9.1-5.5-.8-.8-2-.8-3.5 0-4 2.1-4.9 6-4.6 9.6l-2.1 1.2c-.3-1.5-.8-2.2-1.4-2.5q-1.5-.75-3.3 1.2a8.26 8.26 0 0 0-2.4 5.8c-28.6 19.6-37.5 46-37.4 67 0 2.1.1 4.1.2 6a2.19 2.19 0 0 0-1.5-.6c-1.1.1-1.8.9-2.2 2.6-.8 3.7.6 7.3 4 10.5a1 1 0 0 1-.4.1 3 3 0 0 0-3 2.8 3 3 0 0 0 2.8 3.2h.2a9.79 9.79 0 0 0 2.3-.4c4.1 20.3 12.6 33.4 17.3 39.7-.4.4-11.5 12.5-19.3 18.4-3-4-5.3-7.2-7.2-10.1a121.8 121.8 0 0 1-8.6-16.8c.1-.4.6-4.4 1-7.3a104.45 104.45 0 0 0 1.4-14.9c0-1.1.7-18.2-11.8-18.2a16.08 16.08 0 0 0-7.9 2.4v-2.6c.2-10.9 0-33.9 0-33.9a11.71 11.71 0 0 0 5.6-10 11 11 0 0 0-1.2-5.1c1-.1 2.8-.3 4.1-.5a2.91 2.91 0 0 0 2.3-2.1l1-4.1a2.35 2.35 0 0 0-1.2-2.6l-4.7-2.6v-.3c1.2-.4 2.6-.7 3.8-1.1 4.1-1.3 8.1-2.8 12-4.4a155.48 155.48 0 0 0 15.4-7.3 91.47 91.47 0 0 0 15.1-10.3 45.5 45.5 0 0 0 11-13.3 37.6 37.6 0 0 0 2-4.6c.6-1.8 1.9-7.8 1.4-8.3s-18.5 5.8-30.2 5.8a55 55 0 0 1-10.2-.9c4.6-12.1 21.9-28.3 21.6-29.2s-21.3-.3-49.5 10.9l-2-12.5c-1.2-6.3-3.5-6.1-4.8 0-.5 2.2-1.6 9.1-2.9 16.8-.3.1-.6.3-.9.4-1.9 1.1-25.6 14.9-37 24.9-11.7 10.4-16.4 16.3-24.4 29.8-6.8 11.4-12.9 29.7-9.2 43.1 4.8 17.3 16.6 22 30.5 14.2a55.82 55.82 0 0 0 15-12.4c6.8-8.2 12.6-16.4 19.2-23.7a12 12 0 0 0 5 9.3 3 3 0 0 1 .2 1l.2 36.8v1.4c-.2 0-.5.1-.7.1a14.37 14.37 0 0 0-5.1 1.6 8 8 0 0 0-2.5 2.1 6.86 6.86 0 0 0-1.4 3.4 5.44 5.44 0 0 0 0 1.8 6.69 6.69 0 0 0 .5 1.9 6.19 6.19 0 0 0 1.1 1.7 11.32 11.32 0 0 0-1.3 1 8.12 8.12 0 0 0-1.9 2.9 7.25 7.25 0 0 0-.4 3.2 7 7 0 0 0 .7 3.1 6.67 6.67 0 0 0 1.9 2.5l-.2.2a6.53 6.53 0 0 0-1.6 4.8c0 2.6.6 4.3 2.7 5.9a2.18 2.18 0 0 1 .5.4l-.6.9a8.27 8.27 0 0 0-.6 3.3 9 9 0 0 0 .6 3.4 6.7 6.7 0 0 0 3.3 2.9 8.74 8.74 0 0 0 3.4.6c.6 0 1.1-.1 1.7-.1v1.1l-.1 195.9h12.5v-185.2c7.8 13.2 20.2 34.3 24.4 40.2 1 1.5 2.5 3.5 4.4 3.9s4-.9 5.6-1.9a35.06 35.06 0 0 0 4-2.7c2.9-2.1 5.6-4.4 8.3-6.7.9-.8 1.8-1.5 2.8-2.3.2-.1 1.7-1.5 1.7-1.5l-.8 88.7 31.1-1.8 5.7 34.6-4.7 1.5s-2.9-2.7-5.1-2.1h-.1c-2.2.7-2.9 4.8-2.9 4.8l-7.7 2.9s-3.3-2.3-5.7-1.2-2.6 4.8-2.6 4.8l-6.8 3.3s-3.3-2.3-5.2-1.3-2.2 5.4-2.2 5.4c-19.3 8.1-28.5 16.5-17.5 16.5h157.7c11.1 0 1.8-8.4-17.5-16.6 0 0-.3-4.5-2.2-5.4s-5.2 1.3-5.2 1.3l-6.8-3.3s-.2-3.8-2.6-4.8-5.7 1.2-5.7 1.2l-7.7-2.9s-.7-4.1-2.9-4.8-5.2 2.1-5.2 2.1l-4.7-1.5 6.2-37.7 70.1-4.5-19-104.5 52.9-14.8a4.05 4.05 0 0 0 2.8-3c2.4-12.5 10.7-67.4 10.7-67.4 20.7-36.7 22-49.3 16.4-52.7m-230.2 314.3c-.8 0-1.4-.6-.7-1.1a132.46 132.46 0 0 1 13-6.2 16.45 16.45 0 0 1 3.5 6.8l-15.8.5m131.2-7.4c.1-.2 11.8 5.4 13 6.2.7.5.1 1.1-.7 1.1l-15.8-.5a16.45 16.45 0 0 1 3.5-6.8m37.2-243.9a4.34 4.34 0 0 0-1.3-3 8.27 8.27 0 0 0-4.9-2.3c-2.6-.3-6.7 1-7 4a4.73 4.73 0 0 0 .1 1.7c-13.5-.1-28.8-1.7-36.8-7.6a112.75 112.75 0 0 0 18.3-4.8 4.83 4.83 0 0 0 .8 3.1c1.6 2.5 5.1 3.4 7.9 2.9 2.2-.4 4.7-1.9 5.3-4.2a4.21 4.21 0 0 0-.9-3.7 7.27 7.27 0 0 0-2.6-2c12-4.9 22.4-10.2 26.5-11.7 2.1 5.4 5.5 21.3 6.4 25.4a.81.81 0 0 1-.8 1.1c-2 .3-6 .8-11 1.1m11.3-32.3c5.3-1.5 11.2-1.9 13.6 3.9 3.5 8.3-3.6 16.7-7 20.7-2.2-8.9-5.2-19.8-6.6-24.6m-144.3-32.4a95.41 95.41 0 0 0-5.6 10.2 33 33 0 0 0-.6-4.5c1.9-1.9 3.9-3.8 6.2-5.7m-12.2 12.5a17.14 17.14 0 0 0 3.5 5 76.84 76.84 0 0 0-2.7 8.1c-1.9-5.7-3.6-7.4-4.8-7.7a62.46 62.46 0 0 1 4-5.4m-7.4 11c.1 4.1 3.4 7.2 6.4 8.9-.8 3.4-1.7 6.4-2.5 9.3-1.3-6.4-2.8-8.2-4-8.4s-2.1.5-2.9 2.1c-2.9 5.6 1.2 10.6 4.7 13.1-1.2 3.3-2.3 6.2-3.4 8.7-1-7.1-2.5-9.1-3.8-9.4q-1.5-.3-2.7 1.5a68.35 68.35 0 0 1 8.2-25.8m-8.2 43.5c-.3-3-.4-6-.5-9a15.08 15.08 0 0 0 4 4.9 44.78 44.78 0 0 1-3.4 5.3c0-.4-.1-.8-.1-1.2m-70.4-39.9c-9.4 10.7-15.8 28.5-31.6 31-13 2.1-16.2-11.4-14.9-22.4 1.7-13.6 11.3-35.3 29.8-51.5a169.43 169.43 0 0 1 33-22.8c-1.1 6.7-2.1 12.7-2.4 15.1a15 15 0 0 0-3.8 4.7 2.32 2.32 0 0 0 .4 2.6 2.38 2.38 0 0 0 2.9.5 30.33 30.33 0 0 1 10.5-5.3c3.3-.9 6.9-1 8.1-1.3a2.76 2.76 0 0 0 2.3-2.4 2.86 2.86 0 0 0-1.9-3 8.3 8.3 0 0 0-2-.5l-2.2-16.2c18.9-8.3 32.6-10.1 32.6-10.1a60.87 60.87 0 0 0-15.3 24.9c13.9 5.4 30.1 1.5 40.7-.9-10 19.5-32.1 24-49.2 31.1a103.32 103.32 0 0 0-37 26.5m12.7 56.1c1.6-2.2 7-3.5 9.9-3.8a34.11 34.11 0 0 0-5.1 7.3c-.7-.1-3.5-.4-4.7-1.4a1.66 1.66 0 0 1-.1-2.1m-2.7 11a1.62 1.62 0 0 1 .5-.9 6.5 6.5 0 0 1 2.9-1.6 16 16 0 0 1 2.1-.5c-.9 2.4-1.4 5.4.2 7.4-.6 0-1.3-.1-1.9-.1a6.66 6.66 0 0 1-3-.9 1.34 1.34 0 0 1-.6-.7 2.27 2.27 0 0 1-.3-1.3c0-.6.1-1 .1-1.4m7 25.1a15 15 0 0 1-3.7 0 2 2 0 0 1-1.6-2.1 2.1 2.1 0 0 1 1.7-2.2 16.92 16.92 0 0 1 3.7-.2s6-.3 6 2-6.1 2.5-6.1 2.5m7.5-11a4.28 4.28 0 0 1-1.8.9 20.24 20.24 0 0 1-2.6.4c-.5 0-.9.1-1.5.1l-1.6.1c-1 .1-2 .1-2.9.1a7.12 7.12 0 0 1-2.3-.3c-1.8-.7-1.9-3.1-1.1-4.6.7-1.3 2-1.4 3.4-1.4a15 15 0 0 1 2.9.3l1.5.2c.5.1 1 .1 1.4.2a19.73 19.73 0 0 1 2.6.7 5.6 5.6 0 0 1 1.9 1.1 2 2 0 0 1 .6 1.1 1.88 1.88 0 0 1-.5 1.1m34.8 63.2c-9.3-14-22.7-34.5-30.3-49.7v-.6l.1-5.4c.1.1.2.1.3.2a2.59 2.59 0 0 0 3.4-1c1.1-1.9-2.5-4.5-1.1-14.6.7-5 3.9-10.3 3.9-10.6a1.41 1.41 0 0 0-.1-.9 5.17 5.17 0 0 0-.6-1.3 2.34 2.34 0 0 0-.7-.7c-.9-.7-2.4-1-5.3 4.5-2.3 4.3-3 8.1-7 6.8-6.8-2.1 2.4-13.6 4.6-15.9a15.53 15.53 0 0 1 10.5-4.5c6.4 0 5.5 16.3 4.4 25.9-.2 1.6-1.3 9.9-1.3 9.9s5.3 11.7 10.2 19.8c1.5 2.5 5.3 8.1 8.2 12.1a24.68 24.68 0 0 0 3.4 4.2c.8-.2 4.8-4 6.4-5.3 2-1.7 19.5-18.7 23.4-22.2.2-.1.6-.1.8-.2s.7-.1 1.1-.2a20.08 20.08 0 0 1 2.5-.1c1.7 0 3.3.2 4.8.3h.4a3.3 3.3 0 0 0 3.3-1.9 3.47 3.47 0 0 0-1.6-4.6 16.43 16.43 0 0 0-6.7-1.6c-1.2 0-2.3-.1-3.5 0-.6.1-1.3.1-2 .2a12.88 12.88 0 0 0-2.1.6c-.3.1-.5.3-.8.4-8.7-11-13.8-27.5-14.5-30-.6-2.1-1.1-4.3-1.5-6.5h.7a20.93 20.93 0 0 0 2.4-.1c4.7-.5 7.9-2.7 9.4-6.1.7-1.6.6-2.7-.2-3.4-.5-.4-1.8-1.5-8.6 2.4a49.56 49.56 0 0 0 3.9-6.3 21.23 21.23 0 0 0 5.9-1.7c4.3-1.9 6.7-4.9 7.1-8.7.2-1.7-.3-2.8-1.3-3.2-.6-.2-2.3-.9-7.9 5.4.9-2.1 1.7-4.3 2.6-6.8a28.31 28.31 0 0 0 5.1-1.9c4.1-2.2 6.4-5.4 6.5-9.1.1-1.7-.4-2.8-1.5-3.1-.7-.2-2.4-.7-7.6 5.9.8-2.8 1.6-5.9 2.4-9.1.1-.4.2-.7.3-1.1a18.63 18.63 0 0 0 4.9-1.5c4.3-1.9 6.8-4.8 7.2-8.6.2-1.7-.2-2.8-1.2-3.2-.7-.3-2.5-1-8.9 6.3a81.14 81.14 0 0 1 3.3-8.8 21.75 21.75 0 0 0 6-.9c4.5-1.4 7.3-4 8.2-7.7.4-1.7.1-2.8-.8-3.3-.7-.4-2.5-1.4-10.6 6.3a83.44 83.44 0 0 1 6.6-10.7 13.47 13.47 0 0 0 2.2.1 22.56 22.56 0 0 0 3.5-.3c4.6-.8 7.8-3 9.1-6.6.6-1.6.5-2.7-.4-3.4-.5-.4-1.8-1.3-7.7 2.3a34.88 34.88 0 0 1 5.1-4.3c19.2-9.6 45.3-15.9 80.1-16 27.2-.1 35.8 4.8 35.8 8.5 0 12.2-35.5 34.8-58.7 41.1-4.9 1.5-8.8 2.4-6.3 7.7l4.4 10.2c-10.4 1.2-30.6-1.8-40.7-4a46.37 46.37 0 0 1 5.7-6.1l.1-.1a2.26 2.26 0 0 0 .6-2.2 2.19 2.19 0 0 0-2.7-1.5 20.57 20.57 0 0 0-4.8 2.1 19.93 19.93 0 0 0-4.2 3.3 27.13 27.13 0 0 0-6 8.7 32.13 32.13 0 0 0-2.6 10 43.49 43.49 0 0 0-.2 5.1 23.14 23.14 0 0 0 .7 5.1 2 2 0 0 0 1.7 1.6 2.09 2.09 0 0 0 2.5-1.7v-.2c.3-1.4.5-2.9.8-4.4s.7-2.9 1-4.3a35.33 35.33 0 0 1 1.5-4.6c23.2 37.4 53.2 36.2 60 37.1.1 0 1 .1 1.8.1l2.5 8.8c-63.8 88.6-101.9 76.8-101.9 76.8v-12.5c1.6-2 10.2-12.5 8.4-15.4-.6-.9-3.2-2.5-5.1-.2-7.7 10-21.9 25.6-32.7 31.1m28.2 143.4c-.4-2.3-1.5-7.2-3.8-9.6a56.6 56.6 0 0 1 6.5-2.8c3.5 3 5.8 9.5 6 11.9zm17.2-.9a26.53 26.53 0 0 0-6.2-14.9l7.3-2.9c6.7 6.6 7.4 17.5 7.4 17.5s-6.2.3-8.5.3m26.4-.4c-2.1.2-7.3.2-8.8.2-2.4-13.7-8.3-20.4-8.3-20.4-.1-.4 8.3-1.8 8.3-1.8s6.8 1.7 8.7 1.7v20.3zm0-27.7c-.7 1.8-9.2-1.1-9.2-3.3 0-1.4-3.1-29.8-3.2-31.4l12.2-.8c.3 10.3.4 25.3.2 35.5m47.8 16.6a56.6 56.6 0 0 1 6.5 2.8c-2.3 2.4-3.4 7.3-3.8 9.6l-8.7-.5c.2-2.4 2.4-9 6-11.9m-15.6-6.2l7.3 2.8a27 27 0 0 0-6.1 14.9c-2.3.1-8.5-.3-8.5-.3s.5-10.8 7.3-17.4m-8.3-3s-5.9 6.7-8.3 20.4c-1.5 0-6.9 0-9-.2l.2-20.4c1.9 0 8.7-1.7 8.7-1.7s8.5 1.5 8.4 1.9m-16.8-43.3c2.9-.3 9.2-.6 12.2-.7 0 0-3.3 31.8-3.3 33.3 0 2.2-8.5 5.1-9.2 3.3-.1-10.3 0-25.6.3-35.9m81-13.8l-130.9 8.6.6-68.7c11.3 1.2 19.8-1 33-7.2 18.1-8.6 42.4-29.3 62.5-57.1l7.1-9.7c-4.8 30.1-32.5 65.5-45.5 84.9a11.75 11.75 0 0 0-2 4.6c-.1.8-.2 2.2.7 2.6a2.39 2.39 0 0 0 2-.4 11.5 11.5 0 0 0 2.3-2.1c.9-1 1.7-1.9 2.5-2.9 2.7-3.3 5.3-6.3 7.9-9.7 18.6-26.8 31.5-46.5 36.8-70.2.2.8.3 1.6.5 2.4 4.9 26.7-2.2 37.5-10.4 53.2-1 2-2.1 4.3-1.6 6.5.7 2.9 2.3 2.4 4.9-.3a74.41 74.41 0 0 0 13.6-27.8zm53.7-187.2a17.23 17.23 0 0 0-1.9 4.4c-.8 3.3-11.7 65.2-11.7 65.2s-10.1 3-50.5 13.3l-3.9-14.9c14-2.7 42.4-8 43-8.6s5-21.9 6.9-32.2c.3-1.9 1.2-5.7-.6-4.1-2.7 2.3-8.2 5.7-11.2 2.4a3.81 3.81 0 0 1-.4-4.2q2.1-.3 3.9-.6a4.94 4.94 0 0 0 4-5.9c4.2-4.4 15.4-17.9 12.2-29.4s-19-9.5-27.9-2.8c-3.1 2.3-3.5 1.6-3.8 1.2a2.54 2.54 0 0 1-.2-1.2c.2-4 9.8-17.6 22.9-10.9a8.06 8.06 0 0 0 3.3 1.1c4.7 0-6.7-22.6-3.4-24.1 2.5-1.1 5.6 4.6 8.2 11 2.2 5.6 3.1 11.8 4.6 11.7 2.1-.2 4.4-26.4 8.7-25.5 4 .9-.1 22.6-.5 25s-.5 3.3.3 3.5c1.6.6 3.8-3.1 6.3-7 3.6-5.8 6.6-9.9 7.9-8.8 4.3 3.1-8.7 28.2-16.2 41.4m-39.9-3.5a6.63 6.63 0 0 0-3.9-.9 8.15 8.15 0 0 0-5.1 2.2c-2.2 2-1.4 5 .9 6.6 1.9 1.4 4.5 1 6.5 0s4.3-3.3 3.5-5.7a5.1 5.1 0 0 0-1.9-2.2m-37.7 175.8l13.6-.9-.3-4.8-8.8.6-.4-5.6 8.8-.6-.3-4.8-13.6 1zm-219-187.9c-6-.3-13.4 13.7-5.4 15.5a5.36 5.36 0 0 0 2.8-.2c3.8-1.2 8.1-8.4 6.9-12.5-.4-1.6-1.8-2.7-4.3-2.8m124.2 198.6l-1.3-19.6-4.8.3 1.6 24.4 23.3-1.5-.3-4.8zm48.3-7.6l-.3-4.8-8.8.6-.4-5.6 8.8-.6-.3-4.8-13.6.9 1 15.2zm-30.1 2l-.3-4.8-8.8.6-.4-5.6 8.8-.6-.3-4.8-13.6.9 1 15.2zm4.1-221.2a13 13 0 0 0 5.7 7.2 12.77 12.77 0 0 0 4.7 1.8 13.6 13.6 0 0 0 5.3-.2 11.09 11.09 0 0 0 4.8-2.8 11.33 11.33 0 0 0 2.8-4.5 13.49 13.49 0 0 0-.1-9.1l-.2-.4a2.17 2.17 0 0 0-2-1.4 2.09 2.09 0 0 0-2 2.1 17.07 17.07 0 0 1-1 6.5 6.26 6.26 0 0 1-4.1 3.7 8.18 8.18 0 0 1-5.9-.6 12.71 12.71 0 0 1-2.7-1.8 10.67 10.67 0 0 1-2.2-2.5 1.76 1.76 0 0 0-2.1-.7 2 2 0 0 0-1.3 2.4zm27.8-7.8a13.91 13.91 0 0 0 15.6 9.5 11.77 11.77 0 0 0 5.2-2.4 11.36 11.36 0 0 0 3.2-4.5 5.64 5.64 0 0 0 .4-1.2l.3-1.2a19.42 19.42 0 0 0 .2-2.4 14.94 14.94 0 0 0-.9-4.4l-.2-.5a2 2 0 0 0-1.9-1.3 2 2 0 0 0-2 2 13.36 13.36 0 0 1-1.3 6.4 6.46 6.46 0 0 1-1.8 2.2 5.65 5.65 0 0 1-2.5 1.1 9.78 9.78 0 0 1-6-.9 12.71 12.71 0 0 1-2.7-1.8 11 11 0 0 1-2.3-2.5 1.93 1.93 0 0 0-3.4 1.7zm-20 232.6l-1.3-19.6-4.8.3 1.6 24.4 23.3-1.5-.3-4.8zm-91-243.8a2.37 2.37 0 0 0-1.1-1.3c-2.3-1.4-6.8.3-8.6 1.4s-5 3.5-3.1 5.9 6.6.8 8.8-.3c1.9-.8 5-3.3 4-5.7m-46.8 21.4c-2-.8-5.2 1.6-6.5 2.8-1.9 1.9-3.6 4.5-3.4 7.3.1 2 1.1 3.9 3.2 4.2 4.8.7 10-7.1 9.5-11.2a3.92 3.92 0 0 0-2.8-3.1m7.5-25.9c-3.8.4-9.1 4.8-8.3 8.9a2.65 2.65 0 0 0 1.2 2 3.85 3.85 0 0 0 2.6.2c2.5-.6 7.8-4.4 7.9-7.9a3.6 3.6 0 0 0-.7-2.2 3 3 0 0 0-2.7-1m13.9 12.6c-4-1.3-8.6 3.2-9.9 6.5-.9 2.3-1.1 5.4 1.9 5.9 4.3.7 9.3-4.1 10.3-7.9a3.59 3.59 0 0 0-2.3-4.5m24.2-29.3a9.74 9.74 0 0 0 6.6-4.4c2-3-1.4-4.2-3.4-4.1a9.18 9.18 0 0 0-6.8 3.4c-.9 1.2-1.2 2.8-.6 3.6a4.33 4.33 0 0 0 4.2 1.5m-53.8 30.2a2.74 2.74 0 0 0-1.6-2.5 2.2 2.2 0 0 0-1.4-.1c-4 .6-9.2 6.9-6.9 11a2.89 2.89 0 0 0 2 1.4 2.54 2.54 0 0 0 1.7-.4 11.13 11.13 0 0 0 5.3-5.4 8.16 8.16 0 0 0 .9-4"/>
    </g>
    <g clip-path="url(#b)">
      <path d="M264.72 353.95a6.7 6.7 0 1 1-6.8 6.7 6.72 6.72 0 0 1 6.8-6.7m0 1.1a5.45 5.45 0 0 0-5.5 5.6 5.39 5.39 0 0 0 5.5 5.6 5.6 5.6 0 0 0 0-11.2m-1.4 9.5h-1.2v-7.7h3c1.8 0 2.7.7 2.7 2.2a2 2 0 0 1-2 2.1l2.2 3.4h-1.3l-2.1-3.3h-1.3v3.3zm0-4.4h1.4c1.4 0 1.9-.4 1.9-1.3 0-.7-.4-1.1-1.7-1.1h-1.6v2.4z"/>
    </g>
  </g>
</svg>