<?xml version="1.0" encoding="utf-8"?>
<svg viewBox="15.243 87.285 441.873 217.189" xmlns="http://www.w3.org/2000/svg">
  <path d="M 163.713 209.632 C 163.486 209.366 163.155 209.214 162.807 209.214 L 139.75 209.214 C 139.163 209.214 138.664 209.641 138.573 210.22 L 125.13 295.42 C 125.017 296.143 125.576 296.796 126.308 296.797 L 149.356 296.797 C 149.942 296.797 150.441 296.37 150.533 295.791 L 163.984 210.591 C 164.038 210.247 163.94 209.897 163.714 209.632 L 163.713 209.632 Z M 205.8 273.931 C 205.573 273.665 205.242 273.513 204.893 273.513 L 193.017 273.517 C 190.455 273.279 188.513 272.27 187.08 270.433 C 184.478 267.096 183.684 260.794 184.902 253.14 C 185.483 249.438 187.45 240.303 193.14 235.44 C 196.55 232.605 200.18 232.384 201.212 232.384 C 201.339 232.384 201.415 232.388 201.427 232.389 L 201.506 232.391 L 211.758 232.391 C 212.345 232.391 212.844 231.964 212.935 231.385 L 216.215 210.592 C 216.329 209.869 215.77 209.214 215.038 209.215 L 203.798 209.22 C 200.778 209.22 190.121 209.793 179.788 217.158 C 169.053 224.811 162.31 236.975 159.748 253.31 C 157.433 267.899 159.696 279.694 166.294 287.422 C 171.47 293.485 178.969 296.689 187.979 296.689 L 201.613 296.689 C 202.2 296.689 202.699 296.263 202.791 295.683 L 206.071 274.891 C 206.125 274.546 206.026 274.196 205.8 273.931 Z M 132.692 231.385 L 135.968 210.592 C 136.082 209.868 135.523 209.214 134.791 209.214 L 85.861 209.214 C 85.274 209.214 84.775 209.641 84.683 210.22 L 81.408 231.014 C 81.294 231.737 81.853 232.39 82.585 232.391 L 93.842 232.391 L 83.892 295.419 C 83.776 296.143 84.336 296.798 85.069 296.797 L 108.117 296.797 C 108.704 296.797 109.203 296.37 109.295 295.791 L 119.312 232.391 L 131.515 232.391 C 132.102 232.391 132.601 231.964 132.692 231.385 Z M 81.807 209.632 C 81.58 209.366 81.249 209.214 80.901 209.214 L 62.741 209.214 C 62.701 209.214 62.661 209.216 62.621 209.22 C 43.722 209.293 33.95 226.453 32.229 237.272 C 31.304 242.904 32.058 247.862 34.551 252.462 C 37.041 256.729 40.672 260.119 44.178 263.226 C 44.201 263.246 44.226 263.266 44.251 263.285 C 45.68 264.365 46.539 265.217 47.125 266.135 C 47.15 266.175 47.177 266.212 47.206 266.248 C 48.032 267.262 48.291 268.384 48.045 269.898 C 47.9 270.844 47.45 271.691 46.731 272.394 C 45.677 273.37 43.784 273.497 43.263 273.512 L 27.521 273.512 C 26.935 273.512 26.435 273.938 26.344 274.517 L 23.057 295.312 C 22.942 296.035 23.501 296.689 24.234 296.69 L 41.255 296.69 C 56.787 296.69 70.425 284.44 72.976 268.195 C 73.926 262.153 73.33 257.375 71.103 253.163 C 68.903 249.003 65.173 245.718 61.462 242.79 C 61.109 242.442 60.712 242.096 60.292 241.73 C 59.512 241.05 58.704 240.346 58.134 239.586 C 57.108 238.215 56.726 237.056 56.939 235.89 C 57.045 235.133 57.395 234.43 57.969 233.81 C 58.066 233.709 58.164 233.615 58.281 233.51 C 59.29 232.626 60.443 232.43 61.06 232.392 L 77.615 232.392 C 78.201 232.392 78.7 231.965 78.792 231.386 L 82.077 210.593 C 82.131 210.249 82.033 209.898 81.807 209.633 L 81.807 209.632 Z M 437.673 209.632 C 437.446 209.366 437.115 209.214 436.767 209.214 L 418.607 209.214 C 418.567 209.214 418.527 209.216 418.487 209.22 C 399.589 209.293 389.817 226.453 388.095 237.272 C 387.17 242.903 387.924 247.862 390.418 252.462 C 392.908 256.729 396.538 260.119 400.045 263.226 C 400.068 263.246 400.092 263.266 400.117 263.285 C 401.547 264.365 402.407 265.218 402.992 266.135 C 403.016 266.175 403.043 266.212 403.072 266.248 C 403.898 267.262 404.158 268.384 403.912 269.898 C 403.767 270.843 403.317 271.691 402.598 272.394 C 401.543 273.37 399.651 273.497 399.129 273.512 L 383.388 273.512 C 382.801 273.512 382.302 273.938 382.21 274.517 L 379.689 290.477 L 370.053 260.823 C 378.835 257.131 384.755 249.225 386.368 238.955 C 387.829 229.555 386.491 222.593 382.277 217.673 C 377.334 211.902 368.708 209.214 355.131 209.214 L 332.865 209.214 C 332.278 209.214 331.779 209.641 331.688 210.22 L 318.245 295.42 C 318.133 296.142 318.69 296.795 319.422 296.797 L 342.471 296.797 C 343.057 296.797 343.555 296.371 343.647 295.792 L 347.263 273.079 C 347.597 271.002 347.889 268.918 348.139 266.83 L 353.962 295.84 C 354.074 296.396 354.562 296.797 355.131 296.797 L 380.102 296.797 C 380.275 296.797 380.444 296.759 380.597 296.689 L 397.122 296.689 C 412.655 296.689 426.292 284.439 428.843 268.194 C 429.793 262.152 429.198 257.375 426.97 253.162 C 424.77 249.002 421.04 245.717 417.329 242.789 C 416.976 242.44 416.579 242.094 416.159 241.729 C 415.378 241.049 414.571 240.345 414.001 239.585 C 412.975 238.214 412.593 237.055 412.806 235.889 C 412.912 235.132 413.262 234.429 413.839 233.807 C 413.934 233.707 414.031 233.614 414.148 233.509 C 415.158 232.625 416.31 232.429 416.928 232.391 L 433.482 232.391 C 434.068 232.391 434.568 231.964 434.659 231.385 L 437.944 210.592 C 437.998 210.248 437.899 209.897 437.674 209.632 L 437.673 209.632 Z M 354.116 229.882 C 355.968 229.899 358.432 230.294 359.909 232.039 C 361.179 233.539 361.569 235.813 361.063 238.826 C 360.376 243.695 356.775 248.623 351.218 248.648 L 351.086 248.638 L 354.116 229.882 Z M 256.552 251.692 L 281.136 211.022 C 281.61 210.236 281.056 209.232 280.138 209.214 C 280.131 209.214 280.123 209.214 280.116 209.214 L 255.826 209.214 C 255.376 209.214 254.965 209.467 254.762 209.869 L 239.697 239.712 L 244.233 210.589 C 244.345 209.866 243.786 209.214 243.055 209.214 L 219.998 209.214 C 219.412 209.214 218.912 209.641 218.821 210.22 L 205.379 295.42 C 205.266 296.143 205.824 296.796 206.556 296.797 L 229.603 296.797 C 230.189 296.797 230.688 296.371 230.78 295.792 L 236.028 262.812 L 242.901 295.848 C 243.016 296.4 243.503 296.797 244.067 296.797 L 268.817 296.797 C 269.619 296.797 270.192 296.021 269.957 295.255 L 256.552 251.692 Z M 318.525 274.717 C 318.298 274.452 317.967 274.3 317.619 274.3 L 299.239 274.3 L 300.899 263.692 L 317.619 263.692 C 318.203 263.692 318.701 263.269 318.795 262.692 L 322.08 242.58 C 322.2 241.854 321.639 241.195 320.904 241.196 L 304.543 241.196 L 305.991 231.71 L 324.741 231.71 C 325.327 231.71 325.826 231.283 325.918 230.704 L 329.083 210.591 C 329.196 209.867 328.637 209.213 327.905 209.214 L 285.075 209.214 C 284.489 209.214 283.99 209.641 283.899 210.22 L 270.456 295.42 C 270.344 296.142 270.901 296.795 271.633 296.797 L 314.454 296.797 C 315.041 296.797 315.54 296.37 315.631 295.79 L 318.796 275.677 C 318.85 275.332 318.751 274.982 318.525 274.717 Z" fill="#f47857"/>
  <path d="M 190.577 145.265 C 190.577 150.809 191.205 156.378 191.843 161.782 L 178.765 125.358 L 157.829 125.358 L 157.829 188.688 L 144.39 125.358 L 118.214 125.358 L 99.998 201.238 L 122.98 201.238 L 124.639 191.785 L 135.974 191.785 L 137.434 201.237 L 179.317 201.237 L 179.317 178.505 C 179.317 174.34 178.997 170.162 178.644 166.086 L 190.923 201.237 L 212.073 201.237 L 212.073 125.357 L 190.577 125.357 L 190.577 145.265 Z M 133.304 173.805 L 127.671 173.805 L 130.177 158.132 C 130.42 156.705 130.635 155.263 130.832 153.822 C 130.985 155.247 131.148 156.672 131.328 158.081 L 133.304 173.805 Z M 109.83 125.358 L 65.237 125.358 L 65.237 145.679 L 76.159 145.679 L 76.159 201.237 L 98.424 201.237 L 98.424 145.679 L 109.83 145.679 L 109.83 125.358 Z M 48.755 125.386 L 46.263 125.37 C 29.363 125.37 23.066 140.432 23.066 149.926 C 23.066 154.917 24.422 159.214 27.216 163.066 C 29.894 166.706 33.58 169.65 37.172 172.386 C 38.264 173.136 39.395 173.948 40.178 174.895 L 40.222 174.945 C 41.053 175.843 41.43 176.801 41.44 178.045 L 41.433 178.155 C 41.431 178.317 41.416 178.478 41.389 178.638 L 41.373 178.704 C 41.089 179.991 39.951 180.911 38.633 180.917 L 23.065 180.917 L 23.065 201.237 L 42.362 201.237 L 42.362 201.04 C 54.585 199.548 63.342 189.318 63.342 176.305 C 63.342 171.003 62.147 166.861 59.594 163.288 C 57.086 159.642 53.384 156.831 49.752 154.337 C 49.462 154.107 49.145 153.869 48.817 153.623 C 47.954 152.976 47.062 152.308 46.369 151.56 C 45.719 150.863 45.295 150.255 45.036 149.644 C 44.962 149.473 44.903 149.295 44.861 149.114 C 44.818 148.914 44.798 148.71 44.801 148.506 C 44.8 148.481 44.799 148.457 44.797 148.433 L 44.801 148.38 L 44.814 148.25 C 44.908 146.809 46.1 145.686 47.544 145.679 L 63.342 145.679 L 63.342 125.358 L 49.327 125.366 C 49.143 125.366 48.947 125.367 48.754 125.386 L 48.755 125.386 Z M 446.16 96.337 L 379.79 96.337 C 378.948 96.335 378.141 96.669 377.548 97.266 L 372.825 101.991 L 372.825 99.508 C 372.822 97.757 371.404 96.339 369.654 96.337 L 349.767 96.337 C 348.932 96.337 348.115 96.675 347.524 97.266 L 339.372 105.42 C 333.897 98.64 326.365 95.066 317.505 95.066 L 315.995 95.066 C 308.172 95.066 301.527 97.756 296.278 103.027 L 271.909 127.388 C 271.842 127.457 271.777 127.528 271.716 127.6 C 267.89 131.25 264.766 136.41 262.677 142.526 C 256.939 131.426 245.853 125.358 231.143 125.358 L 213.967 125.358 L 213.967 201.238 L 232.509 201.238 C 249.102 201.238 259.839 194.451 264.485 181.052 C 269.468 194.746 279.49 202.508 292.435 202.508 C 300.253 202.508 306.894 199.825 312.175 194.534 L 322.86 183.854 C 326.13 196.069 335.351 202.508 349.655 202.508 C 358.897 202.508 366.028 199.806 370.85 194.478 L 386.637 178.69 L 386.637 198.077 C 386.639 199.827 388.057 201.245 389.807 201.248 L 409.688 201.248 C 410.535 201.248 411.331 200.919 411.931 200.32 L 436.998 175.256 C 437.604 174.65 437.939 173.825 437.928 172.968 L 437.928 130.166 L 448.408 119.687 C 449.039 119.057 449.374 118.186 449.331 117.29 L 449.331 99.508 C 449.328 97.757 447.909 96.338 446.159 96.337 L 446.16 96.337 Z M 236.233 181.004 L 236.233 146.152 C 240.238 146.731 244.477 150.523 244.477 163.98 C 244.477 177.458 239.4 180.45 236.233 181.004 Z" fill="#fff"/>
  <path d="M 451.201 298.328 C 451.165 298.091 451.143 297.853 451.136 297.614 C 451.126 297.374 451.113 297.134 451.095 296.902 C 451.068 296.675 451.03 296.45 450.98 296.228 C 450.935 296.022 450.857 295.824 450.75 295.643 C 450.645 295.464 450.503 295.31 450.334 295.192 C 450.129 295.051 449.896 294.959 449.651 294.922 L 449.651 294.895 C 450.237 294.731 450.661 294.432 450.925 293.992 C 451.191 293.552 451.325 293.041 451.325 292.455 C 451.325 291.675 451.064 291.061 450.552 290.613 C 450.034 290.165 449.317 289.94 448.402 289.94 L 443.877 289.94 L 443.877 299.552 L 445.157 299.552 L 445.157 295.446 L 448.28 295.446 C 448.595 295.446 448.849 295.492 449.034 295.588 C 449.224 295.683 449.374 295.806 449.494 295.966 C 449.608 296.122 449.694 296.306 449.75 296.516 C 449.801 296.726 449.847 296.949 449.882 297.183 C 449.928 297.415 449.955 297.654 449.964 297.893 C 449.971 298.137 449.98 298.364 449.991 298.578 C 449.998 298.786 450.021 298.977 450.051 299.15 C 450.073 299.298 450.136 299.437 450.233 299.552 L 451.66 299.552 C 451.523 299.387 451.42 299.198 451.354 298.995 C 451.286 298.776 451.235 298.553 451.201 298.328 Z M 449.379 294.038 C 449.175 294.168 448.939 294.258 448.671 294.301 C 448.401 294.346 448.119 294.371 447.823 294.371 L 445.157 294.371 L 445.157 291.017 L 448.335 291.017 C 448.935 291.017 449.371 291.171 449.642 291.476 C 449.909 291.779 450.044 292.176 450.044 292.66 C 450.044 293.008 449.986 293.292 449.861 293.515 C 449.741 293.733 449.579 293.907 449.379 294.038 Z" style="fill: rgb(255, 255, 255);"/>
  <path d="M 447.427 285.104 C 442.078 285.104 437.742 289.44 437.742 294.789 C 437.742 300.138 442.078 304.474 447.427 304.474 C 452.776 304.474 457.112 300.138 457.112 294.789 C 457.112 289.44 452.776 285.104 447.427 285.104 Z M 447.427 303.19 C 442.795 303.19 439.027 299.421 439.027 294.79 C 439.027 290.157 442.795 286.388 447.427 286.388 C 452.06 286.388 455.828 290.157 455.828 294.789 C 455.828 299.421 452.06 303.19 447.428 303.19 L 447.427 303.19 Z" style="fill: rgb(255, 255, 255);"/>
  <path d="M 316.751 98.992 C 296.575 98.992 288.679 119.077 288.679 137.01 C 288.679 154.947 296.575 175.026 316.751 175.026 C 336.93 175.026 344.826 154.947 344.826 137.01 C 344.826 119.077 336.93 98.991 316.751 98.991 L 316.751 98.992 Z M 316.751 117.515 C 324.258 117.515 324.549 132.436 324.549 137.01 C 324.549 141.593 324.259 156.507 316.751 156.507 C 314.406 156.507 312.765 155.05 311.618 152.908 C 311.501 152.69 311.391 152.469 311.288 152.245 C 310.841 151.28 310.482 150.202 310.19 149.075 C 310.084 148.666 309.987 148.256 309.9 147.843 C 309.023 143.706 308.956 139.19 308.956 137.01 C 308.956 132.436 309.246 117.515 316.751 117.515 Z M 403.202 100.262 L 403.202 118.2 L 414.119 118.2 L 414.119 173.767 L 434.002 173.767 L 434.002 118.2 L 445.406 118.2 L 445.406 100.262 L 403.202 100.262 Z M 379.039 100.262 L 379.039 146.565 C 379.039 148.418 379.134 150.951 378.549 153.002 C 378.063 154.947 376.799 156.507 373.966 156.507 C 371.238 156.507 369.972 154.947 369.383 152.901 C 368.793 150.951 368.899 148.418 368.899 146.468 L 368.899 100.262 L 349.013 100.262 L 349.013 148.318 C 349.013 157.187 350.969 175.026 373.966 175.026 C 396.976 175.026 398.924 157.186 398.924 148.318 L 398.924 100.262 L 379.039 100.262 Z" fill="#8bd0c0"/>
  <path d="M 353.094 228.716 L 349.699 249.731 L 351.171 249.841 C 357.271 249.841 361.458 244.533 362.24 238.994 C 363.491 231.541 359.415 228.376 353.094 228.716 Z M 446.16 88.556 L 349.767 88.556 C 346.842 88.556 344.091 89.696 342.022 91.765 L 339.275 94.512 C 333.142 89.802 325.671 87.285 317.505 87.285 L 315.996 87.285 C 306.22 87.285 297.526 90.804 290.838 97.462 C 290.784 97.515 290.729 97.568 290.673 97.625 L 266.37 121.925 C 266.279 122.016 266.19 122.11 266.102 122.205 C 265.973 122.33 265.849 122.463 265.722 122.591 L 265.717 122.586 L 265.509 122.807 C 264.699 123.636 263.918 124.508 263.173 125.429 C 262.47 126.251 261.798 127.098 261.156 127.969 C 253.634 121.233 243.361 117.577 231.144 117.577 L 46.263 117.59 C 23.695 117.59 15.285 137.425 15.285 149.927 C 15.285 156.523 17.179 162.479 20.948 167.676 C 22.438 169.7 24.108 171.496 25.863 173.135 L 24.257 173.135 C 19.301 173.135 15.285 177.152 15.285 182.108 L 15.285 200.046 C 15.285 205.001 19.301 209.018 24.257 209.019 L 40.409 209.019 C 38.328 210.651 36.415 212.487 34.699 214.499 C 29.515 220.544 25.712 228.604 24.534 236.012 C 23.318 243.412 24.346 249.996 27.675 256.139 C 27.72 256.222 27.767 256.305 27.815 256.387 C 29.958 260.059 32.622 263.059 35.388 265.734 L 27.504 265.734 C 23.089 265.734 19.33 268.945 18.641 273.306 L 15.355 294.101 C 14.495 299.547 18.704 304.473 24.218 304.474 L 397.121 304.474 C 416.447 304.474 433.389 289.397 436.53 269.405 C 437.754 261.618 436.901 255.301 433.848 249.528 C 431.891 245.824 429.206 242.811 426.308 240.173 L 433.482 240.173 C 437.897 240.173 441.656 236.962 442.345 232.601 L 445.63 211.806 C 446.491 206.359 442.282 201.432 436.768 201.433 L 421.823 201.433 L 442.496 180.763 C 444.57 178.682 445.727 175.857 445.709 172.919 L 445.709 133.389 L 453.912 125.189 C 456.033 123.063 457.19 120.16 457.112 117.158 L 457.112 99.508 C 457.112 93.468 452.199 88.556 446.16 88.556 Z M 143.425 126.55 L 159.021 200.046 L 159.021 126.55 L 177.927 126.55 L 193.817 170.806 L 194.015 170.608 C 193.237 162.131 191.769 153.742 191.769 145.265 L 191.769 126.55 L 210.881 126.55 L 210.881 200.046 L 191.769 200.046 L 176.959 157.646 L 176.76 157.837 C 177.244 164.758 178.125 171.584 178.125 178.505 L 178.125 200.045 L 138.457 200.045 L 136.997 190.593 L 123.637 190.593 L 121.978 200.046 L 101.508 200.046 L 119.153 126.55 L 143.425 126.55 Z M 66.429 126.55 L 108.638 126.55 L 108.638 144.487 L 97.233 144.487 L 97.233 200.046 L 77.351 200.046 L 77.351 144.487 L 66.429 144.487 L 66.429 126.55 Z M 24.257 200.046 L 24.257 182.108 L 38.633 182.108 C 40.514 182.106 42.14 180.794 42.538 178.955 L 42.552 178.9 C 42.599 178.666 42.621 178.423 42.625 178.176 C 42.625 178.147 42.632 178.122 42.632 178.093 C 42.632 176.398 42.055 175.17 41.097 174.135 C 40.239 173.099 39.086 172.255 37.847 171.405 C 34.013 168.482 30.67 165.751 28.177 162.36 C 25.785 159.062 24.257 155.112 24.257 149.927 C 24.257 141.635 29.611 126.562 46.263 126.562 L 48.755 126.562 C 48.758 126.55 62.151 126.55 62.151 126.55 L 62.151 144.487 L 47.544 144.487 C 45.454 144.487 43.762 146.117 43.626 148.172 C 43.62 148.232 43.611 148.292 43.608 148.352 C 43.608 148.379 43.6 148.404 43.6 148.432 C 43.6 148.47 43.61 148.505 43.611 148.542 C 43.613 148.825 43.637 149.107 43.701 149.381 C 43.758 149.631 43.841 149.874 43.941 150.11 C 44.3 150.958 44.874 151.704 45.499 152.374 C 46.551 153.509 47.985 154.452 49.045 155.296 C 53.159 158.119 56.408 160.757 58.613 163.964 C 60.904 167.17 62.151 170.936 62.151 176.306 C 62.151 188.839 53.679 198.987 41.171 199.962 L 41.171 200.046 L 24.257 200.046 Z M 77.6 231.2 L 61.011 231.2 C 60.246 231.241 58.776 231.479 57.48 232.614 C 57.344 232.733 57.214 232.858 57.09 232.99 C 56.396 233.738 55.894 234.654 55.743 235.726 C 55.423 237.466 56.187 238.994 57.165 240.3 C 58.15 241.614 59.678 242.707 60.655 243.684 C 64.803 246.952 68.072 250.008 70.035 253.72 C 71.997 257.433 72.761 261.794 71.785 268.012 C 69.386 283.28 56.729 295.502 41.239 295.502 L 24.218 295.502 L 27.504 274.707 L 43.246 274.707 C 44.158 274.681 46.22 274.479 47.524 273.272 C 48.38 272.435 49.008 271.375 49.206 270.082 C 49.526 268.118 49.091 266.697 48.114 265.498 C 47.35 264.298 46.257 263.322 44.952 262.336 C 41.132 258.952 37.855 255.79 35.564 251.864 C 33.494 248.044 32.402 243.471 33.387 237.466 C 34.915 227.866 43.743 210.413 62.723 210.412 L 62.725 210.406 L 80.886 210.406 L 77.6 231.2 Z M 108.12 295.501 L 85.071 295.501 L 95.221 231.201 L 82.571 231.201 L 85.846 210.406 L 134.777 210.406 L 131.501 231.2 L 118.279 231.2 L 108.12 295.501 Z M 126.311 295.501 L 139.737 210.406 L 162.796 210.406 L 149.36 295.501 L 126.311 295.501 Z M 201.603 295.501 L 187.969 295.501 C 169.751 295.501 156.446 281.645 160.914 253.498 C 166.696 216.629 192.987 210.412 203.787 210.412 L 215.029 210.407 L 211.749 231.2 L 201.496 231.2 C 201.496 231.2 196.743 230.885 192.368 234.525 C 187.211 238.932 184.68 246.801 183.714 252.957 C 182.245 262.189 182.998 273.83 192.954 274.711 L 204.884 274.708 L 201.603 295.501 Z M 244.037 295.501 L 235.925 256.513 L 235.815 256.513 L 229.612 295.501 L 206.562 295.501 L 219.989 210.406 L 243.047 210.406 L 237.397 246.676 L 237.508 246.676 L 255.818 210.406 L 280.11 210.406 L 255.248 251.535 L 268.778 295.501 L 244.037 295.501 Z M 317.614 275.495 L 314.466 295.501 L 271.643 295.501 L 285.069 210.406 L 327.901 210.406 L 324.735 230.519 L 304.962 230.519 L 303.15 242.389 L 320.899 242.389 L 317.614 262.503 L 299.874 262.503 L 297.841 275.495 L 317.614 275.495 Z M 355.106 295.501 L 348.006 260.129 L 347.666 260.349 C 347.214 264.536 346.763 268.713 346.083 272.891 L 342.483 295.501 L 319.435 295.501 L 332.86 210.406 L 355.127 210.406 C 375.131 210.406 388.684 216.286 385.187 238.773 C 383.715 248.149 378.287 256.513 368.57 260.129 L 380.064 295.501 L 355.106 295.501 Z M 436.768 210.406 L 433.482 231.2 L 416.892 231.2 C 416.128 231.241 414.657 231.479 413.362 232.614 C 413.226 232.733 413.095 232.858 412.972 232.99 C 412.278 233.738 411.775 234.654 411.625 235.726 C 411.305 237.466 412.069 238.994 413.045 240.3 C 414.032 241.614 415.56 242.707 416.536 243.684 C 420.684 246.952 423.953 250.008 425.916 253.72 C 427.879 257.433 428.643 261.794 427.666 268.012 C 425.268 283.28 412.611 295.502 397.121 295.502 L 380.099 295.502 L 383.385 274.707 L 399.128 274.707 C 400.039 274.681 402.101 274.479 403.405 273.272 C 404.262 272.435 404.89 271.375 405.088 270.082 C 405.408 268.118 404.972 266.697 403.995 265.498 C 403.231 264.298 402.139 263.322 400.833 262.336 C 397.014 258.952 393.737 255.79 391.445 251.864 C 389.375 248.044 388.283 243.471 389.269 237.466 C 390.797 227.866 399.625 210.413 418.605 210.412 L 418.606 210.406 L 436.768 210.406 Z M 448.14 117.322 C 448.176 117.888 447.967 118.443 447.567 118.845 L 436.737 129.673 L 436.737 172.968 C 436.748 173.508 436.539 174.029 436.158 174.412 L 411.089 199.477 C 410.717 199.848 410.214 200.057 409.689 200.057 L 389.809 200.057 C 388.715 200.057 387.828 199.17 387.829 198.077 L 387.829 175.812 L 370.035 193.608 L 370 193.642 C 365.412 198.734 358.568 201.316 349.656 201.316 C 335.113 201.316 326.154 194.486 323.533 181.496 L 311.42 193.608 C 311.393 193.634 311.366 193.66 311.338 193.686 C 306.288 198.749 299.929 201.316 292.435 201.316 C 277.241 201.316 268.197 190.553 264.437 176.98 C 259.373 197.838 242.672 200.046 232.509 200.046 L 215.159 200.046 L 215.159 126.55 L 231.144 126.55 C 247.064 126.55 257.801 133.615 262.769 145.547 C 262.812 145.646 262.861 145.741 262.901 145.842 L 262.906 145.852 C 263.177 144.862 263.472 143.892 263.796 142.947 L 263.796 142.941 C 265.807 137.039 268.799 132.01 272.596 128.409 C 272.644 128.347 272.696 128.288 272.753 128.231 L 297.017 103.97 L 297.089 103.901 C 302.14 98.829 308.501 96.258 315.996 96.258 L 317.506 96.258 C 326.476 96.258 333.951 100.037 339.259 107.221 L 348.368 98.108 C 348.739 97.736 349.243 97.528 349.768 97.528 L 369.654 97.528 C 370.747 97.528 371.633 98.415 371.633 99.508 L 371.633 104.868 L 378.391 98.108 C 378.764 97.736 379.267 97.528 379.791 97.528 L 446.161 97.528 C 447.254 97.528 448.14 98.415 448.14 99.508 L 448.14 117.322 Z M 235.041 144.876 L 235.041 182.306 C 244.105 182.211 245.669 170.901 245.669 163.98 C 245.669 155.988 244.105 144.876 235.041 144.876 Z M 132.511 157.932 C 131.924 153.352 131.535 148.678 131.043 144.098 L 130.853 144.098 C 130.265 148.678 129.781 153.353 129.003 157.932 L 126.273 174.997 L 134.655 174.997 L 132.511 157.932 Z" fill="#484743"/>
</svg>