<svg xmlns="http://www.w3.org/2000/svg" xmlns:ns1="http://sozi.baierouge.fr" xmlns:svg="http://www.w3.org/2000/svg" xmlns:xlink="http://www.w3.org/1999/xlink" id="svg3987" version="1.1" viewBox="0 0 284.89 266.94"><defs id="defs3989"><linearGradient id="linearGradient5426" x1="24.75" x2="24.75" y1="26.933" y2="8.239" gradientTransform="matrix(1.0452 0 0 .97519 -.83237 -.034754)" gradientUnits="userSpaceOnUse"><stop id="stop5422" style="stop-color:#343d48" offset="0"/><stop id="stop5424" style="stop-color:#3e3e3e" offset="1"/></linearGradient><linearGradient id="linearGradient5418" x1="21.088" x2="25.175" y1="4.739" y2="18.138" gradientTransform="matrix(1.0625 0 0 .93333 -1.5 -.17598)" gradientUnits="userSpaceOnUse"><stop id="stop5414" style="stop-color:#fff;stop-opacity:.43071" offset="0"/><stop id="stop5416" style="stop-color:#fff;stop-opacity:0" offset="1"/></linearGradient></defs><g id="layer1" transform="translate(11.073 181.14)"><g id="layer1-5" transform="matrix(6.1366 0 0 6.1366 -15.01 -193.42)"><rect id="rect5139" style="stroke-linejoin:round;fill-rule:evenodd;color:#000;stroke:#2e3136;stroke-linecap:square;fill:#e3e6e7" width="38.978" height="27.478" x="4.511" y="2.511" rx=".557" ry=".492"/><path id="path5147" style="stroke-linejoin:round;fill-rule:evenodd;color:#000;stroke:#2e3136;stroke-linecap:square;fill:#c1c8ca" d="m4.8125 28.656-3.3125 13.219c-0.221 0.613-0.4895 1.189-0.2756 1.56l0.9006 1.565h43.125l1.139-1.434c0.312-0.392 0.194-1.061-0.014-1.816l-2.5-12.969c-0.066-0.357-0.352-0.549-0.75-0.656l-36.875 0.031c-0.72083-0.04375-1.0996-0.0267-1.4375 0.5z"/><path id="path2787" style="opacity:.85;stroke-linejoin:round;color:#000;stroke:#171b1c;stroke-linecap:square;stroke-width:.5;fill:none" d="m6.7502 29.752-0.9651 6.267c-0.6372 0.926 0.0762 1.396 0.5656 1.481h27.679l0.08839 1.0607h8.2589c0.71354-0.29814 1.4606-0.69956 1.0182-1.5407l-1.29-7.209c-0.05968-0.16915-0.31817-0.26019-0.67881-0.31111l-33.375 0.01482c-0.6524-0.02074-0.99523-0.01266-1.301 0.23704z"/><g id="g5266" style="stroke-linejoin:round;fill-rule:evenodd;color:#000;stroke:#222728;stroke-linecap:square;stroke-width:.48863;fill:#555753" transform="translate(-1.0607 -1.5581)"><rect id="rect5268" style="stroke-linejoin:round;fill-rule:evenodd;color:#000;stroke:#222728;stroke-linecap:square;stroke-width:.48863;fill:#555753" width="2.928" height="1.511" x="7.745" y="33.123"/><rect id="rect5270" style="stroke-linejoin:round;fill-rule:evenodd;color:#000;stroke:#222728;stroke-linecap:square;stroke-width:.48863;fill:#555753" width="2.133" height="1.511" x="10.989" y="33.123"/><rect id="rect5272" style="stroke-linejoin:round;fill-rule:evenodd;color:#000;stroke:#222728;stroke-linecap:square;stroke-width:.48863;fill:#555753" width="2.133" height="1.511" x="13.475" y="33.123"/><rect id="rect5274" style="stroke-linejoin:round;fill-rule:evenodd;color:#000;stroke:#222728;stroke-linecap:square;stroke-width:.48863;fill:#555753" width="2.133" height="1.511" x="15.906" y="33.123"/><rect id="rect5276" style="stroke-linejoin:round;fill-rule:evenodd;color:#000;stroke:#222728;stroke-linecap:square;stroke-width:.48863;fill:#555753" width="2.133" height="1.511" x="18.513" y="33.123"/><rect id="rect5278" style="stroke-linejoin:round;fill-rule:evenodd;color:#000;stroke:#222728;stroke-linecap:square;stroke-width:.48863;fill:#555753" width="2.133" height="1.511" x="20.988" y="33.123"/><rect id="rect5280" style="stroke-linejoin:round;fill-rule:evenodd;color:#000;stroke:#222728;stroke-linecap:square;stroke-width:.48863;fill:#555753" width="2.133" height="1.511" x="23.463" y="33.123"/><rect id="rect5282" style="stroke-linejoin:round;fill-rule:evenodd;color:#000;stroke:#222728;stroke-linecap:square;stroke-width:.48863;fill:#555753" width="2.133" height="1.511" x="26.07" y="33.123"/><rect id="rect5284" style="stroke-linejoin:round;fill-rule:evenodd;color:#000;stroke:#222728;stroke-linecap:square;stroke-width:.48863;fill:#555753" width="2.133" height="1.511" x="28.59" y="33.123"/><rect id="rect5286" style="stroke-linejoin:round;fill-rule:evenodd;color:#000;stroke:#222728;stroke-linecap:square;stroke-width:.48863;fill:#555753" width="2.133" height="1.511" x="31.064" y="33.123"/><rect id="rect5288" style="stroke-linejoin:round;fill-rule:evenodd;color:#000;stroke:#222728;stroke-linecap:square;stroke-width:.48863;fill:#555753" width="2.133" height="1.511" x="33.495" y="33.123"/><rect id="rect5290" style="stroke-linejoin:round;fill-rule:evenodd;color:#000;stroke:#222728;stroke-linecap:square;stroke-width:.48863;fill:#555753" width="2.133" height="1.511" x="36.014" y="33.123"/><rect id="rect5320" style="stroke-linejoin:round;fill-rule:evenodd;color:#000;stroke:#222728;stroke-linecap:square;stroke-width:.48863;fill:#555753" width="2.133" height="1.511" x="38.489" y="33.123"/><rect id="rect5324" style="stroke-linejoin:round;fill-rule:evenodd;color:#000;stroke:#222728;stroke-linecap:square;stroke-width:.48863;fill:#555753" width="1.914" height="1.511" x="40.964" y="33.123"/></g><rect id="rect5199" style="stroke-linejoin:round;fill-rule:evenodd;color:#000;stroke:#222728;stroke-linecap:square;stroke-width:.48863;fill:#555753" width="4.077" height="1.511" x="6.596" y="33.123"/><rect id="rect5203" style="stroke-linejoin:round;fill-rule:evenodd;color:#000;stroke:#222728;stroke-linecap:square;stroke-width:.48863;fill:#555753" width="2.133" height="1.511" x="10.989" y="33.123"/><rect id="rect5207" style="stroke-linejoin:round;fill-rule:evenodd;color:#000;stroke:#222728;stroke-linecap:square;stroke-width:.48863;fill:#555753" width="2.133" height="1.511" x="13.475" y="33.123"/><rect id="rect5211" style="stroke-linejoin:round;fill-rule:evenodd;color:#000;stroke:#222728;stroke-linecap:square;stroke-width:.48863;fill:#555753" width="2.133" height="1.511" x="15.906" y="33.123"/><rect id="rect5215" style="stroke-linejoin:round;fill-rule:evenodd;color:#000;stroke:#222728;stroke-linecap:square;stroke-width:.48863;fill:#555753" width="2.133" height="1.511" x="18.513" y="33.123"/><rect id="rect5219" style="stroke-linejoin:round;fill-rule:evenodd;color:#000;stroke:#222728;stroke-linecap:square;stroke-width:.48863;fill:#555753" width="2.133" height="1.511" x="20.988" y="33.123"/><rect id="rect5223" style="stroke-linejoin:round;fill-rule:evenodd;color:#000;stroke:#222728;stroke-linecap:square;stroke-width:.48863;fill:#555753" width="2.133" height="1.511" x="23.463" y="33.123"/><rect id="rect5227" style="stroke-linejoin:round;fill-rule:evenodd;color:#000;stroke:#222728;stroke-linecap:square;stroke-width:.48863;fill:#555753" width="2.133" height="1.511" x="26.07" y="33.123"/><rect id="rect5231" style="stroke-linejoin:round;fill-rule:evenodd;color:#000;stroke:#222728;stroke-linecap:square;stroke-width:.48863;fill:#555753" width="2.133" height="1.511" x="28.59" y="33.123"/><rect id="rect5235" style="stroke-linejoin:round;fill-rule:evenodd;color:#000;stroke:#222728;stroke-linecap:square;stroke-width:.48863;fill:#555753" width="2.133" height="1.511" x="31.064" y="33.123"/><rect id="rect5239" style="stroke-linejoin:round;fill-rule:evenodd;color:#000;stroke:#222728;stroke-linecap:square;stroke-width:.48863;fill:#555753" width="2.133" height="1.511" x="33.495" y="33.123"/><rect id="rect5243" style="stroke-linejoin:round;fill-rule:evenodd;color:#000;stroke:#222728;stroke-linecap:square;stroke-width:.48863;fill:#555753" width="2.133" height="1.511" x="36.014" y="33.123"/><rect id="rect5247" style="stroke-linejoin:round;fill-rule:evenodd;color:#000;stroke:#222728;stroke-linecap:square;stroke-width:.48863;fill:#545755" width="3.724" height="1.511" x="38.312" y="33.123"/><rect id="rect5137" style="stroke-linejoin:round;fill-rule:evenodd;color:#000;stroke:#242e3c;stroke-linecap:square;stroke-width:.96843;fill:url(#linearGradient5426)" width="35.032" height="21.032" x="6.484" y="4.792" rx=".361" ry=".372"/><rect id="rect5149" style="stroke-linejoin:round;fill-rule:evenodd;color:#000;stroke:#222728;stroke-linecap:square;stroke-width:.48863;fill:#555753" width="2.133" height="1.511" x="11.373" y="35.244"/><rect id="rect5159" style="stroke-linejoin:round;fill-rule:evenodd;color:#000;stroke:#222728;stroke-linecap:square;stroke-width:.48863;fill:#555753" width="2.133" height="1.511" x="13.994" y="35.244"/><rect id="rect5163" style="stroke-linejoin:round;fill-rule:evenodd;color:#000;stroke:#222728;stroke-linecap:square;stroke-width:.48863;fill:#555753" width="12.414" height="1.511" x="16.623" y="35.244"/><rect id="rect5167" style="stroke-linejoin:round;fill-rule:evenodd;color:#000;stroke:#222728;stroke-linecap:square;stroke-width:.48863;fill:#555753" width="2.133" height="1.511" x="29.588" y="35.244"/><rect id="rect5171" style="stroke-linejoin:round;fill-rule:evenodd;color:#000;stroke:#222728;stroke-linecap:square;stroke-width:.48863;fill:#555753" width="2.133" height="1.511" x="32.213" y="35.244"/><rect id="rect5175" style="stroke-linejoin:round;fill-rule:evenodd;color:#000;stroke:#222728;stroke-linecap:square;stroke-width:.48863;fill:#555753" width="2.133" height="1.324" x="34.98" y="36.432"/><rect id="rect5183" style="stroke-linejoin:round;fill-rule:evenodd;color:#000;stroke:#222728;stroke-linecap:square;stroke-width:.48863;fill:#555753" width="2.133" height="1.199" x="37.369" y="35.182"/><rect id="rect5179" style="stroke-linejoin:round;fill-rule:evenodd;color:#000;stroke:#222728;stroke-linecap:square;stroke-width:.48863;fill:#555753" width="2.133" height="1.168" x="37.623" y="36.554"/><rect id="rect5187" style="stroke-linejoin:round;fill-rule:evenodd;color:#000;stroke:#222728;stroke-linecap:square;stroke-width:.48863;fill:#555753" width="2.133" height="1.23" x="40.244" y="36.526"/><rect id="rect5191" style="stroke-linejoin:round;fill-rule:evenodd;color:#000;stroke:#222728;stroke-linecap:square;stroke-width:.48863;fill:#555753" width="2.133" height="1.511" x="8.779" y="35.244"/><rect id="rect5195" style="stroke-linejoin:round;fill-rule:evenodd;color:#000;stroke:#222728;stroke-linecap:square;stroke-width:.48863;fill:#555753" width="2.133" height="1.511" x="6.154" y="35.244"/><g id="g5328" style="stroke-linejoin:round;fill-rule:evenodd;color:#000;stroke:#222728;stroke-linecap:square;stroke-width:.48863;fill:#555753" transform="translate(-1.4982 -2.9331)"><rect id="rect5330" style="stroke-linejoin:round;fill-rule:evenodd;color:#000;stroke:#222728;stroke-linecap:square;stroke-width:.48863;fill:#555753" width="2.178" height="1.511" x="8.495" y="33.123"/><rect id="rect5332" style="stroke-linejoin:round;fill-rule:evenodd;color:#000;stroke:#222728;stroke-linecap:square;stroke-width:.48863;fill:#555753" width="2.133" height="1.511" x="10.989" y="33.123"/><rect id="rect5334" style="stroke-linejoin:round;fill-rule:evenodd;color:#000;stroke:#222728;stroke-linecap:square;stroke-width:.48863;fill:#555753" width="2.133" height="1.511" x="13.475" y="33.123"/><rect id="rect5336" style="stroke-linejoin:round;fill-rule:evenodd;color:#000;stroke:#222728;stroke-linecap:square;stroke-width:.48863;fill:#555753" width="2.133" height="1.511" x="15.906" y="33.123"/><rect id="rect5338" style="stroke-linejoin:round;fill-rule:evenodd;color:#000;stroke:#222728;stroke-linecap:square;stroke-width:.48863;fill:#555753" width="2.133" height="1.511" x="18.513" y="33.123"/><rect id="rect5340" style="stroke-linejoin:round;fill-rule:evenodd;color:#000;stroke:#222728;stroke-linecap:square;stroke-width:.48863;fill:#555753" width="2.133" height="1.511" x="20.988" y="33.123"/><rect id="rect5342" style="stroke-linejoin:round;fill-rule:evenodd;color:#000;stroke:#222728;stroke-linecap:square;stroke-width:.48863;fill:#555753" width="2.133" height="1.511" x="23.463" y="33.123"/><rect id="rect5344" style="stroke-linejoin:round;fill-rule:evenodd;color:#000;stroke:#222728;stroke-linecap:square;stroke-width:.48863;fill:#555753" width="2.133" height="1.511" x="26.07" y="33.123"/><rect id="rect5346" style="stroke-linejoin:round;fill-rule:evenodd;color:#000;stroke:#222728;stroke-linecap:square;stroke-width:.48863;fill:#555753" width="2.133" height="1.511" x="28.59" y="33.123"/><rect id="rect5348" style="stroke-linejoin:round;fill-rule:evenodd;color:#000;stroke:#222728;stroke-linecap:square;stroke-width:.48863;fill:#555753" width="2.133" height="1.511" x="31.064" y="33.123"/><rect id="rect5350" style="stroke-linejoin:round;fill-rule:evenodd;color:#000;stroke:#222728;stroke-linecap:square;stroke-width:.48863;fill:#555753" width="2.133" height="1.511" x="33.495" y="33.123"/><rect id="rect5352" style="stroke-linejoin:round;fill-rule:evenodd;color:#000;stroke:#222728;stroke-linecap:square;stroke-width:.48863;fill:#555753" width="2.133" height="1.511" x="36.014" y="33.123"/><rect id="rect5354" style="stroke-linejoin:round;fill-rule:evenodd;color:#000;stroke:#222728;stroke-linecap:square;stroke-width:.48863;fill:#555753" width="2.133" height="1.511" x="38.489" y="33.123"/><rect id="rect5356" style="stroke-linejoin:round;fill-rule:evenodd;color:#000;stroke:#222728;stroke-linecap:square;stroke-width:.48863;fill:#555753" width="2.133" height="1.511" x="40.964" y="33.123"/></g><path id="path5386" style="opacity:.75;fill-rule:evenodd;color:#000;fill:#555753" d="m18.143 39.34-0.143 1.66h11l-0.071-1.538c-0.016-0.312-0.202-0.456-0.429-0.462h-10.071c-0.14332 0.0091-0.23763 0.12428-0.28571 0.33959z"/><path id="path5388" style="opacity:.75;fill-rule:evenodd;color:#000;fill:#555753" d="m18.143 41.731-0.143-0.731h11l-0.071 0.769c-0.025 0.219-0.259 0.204-0.429 0.231h-10.071c-0.11662 0.01608-0.21662-0.0501-0.28571-0.26923z"/><path id="path5398" style="fill-rule:evenodd;color:#000;fill:#2e3436" d="m1.591 43.05c0.098397 0.64389 0.00346 1.3706 0.88388 1.6794h42.426c0.49855-0.47604 0.92699-0.78294 1.1932-1.7236l-44.504 0.04419z"/><path id="path5410" style="opacity:.21839;fill-rule:evenodd;color:#000;fill:url(#linearGradient5418)" d="m7 5.424 0.1255 13.883c7.1195-4.224 26.594-6.457 33.874-6.65v-7.3496l-34 0.1166z"/><path id="rect5496" style="opacity:.12;fill-rule:evenodd;color:#000;stroke:#c7c8b0;fill:#f5f5e5" d="m1.6661 43h44.396c0 0.61936-0.4885 1-0.9375 1h-42.27c-0.91801 0-1.1875-1-1.1875-1z"/><path id="rect5733" style="opacity:.61494;fill-rule:evenodd;color:#000;fill:#000" d="m28.997 43.006 0.003 1.074c0 0.19138-0.15407 0.34544-0.34544 0.34544h-10.309c-0.192 0-0.346-0.154-0.346-0.345v-1.0825l10.997 0.0081z"/><rect id="rect5466" style="opacity:.27308;fill-rule:evenodd;color:#000;fill:#808285" width="5.313" height="1" x="23.688" y="42.425" rx=".157" ry=".345"/><rect id="rect3766" style="opacity:.27308;fill-rule:evenodd;color:#000;fill:#808285" width="5.438" height="1" x="18" y="42.425" rx=".157" ry=".345"/><path id="path4778" style="opacity:.27;fill-rule:evenodd;color:#000;fill:#888a85" d="m18.501 37.265-0.14789 1.2935h4.6464l-0.03128-1.1985c-0.006-0.243-0.088-0.355-0.187-0.36h-4.1545c-0.06276 0.0071-0.10406 0.09681-0.12512 0.26455z"/><path id="path4780" style="opacity:.27;fill-rule:evenodd;color:#000;fill:#888a85" d="m28.615 37.265 0.15319 1.2935h-4.8128l0.0324-1.1985c0.0069-0.2427 0.09163-0.35498 0.1944-0.35955h4.3032c0.06501 0.0071 0.10779 0.09681 0.1296 0.26455z"/><rect id="rect3781" style="opacity:.61923;fill-rule:evenodd;color:#000;fill:#808285" width="1.094" height="1.5" x="22.938" y="37" rx=".157" ry=".345"/></g></g><metadata/></svg>