<?xml version="1.0" encoding="utf-8"?>
<svg viewBox="11.634 142.389 474.219 142.907" xmlns="http://www.w3.org/2000/svg">
  <path d="M 305.83 254.147 C 278.272 274.459 238.329 285.296 203.939 285.296 C 155.718 285.296 112.307 267.461 79.465 237.798 C 76.885 235.466 79.197 232.286 82.294 234.103 C 117.736 254.725 161.56 267.131 206.829 267.131 C 237.359 267.131 270.944 260.815 301.826 247.706 C 306.491 245.725 310.392 250.761 305.83 254.147" id="path8" style="fill: rgb(255, 153, 0);"/>
  <path d="M 317.286 241.039 C 313.777 236.539 294.001 238.913 285.125 239.966 C 282.422 240.296 282.008 237.943 284.444 236.25 C 300.195 225.165 326.039 228.365 329.053 232.08 C 332.066 235.816 328.268 261.723 313.468 274.087 C 311.197 275.986 309.029 274.975 310.041 272.457 C 313.364 264.158 320.816 245.56 317.286 241.039" id="path10" style="fill: rgb(255, 153, 0);"/>
  <path d="M 285.745 157.995 L 285.745 147.22 C 285.745 145.589 286.984 144.494 288.469 144.494 L 336.711 144.494 C 338.259 144.494 339.497 145.609 339.497 147.22 L 339.497 156.447 C 339.477 157.995 338.177 160.017 335.864 163.217 L 310.867 198.908 C 320.156 198.681 329.961 200.064 338.383 204.812 C 340.282 205.885 340.798 207.454 340.943 209.002 L 340.943 220.5 C 340.943 222.069 339.208 223.906 337.392 222.956 C 322.55 215.174 302.837 214.328 286.426 223.039 C 284.754 223.947 282.999 222.131 282.999 220.562 L 282.999 209.642 C 282.999 207.887 283.02 204.895 284.775 202.232 L 313.736 160.699 L 288.532 160.699 C 286.984 160.699 285.745 159.605 285.745 157.995" id="path12" style=""/>
  <path d="M 109.768 225.227 L 95.092 225.227 C 93.688 225.124 92.573 224.071 92.47 222.729 L 92.47 147.405 C 92.47 145.898 93.729 144.701 95.298 144.701 L 108.984 144.701 C 110.408 144.763 111.544 145.857 111.647 147.22 L 111.647 157.066 L 111.915 157.066 C 115.486 147.549 122.195 143.112 131.237 143.112 C 140.422 143.112 146.16 147.549 150.289 157.066 C 153.84 147.549 161.911 143.112 170.56 143.112 C 176.711 143.112 183.441 145.65 187.549 151.348 C 192.193 157.685 191.244 166.891 191.244 174.963 L 191.223 222.503 C 191.223 224.009 189.964 225.227 188.395 225.227 L 173.739 225.227 C 172.274 225.124 171.097 223.947 171.097 222.503 L 171.097 182.58 C 171.097 179.401 171.386 171.475 170.684 168.46 C 169.59 163.403 166.308 161.979 162.055 161.979 C 158.505 161.979 154.789 164.353 153.282 168.151 C 151.775 171.949 151.92 178.307 151.92 182.58 L 151.92 222.503 C 151.92 224.009 150.661 225.227 149.092 225.227 L 134.436 225.227 C 132.95 225.124 131.794 223.947 131.794 222.503 L 131.773 182.58 C 131.773 174.178 133.156 161.813 122.731 161.813 C 112.183 161.813 112.596 173.869 112.596 182.58 L 112.596 222.503 C 112.596 224.009 111.337 225.227 109.768 225.227" id="path14" style=""/>
  <path d="M 381.03 143.112 C 402.808 143.112 414.595 161.813 414.595 185.594 C 414.595 208.568 401.569 226.796 381.03 226.796 C 359.645 226.796 348.003 208.094 348.003 184.788 C 348.003 161.339 359.79 143.112 381.03 143.112 M 381.154 158.49 C 370.337 158.49 369.656 173.229 369.656 182.414 C 369.656 191.621 369.512 211.273 381.03 211.273 C 392.404 211.273 392.941 195.419 392.941 185.759 C 392.941 179.401 392.673 171.804 390.753 165.777 C 389.101 160.534 385.819 158.49 381.154 158.49" id="path16" style=""/>
  <path d="M 442.834 225.227 L 428.218 225.227 C 426.753 225.124 425.577 223.947 425.577 222.503 L 425.556 147.157 C 425.68 145.775 426.898 144.701 428.384 144.701 L 441.987 144.701 C 443.267 144.763 444.32 145.63 444.609 146.806 L 444.609 158.325 L 444.877 158.325 C 448.985 148.024 454.744 143.112 464.879 143.112 C 471.465 143.112 477.884 145.486 482.012 151.988 C 485.853 158.015 485.853 168.151 485.853 175.437 L 485.853 222.853 C 485.687 224.174 484.469 225.227 483.024 225.227 L 468.307 225.227 C 466.964 225.124 465.85 224.133 465.705 222.853 L 465.705 181.94 C 465.705 173.704 466.655 161.648 456.52 161.648 C 452.948 161.648 449.666 164.043 448.036 167.676 C 445.971 172.279 445.703 176.862 445.703 181.94 L 445.703 222.503 C 445.682 224.009 444.402 225.227 442.834 225.227" id="path18" style=""/>
  <path d="M 247.288 189.247 L 247.288 186.068 C 236.678 186.068 225.469 188.339 225.469 200.848 C 225.469 207.186 228.751 211.479 234.386 211.479 C 238.515 211.479 242.21 208.94 244.543 204.812 C 247.432 199.733 247.288 194.965 247.288 189.247 M 262.088 225.021 C 261.118 225.887 259.714 225.95 258.621 225.372 C 253.749 221.325 252.882 219.448 250.198 215.587 C 242.148 223.802 236.451 226.259 226.006 226.259 C 213.661 226.259 204.042 218.642 204.042 203.388 C 204.042 191.477 210.503 183.364 219.689 179.401 C 227.657 175.892 238.783 175.272 247.288 174.302 L 247.288 172.403 C 247.288 168.915 247.557 164.786 245.513 161.773 C 243.717 159.068 240.29 157.954 237.277 157.954 C 231.682 157.954 226.687 160.823 225.469 166.768 C 225.221 168.089 224.251 169.39 222.93 169.451 L 208.686 167.923 C 207.49 167.655 206.168 166.685 206.498 164.848 C 209.781 147.591 225.365 142.389 239.32 142.389 C 246.462 142.389 255.793 144.288 261.428 149.697 C 268.57 156.364 267.889 165.261 267.889 174.942 L 267.889 197.814 C 267.889 204.687 270.738 207.702 273.421 211.417 C 274.371 212.738 274.577 214.328 273.38 215.319 C 270.387 217.816 265.061 222.461 262.13 225.062 L 262.088 225.021" id="use28" style=""/>
  <path d="M 54.88 189.247 L 54.88 186.068 C 44.27 186.068 33.061 188.339 33.061 200.848 C 33.061 207.186 36.343 211.479 41.979 211.479 C 46.107 211.479 49.802 208.94 52.135 204.812 C 55.025 199.733 54.88 194.965 54.88 189.247 M 69.681 225.021 C 68.711 225.887 67.307 225.95 66.213 225.372 C 61.341 221.325 60.474 219.448 57.791 215.587 C 49.74 223.802 44.043 226.259 33.598 226.259 C 21.253 226.259 11.634 218.642 11.634 203.388 C 11.634 191.477 18.095 183.364 27.281 179.401 C 35.249 175.892 46.375 175.272 54.88 174.302 L 54.88 172.403 C 54.88 168.915 55.148 164.786 53.105 161.773 C 51.309 159.068 47.882 157.954 44.868 157.954 C 39.275 157.954 34.279 160.823 33.061 166.768 C 32.814 168.089 31.843 169.39 30.522 169.451 L 16.279 167.923 C 15.081 167.655 13.761 166.685 14.091 164.848 C 17.373 147.591 32.958 142.389 46.912 142.389 C 54.054 142.389 63.385 144.288 69.02 149.697 C 76.162 156.364 75.481 165.261 75.481 174.942 L 75.481 197.814 C 75.481 204.687 78.33 207.702 81.013 211.417 C 81.963 212.738 82.169 214.328 80.972 215.319 C 77.979 217.816 72.653 222.461 69.722 225.062 L 69.681 225.021" id="path30" style=""/>
</svg>