<svg xmlns="http://www.w3.org/2000/svg" width="199" height="59.508" viewBox="0 0 199 59.508"><path d="M220.664,120.149c-10.343,0-19.452-4.062-19.452-14.948,0-11.025,9.29-14.949,19.452-14.949,10.375,0,19.326,4.063,19.326,14.948,0,11.241-9.5,14.949-19.326,14.949m0-24.107c-8.064,0-11.943,3.569-11.944,9.157,0,5.433,3.622,9.159,11.944,9.159,8.686,0,11.86-4.06,11.86-9.157,0-5.668-3.863-9.159-11.86-9.16" transform="translate(-168.089 -90.252)" fill="#0023c9"/><path d="M369.236,120.813l-6.359-7.187c-1.82-1.905-2.148-2.249-5.533-2.249h-6.487l0,8.752a1.032,1.032,0,0,1-1.033,1.032h-5.308a1.033,1.033,0,0,1-1.031-1.035V95.061a2.245,2.245,0,0,1,2.237-2.256h19.025c7.29.009,11.3,3.261,11.3,9.266,0,6.085-5.1,8.125-6.475,8.555l8.047,10.163a.229.229,0,0,1-.18.372h-7.437a1.03,1.03,0,0,1-.773-.348m-5.555-15.134H350.855V99.133h12.826c4.055,0,4.906,1.78,4.906,3.273s-.851,3.273-4.906,3.273" transform="translate(-266.894 -92.025)" fill="#0023c9" fill-rule="evenodd"/><path d="M124.617,93.837v4.947a.4.4,0,0,1-.4.4l-24.044-.013c0,1.138,0,1.606,1.817,1.767l14.46,1.28c5.494.478,5.5,9.235.014,9.736-4.44.405-11.505,1.008-13.783,1.207-1.619.141-2.508.614-2.508,1.807l0,5.159a1.03,1.03,0,0,1-1.033,1.031H93.815a1.012,1.012,0,0,1-1.009-1.034v-7.021c0-2.512.839-4.11,2.844-4.3,2.4-.228,17.147-1.073,17.147-1.073a.552.552,0,0,0-.011-1.013s-14.338-.71-17.04-.951c-2.326-.207-2.945-1.954-2.94-4.362V95.05A2.262,2.262,0,0,1,95.07,92.8h28.515a1.033,1.033,0,0,1,1.032,1.032" transform="translate(-92.806 -92.025)" fill="#0023c9"/><path d="M588.435,92.8a2.241,2.241,0,0,0-2.243,2.234v25.086a1.028,1.028,0,0,0,1.025,1.035h5.308a1.032,1.032,0,0,0,1.034-1.032V93.84a1.033,1.033,0,0,0-1.031-1.035Z" transform="translate(-435.442 -92.025)" fill="#0023c9"/><path d="M628.694,120.587l2.415-4.866h16.271l1.049,2.115a5.987,5.987,0,0,0,5.364,3.326h4.131a.229.229,0,0,0,.2-.335L643.748,93.361a1.032,1.032,0,0,0-.915-.555h-6.443a2.245,2.245,0,0,0-1.991,1.207l-14.037,26.813a.229.229,0,0,0,.2.335h7.2a1.032,1.032,0,0,0,.925-.575M633.7,110.5l5.588-11.22,5.543,11.22Z" transform="translate(-459.153 -92.026)" fill="#0023c9"/><path d="M482.822,93.38a1.032,1.032,0,0,1,.926-.575h7.2a.229.229,0,0,1,.2.335l-14.378,27.465a1.033,1.033,0,0,1-.916.556h-6.444a2.245,2.245,0,0,1-1.989-1.2L453.389,93.14a.229.229,0,0,1,.2-.335h7.2a1.033,1.033,0,0,1,.924.57l10.594,21.3Z" transform="translate(-343.197 -92.025)" fill="#0023c9"/><rect width="1.992" height="14.752" transform="translate(37.178 39.896)" fill="#0023c9"/><path d="M237.408,232.014a4.76,4.76,0,0,0-2.093.455,3.556,3.556,0,0,0-1.32,1.069l-.239-1.327h-1.621v11.138h1.952v-5.835a4.517,4.517,0,0,1,.752-2.93,2.979,2.979,0,0,1,2.37-.864,2.318,2.318,0,0,1,1.771.6,2.689,2.689,0,0,1,.561,1.868v7.159H241.5V236.13A4.177,4.177,0,0,0,240.46,233a4.276,4.276,0,0,0-3.051-.986" transform="translate(-189.565 -188.7)" fill="#0023c9"/><path d="M275.336,236.893a15.927,15.927,0,0,1-1.874-.79,2.044,2.044,0,0,1-.666-.538,1.063,1.063,0,0,1-.192-.648.976.976,0,0,1,.518-.874,3.273,3.273,0,0,1,1.676-.342,7.726,7.726,0,0,1,2.893.66l.142.058.708-1.619-.146-.062a8.846,8.846,0,0,0-3.478-.723,5.191,5.191,0,0,0-3.044.794,2.589,2.589,0,0,0-1.142,2.216,2.647,2.647,0,0,0,.333,1.353,3.1,3.1,0,0,0,1,1,11.557,11.557,0,0,0,2.178,1,8.54,8.54,0,0,1,2.1,1.037,1.255,1.255,0,0,1-.123,2.076,3.785,3.785,0,0,1-1.9.387,6.863,6.863,0,0,1-1.685-.222,8,8,0,0,1-1.642-.611l-.228-.115V242.8l.079.045a7.049,7.049,0,0,0,3.435.7,5.461,5.461,0,0,0,3.253-.85,2.873,2.873,0,0,0,1.19-2.458,2.652,2.652,0,0,0-.72-1.895,7.142,7.142,0,0,0-2.661-1.451" transform="translate(-216.367 -188.7)" fill="#0023c9"/><path d="M309.994,232.013a4.65,4.65,0,0,0-1.993.41,3.861,3.861,0,0,0-1.372,1.121l-.2-1.334H304.8v16h1.952V243.6a14.252,14.252,0,0,0-.078-1.446,3.748,3.748,0,0,0,1.324.992,4.863,4.863,0,0,0,1.995.4,4.175,4.175,0,0,0,3.426-1.535,7.987,7.987,0,0,0,.02-8.467,4.167,4.167,0,0,0-3.446-1.53m2.639,5.737a5.262,5.262,0,0,1-.767,3.041,2.37,2.37,0,0,1-2.069,1.069,2.758,2.758,0,0,1-2.316-.922,5.305,5.305,0,0,1-.728-3.168v-.364a4.6,4.6,0,0,1,.726-2.827,2.772,2.772,0,0,1,2.278-.861,2.446,2.446,0,0,1,2.111,1.018,5.06,5.06,0,0,1,.765,3.013" transform="translate(-240.028 -188.699)" fill="#0023c9"/><rect width="1.952" height="11.138" transform="translate(77.03 43.511)" fill="#0023c9"/><path d="M345.585,219.5a1.12,1.12,0,0,0-.8.3,1.239,1.239,0,0,0-.325.938,1.261,1.261,0,0,0,.323.936,1.16,1.16,0,0,0,1.591,0,1.238,1.238,0,0,0,.335-.938,1.223,1.223,0,0,0-.336-.935,1.124,1.124,0,0,0-.788-.308" transform="translate(-267.57 -180.012)" fill="#0023c9"/><path d="M367.206,232.014a3.436,3.436,0,0,0-1.954.6A4.759,4.759,0,0,0,363.93,234l-.167-1.789h-1.652v11.138h1.952v-5.964a3.755,3.755,0,0,1,.895-2.554,2.712,2.712,0,0,1,2.129-1.013,5.453,5.453,0,0,1,1.151.144l.164.036.274-1.833-.145-.03a6.569,6.569,0,0,0-1.325-.122" transform="translate(-279.827 -188.7)" fill="#0023c9"/><path d="M388.9,219.5a1.12,1.12,0,0,0-.8.3,1.239,1.239,0,0,0-.325.938,1.261,1.261,0,0,0,.323.936,1.16,1.16,0,0,0,1.591,0,1.237,1.237,0,0,0,.335-.938,1.222,1.222,0,0,0-.336-.935,1.124,1.124,0,0,0-.788-.308" transform="translate(-297.65 -180.012)" fill="#0023c9"/><rect width="1.952" height="11.138" transform="translate(90.264 43.511)" fill="#0023c9"/><path d="M410.7,232.014a4.76,4.76,0,0,0-2.093.455,3.559,3.559,0,0,0-1.32,1.069l-.239-1.327h-1.621v11.138h1.952v-5.835a4.517,4.517,0,0,1,.752-2.93,2.979,2.979,0,0,1,2.37-.864,2.318,2.318,0,0,1,1.772.6,2.69,2.69,0,0,1,.561,1.868v7.159h1.952V236.13a4.177,4.177,0,0,0-1.036-3.13,4.276,4.276,0,0,0-3.051-.986" transform="translate(-309.907 -188.7)" fill="#0023c9"/><path d="M446.5,232.014a4.525,4.525,0,0,0-3.127,1,3.667,3.667,0,0,0-1.118,2.857,3.624,3.624,0,0,0,.553,1.981,3.137,3.137,0,0,0,1.177,1.112,3.168,3.168,0,0,0-.8.747,1.9,1.9,0,0,0-.345,1.127,1.7,1.7,0,0,0,.31,1.01,1.975,1.975,0,0,0,.424.437,3.213,3.213,0,0,0-1.5.929,2.668,2.668,0,0,0-.671,1.812,2.711,2.711,0,0,0,1.219,2.362,5.923,5.923,0,0,0,3.363.817,7.905,7.905,0,0,0,4.293-.969,3.234,3.234,0,0,0,1.512-2.871,2.734,2.734,0,0,0-1-2.276,4.459,4.459,0,0,0-2.8-.774h-1.916a2.547,2.547,0,0,1-1.176-.192.549.549,0,0,1-.287-.521,1.432,1.432,0,0,1,.917-1.229,5.177,5.177,0,0,0,.882.072,4.553,4.553,0,0,0,3.086-.987,3.363,3.363,0,0,0,1.14-2.656,3.621,3.621,0,0,0-.228-1.316,4.076,4.076,0,0,0-.359-.722l1.881-.222v-1.333h-3.878a5.7,5.7,0,0,0-1.553-.2m-.039,5.965a2.424,2.424,0,0,1-1.682-.542,2.065,2.065,0,0,1-.591-1.6,2.366,2.366,0,0,1,.577-1.736,2.264,2.264,0,0,1,1.667-.577A2,2,0,0,1,448.7,235.8c0,1.463-.734,2.174-2.243,2.174m2.52,8.068a5.808,5.808,0,0,1-2.974.594,3.958,3.958,0,0,1-2.042-.432,1.31,1.31,0,0,1-.666-1.2,1.743,1.743,0,0,1,.568-1.412,2.451,2.451,0,0,1,1.637-.5h1.965a4.125,4.125,0,0,1,1.961.317,1.173,1.173,0,0,1,.47,1.087,1.728,1.728,0,0,1-.918,1.541" transform="translate(-334.891 -188.7)" fill="#0023c9"/><path d="M511.9,232.014a4.526,4.526,0,0,0-2.168.512,3.65,3.65,0,0,0-1.354,1.223,3.42,3.42,0,0,0-3.372-1.735,4.173,4.173,0,0,0-1.964.462,3.42,3.42,0,0,0-1.214,1.051l-.237-1.316h-1.62v11.138h1.952v-5.835a4.885,4.885,0,0,1,.683-2.931,2.541,2.541,0,0,1,2.133-.863,2.016,2.016,0,0,1,1.609.592,2.791,2.791,0,0,1,.516,1.839v7.2h1.952v-6.2a4.051,4.051,0,0,1,.695-2.606,2.64,2.64,0,0,1,2.141-.823,2,2,0,0,1,1.6.592,2.791,2.791,0,0,1,.516,1.839v7.2h1.952V236.13a4.383,4.383,0,0,0-.958-3.126,3.831,3.831,0,0,0-2.863-.991" transform="translate(-375.567 -188.7)" fill="#0023c9"/><path d="M563.6,232.014a4.85,4.85,0,0,0-3.79,1.528,6.14,6.14,0,0,0-1.363,4.228,7,7,0,0,0,.628,3.05,4.673,4.673,0,0,0,1.8,2.022,5.052,5.052,0,0,0,2.658.7,4.865,4.865,0,0,0,3.8-1.538,7.146,7.146,0,0,0,0-8.431,4.748,4.748,0,0,0-3.727-1.563m-2.355,2.7a2.715,2.715,0,0,1,2.3-1,2.764,2.764,0,0,1,2.341,1.011,4.909,4.909,0,0,1,.8,3.04,4.989,4.989,0,0,1-.8,3.07,3.138,3.138,0,0,1-4.636,0,5.015,5.015,0,0,1-.8-3.065,4.963,4.963,0,0,1,.787-3.055" transform="translate(-416.173 -188.7)" fill="#0023c9"/><path d="M604.235,222.155a4.105,4.105,0,0,0-3.292,1.385c.034-.563.051-1.187.051-1.861v-3.89h-1.953V233.47H600.5l.326-1.312a3.77,3.77,0,0,0,1.419,1.106,4.862,4.862,0,0,0,1.994.4,4.176,4.176,0,0,0,3.426-1.535,7.948,7.948,0,0,0,.009-8.464,4.191,4.191,0,0,0-3.435-1.514M604,223.841a2.457,2.457,0,0,1,2.164.972,5.32,5.32,0,0,1,.712,3.06,5.541,5.541,0,0,1-.714,3.078,2.361,2.361,0,0,1-2.121,1.032,2.758,2.758,0,0,1-2.316-.922,7.307,7.307,0,0,1-.02-6.317,2.727,2.727,0,0,1,2.3-.9" transform="translate(-444.365 -178.821)" fill="#0023c9"/><path d="M640.279,219.5a1.118,1.118,0,0,0-.8.3,1.238,1.238,0,0,0-.326.938,1.259,1.259,0,0,0,.324.936,1.1,1.1,0,0,0,.8.317,1.112,1.112,0,0,0,.79-.315,1.239,1.239,0,0,0,.335-.938,1.225,1.225,0,0,0-.336-.935,1.125,1.125,0,0,0-.788-.308" transform="translate(-472.223 -180.012)" fill="#0023c9"/><rect width="1.953" height="11.138" transform="translate(167.071 43.511)" fill="#0023c9"/><rect width="1.953" height="15.681" transform="translate(172.325 38.968)" fill="#0023c9"/><path d="M674.448,219.5a1.118,1.118,0,0,0-.8.3,1.238,1.238,0,0,0-.326.938,1.259,1.259,0,0,0,.324.936,1.1,1.1,0,0,0,.8.317,1.112,1.112,0,0,0,.789-.315,1.239,1.239,0,0,0,.335-.938,1.225,1.225,0,0,0-.336-.935,1.124,1.124,0,0,0-.788-.308" transform="translate(-495.951 -180.012)" fill="#0023c9"/><rect width="1.953" height="11.138" transform="translate(177.511 43.511)" fill="#0023c9"/><path d="M691.733,236.563a5.178,5.178,0,0,1-.815.062,1.452,1.452,0,0,1-1.157-.471,2.051,2.051,0,0,1-.425-1.4v-6.214h3.141v-1.587h-3.141v-2.509h-1.221l-.7,2.354-1.577.693v1.049h1.55v6.283c0,2.3,1.109,3.465,3.3,3.465a6.036,6.036,0,0,0,.959-.086,3.1,3.1,0,0,0,.828-.226l.089-.043v-1.561l-.2.058a5.325,5.325,0,0,1-.624.129" transform="translate(-504.639 -183.445)" fill="#0023c9"/><path d="M717.9,232.659l-.037.1c-1.509,4.172-2.412,6.7-2.683,7.5-.179.535-.32.97-.419,1.3-.166-.634-.458-1.517-.871-2.636l-2.409-6.273h-2.1l4.428,11.041-.581,1.485a2.343,2.343,0,0,1-2.263,1.8,5.56,5.56,0,0,1-1.181-.115l-.19-.042v1.633l.122.028a6.775,6.775,0,0,0,1.517.172,3.6,3.6,0,0,0,2.366-.8,6.327,6.327,0,0,0,1.662-2.658l4.731-12.537Z" transform="translate(-520.992 -189.148)" fill="#0023c9"/></svg>