<svg xmlns="http://www.w3.org/2000/svg" viewBox="12.073 121.615 471.164 140.921"><path fill="#0023c9" d="M 136.553 192.401 C 112.065 192.401 90.498 182.783 90.498 157.009 C 90.498 130.906 112.493 121.615 136.553 121.615 C 161.118 121.615 182.311 131.235 182.311 157.007 C 182.311 183.621 159.818 192.401 136.553 192.401 M 136.553 135.324 C 117.461 135.324 108.277 143.774 108.274 157.004 C 108.274 169.868 116.85 178.69 136.553 178.69 C 157.119 178.69 164.634 169.077 164.634 157.009 C 164.634 143.589 155.488 135.324 136.553 135.321"/><path fill="#0023c9" fill-rule="evenodd" d="M 254.384 189.775 L 239.328 172.759 C 235.019 168.248 234.243 167.434 226.228 167.434 L 210.869 167.434 L 210.869 188.155 C 210.869 189.505 209.773 190.599 208.423 190.599 L 195.856 190.599 C 194.504 190.596 193.413 189.498 193.415 188.148 L 193.415 128.803 C 193.401 125.865 195.773 123.471 198.711 123.462 L 243.756 123.462 C 261.016 123.483 270.51 131.183 270.51 145.4 C 270.51 159.808 258.435 164.638 255.18 165.656 L 274.232 189.718 C 274.493 190.042 274.303 190.53 273.891 190.592 C 273.863 190.596 273.835 190.599 273.806 190.599 L 256.198 190.599 C 255.497 190.599 254.832 190.298 254.368 189.775 M 241.215 153.943 L 210.865 153.943 L 210.865 138.444 L 241.232 138.444 C 250.833 138.444 252.848 142.659 252.848 146.194 C 252.848 149.728 250.833 153.943 241.232 153.943"/><path fill="#0023c9" d="M 87.392 125.905 L 87.392 137.618 C 87.392 138.141 86.968 138.565 86.445 138.565 L 29.517 138.534 C 29.517 141.229 29.517 142.337 33.819 142.718 L 68.055 145.748 C 81.063 146.88 81.077 167.614 68.088 168.8 C 57.576 169.759 40.848 171.186 35.455 171.658 C 31.622 171.991 29.517 173.111 29.517 175.936 L 29.517 188.151 C 29.519 189.5 28.421 190.594 27.071 190.592 L 14.463 190.592 C 13.123 190.587 12.046 189.484 12.074 188.144 L 12.074 171.52 C 12.074 165.573 14.061 161.789 18.808 161.339 C 24.49 160.8 59.406 158.799 59.406 158.799 C 60.325 158.389 60.455 157.137 59.64 156.547 C 59.56 156.488 59.472 156.438 59.38 156.401 C 59.38 156.401 25.433 154.719 19.035 154.149 C 13.528 153.659 12.062 149.522 12.074 143.821 L 12.074 128.777 C 12.091 125.827 14.487 123.448 17.435 123.45 L 84.948 123.45 C 86.298 123.45 87.389 124.544 87.392 125.893"/><path fill="#0023c9" d="M 374.308 123.45 C 371.382 123.448 369.007 125.813 368.997 128.739 L 368.997 188.134 C 368.988 189.481 370.077 190.58 371.424 190.585 L 383.992 190.585 C 385.344 190.587 386.44 189.491 386.44 188.141 L 386.44 125.912 C 386.442 124.56 385.351 123.464 383.999 123.462 L 374.308 123.45 Z"/><path fill="#0023c9" d="M 413.488 189.237 L 419.206 177.716 L 457.73 177.716 L 460.214 182.724 C 462.607 187.547 467.527 190.599 472.914 190.599 L 482.694 190.599 C 483.099 190.592 483.355 190.163 483.168 189.806 L 449.131 124.776 C 448.709 123.968 447.876 123.462 446.964 123.462 L 431.709 123.462 C 429.728 123.462 427.912 124.563 426.995 126.32 L 393.761 189.803 C 393.574 190.161 393.829 190.589 394.234 190.596 L 411.281 190.596 C 412.212 190.596 413.059 190.068 413.471 189.235 M 425.34 165.355 L 438.571 138.79 L 451.695 165.355 L 425.34 165.355 Z"/><path fill="#0023c9" d="M 342.657 124.823 C 343.069 123.987 343.919 123.459 344.85 123.462 L 361.897 123.462 C 362.302 123.466 362.557 123.895 362.37 124.255 L 328.328 189.282 C 327.907 190.09 327.071 190.599 326.16 190.599 L 310.902 190.599 C 308.928 190.599 307.112 189.505 306.193 187.758 L 272.97 124.255 C 272.783 123.895 273.039 123.466 273.444 123.462 L 290.491 123.462 C 291.417 123.459 292.264 123.983 292.679 124.811 L 317.762 175.242 L 342.657 124.823 Z"/><rect width="4.716" height="34.928" x="100.099" y="216.075" fill="#0023c9"/><path fill="#0023c9" d="M 125.35 224.167 C 123.638 224.144 121.943 224.513 120.394 225.245 C 119.163 225.822 118.091 226.691 117.269 227.776 L 116.703 224.634 L 112.865 224.634 L 112.865 251.005 L 117.487 251.005 L 117.487 237.189 C 117.264 234.741 117.894 232.291 119.267 230.252 C 120.742 228.772 122.797 228.022 124.879 228.207 C 126.413 228.069 127.935 228.585 129.072 229.627 C 130.052 230.882 130.525 232.461 130.4 234.05 L 130.4 251 L 135.038 251 L 135.038 233.913 C 135.268 231.209 134.378 228.529 132.576 226.502 C 130.561 224.816 127.971 223.978 125.352 224.167"/><path fill="#0023c9" d="M 151.692 235.719 C 150.175 235.191 148.692 234.566 147.255 233.849 C 146.647 233.539 146.109 233.105 145.678 232.575 C 145.364 232.125 145.205 231.588 145.224 231.041 C 145.212 230.174 145.686 229.376 146.45 228.971 C 147.677 228.353 149.048 228.074 150.418 228.162 C 152.781 228.235 155.106 228.765 157.268 229.724 L 157.604 229.862 L 159.281 226.028 L 158.935 225.882 C 156.333 224.759 153.532 224.177 150.7 224.17 C 148.162 224.035 145.643 224.693 143.493 226.05 C 141.753 227.219 140.735 229.199 140.789 231.296 C 140.761 232.414 141.033 233.522 141.578 234.5 C 142.174 235.461 142.984 236.271 143.945 236.867 C 145.577 237.833 147.305 238.627 149.102 239.235 C 150.864 239.82 152.537 240.646 154.074 241.69 C 155.746 242.969 155.594 245.531 153.783 246.606 C 152.388 247.295 150.838 247.612 149.284 247.522 C 147.937 247.512 146.597 247.335 145.295 246.996 C 143.95 246.658 142.645 246.172 141.407 245.55 L 140.867 245.277 L 140.867 249.705 L 141.054 249.811 C 143.583 251.04 146.379 251.608 149.187 251.469 C 151.903 251.625 154.597 250.919 156.889 249.456 C 158.75 248.114 159.809 245.926 159.707 243.637 C 159.754 241.974 159.141 240.36 158.002 239.15 C 156.172 237.566 154.024 236.394 151.702 235.714"/><path fill="#0023c9" d="M 177.729 224.167 C 176.105 224.139 174.493 224.47 173.011 225.138 C 171.737 225.758 170.624 226.668 169.762 227.792 L 169.289 224.634 L 165.432 224.634 L 165.432 262.516 L 170.053 262.516 L 170.053 251.601 C 170.051 250.458 169.987 249.314 169.869 248.178 C 170.726 249.184 171.796 249.987 173.003 250.526 C 174.493 251.17 176.103 251.495 177.727 251.473 C 180.855 251.613 183.861 250.266 185.838 247.839 C 189.686 241.714 189.705 233.934 185.886 227.792 C 183.899 225.351 180.869 224.006 177.727 224.17 M 183.975 237.753 C 184.115 240.282 183.483 242.794 182.159 244.953 C 181.082 246.596 179.223 247.555 177.26 247.484 C 175.189 247.671 173.153 246.859 171.777 245.301 C 170.432 243.042 169.828 240.419 170.053 237.8 L 170.053 236.938 C 169.885 234.58 170.489 232.229 171.772 230.245 C 173.16 228.77 175.151 228.017 177.166 228.207 C 179.133 228.107 181.016 229.014 182.164 230.617 C 183.502 232.745 184.134 235.241 183.975 237.751"/><rect width="4.622" height="26.371" x="194.454" y="224.634" fill="#0023c9"/><path fill="#0023c9" d="M 196.786 215.109 C 196.086 215.085 195.406 215.341 194.892 215.819 C 194.338 216.418 194.059 217.223 194.123 218.04 C 194.066 218.852 194.341 219.652 194.888 220.256 C 195.946 221.253 197.596 221.253 198.655 220.256 C 199.218 219.659 199.507 218.852 199.448 218.035 C 199.507 217.218 199.218 216.413 198.652 215.821 C 198.148 215.343 197.48 215.083 196.786 215.092"/><path fill="#0023c9" d="M 218.957 224.167 C 217.307 224.16 215.692 224.655 214.331 225.588 C 213.076 226.457 212.01 227.574 211.201 228.87 L 210.805 224.634 L 206.894 224.634 L 206.894 251.005 L 211.516 251.005 L 211.516 236.884 C 211.447 234.675 212.202 232.518 213.635 230.837 C 214.861 229.31 216.717 228.427 218.675 228.439 C 219.594 228.455 220.508 228.569 221.401 228.78 L 221.789 228.865 L 222.438 224.525 L 222.094 224.454 C 221.062 224.25 220.011 224.153 218.957 224.165"/><path fill="#0023c9" d="M 228.122 215.109 C 227.421 215.085 226.742 215.341 226.228 215.819 C 225.674 216.418 225.395 217.223 225.459 218.04 C 225.402 218.852 225.677 219.652 226.223 220.256 C 227.282 221.253 228.932 221.253 229.99 220.256 C 230.554 219.659 230.843 218.852 230.784 218.035 C 230.843 217.216 230.554 216.413 229.988 215.821 C 229.484 215.343 228.816 215.083 228.122 215.092"/><rect width="4.622" height="26.371" x="225.788" y="224.634" fill="#0023c9"/><path fill="#0023c9" d="M 250.717 224.167 C 249.005 224.144 247.31 224.513 245.761 225.245 C 244.53 225.822 243.458 226.691 242.636 227.776 L 242.07 224.634 L 238.232 224.634 L 238.232 251.005 L 242.854 251.005 L 242.854 237.189 C 242.631 234.741 243.261 232.291 244.634 230.252 C 246.109 228.772 248.164 228.022 250.246 228.207 C 251.782 228.069 253.305 228.585 254.441 229.627 C 255.421 230.882 255.895 232.461 255.769 234.05 L 255.769 251 L 260.391 251 L 260.391 233.913 C 260.623 231.209 259.738 228.531 257.938 226.502 C 255.923 224.816 253.333 223.978 250.714 224.167"/><path fill="#0023c9" d="M 276.325 224.167 C 273.647 224.002 271.005 224.847 268.922 226.535 C 267.094 228.294 266.125 230.766 266.275 233.299 C 266.249 234.957 266.703 236.586 267.584 237.99 C 268.266 239.095 269.227 240.002 270.371 240.623 C 269.641 241.096 269 241.695 268.477 242.391 C 267.927 243.17 267.643 244.105 267.66 245.059 C 267.643 245.914 267.901 246.75 268.394 247.451 C 268.673 247.844 269.012 248.194 269.398 248.485 C 268.031 248.871 266.803 249.634 265.846 250.685 C 264.8 251.866 264.231 253.396 264.257 254.975 C 264.177 257.215 265.271 259.334 267.144 260.568 C 269.547 261.991 272.319 262.663 275.106 262.502 C 278.643 262.715 282.169 261.92 285.27 260.208 C 287.595 258.747 288.961 256.154 288.85 253.41 C 288.971 251.339 288.09 249.333 286.483 248.021 C 284.539 246.686 282.207 246.042 279.853 246.189 L 275.317 246.189 C 274.365 246.26 273.411 246.104 272.532 245.734 C 272.082 245.49 271.817 245.01 271.853 244.501 C 271.952 243.191 272.797 242.057 274.024 241.591 C 274.713 241.707 275.411 241.764 276.112 241.761 C 278.752 241.903 281.352 241.072 283.419 239.424 C 285.218 237.841 286.21 235.53 286.118 233.136 C 286.132 232.073 285.95 231.015 285.578 230.02 C 285.353 229.424 285.067 228.851 284.728 228.311 L 289.182 227.785 L 289.182 224.629 L 280 224.629 C 278.802 224.302 277.564 224.144 276.323 224.156 M 276.231 238.279 C 274.789 238.366 273.368 237.909 272.248 236.995 C 271.259 235.991 270.747 234.611 270.849 233.207 C 270.735 231.708 271.228 230.229 272.215 229.097 C 273.292 228.126 274.715 227.634 276.162 227.731 C 279.313 227.264 282.015 229.982 281.534 233.131 C 281.534 236.595 279.796 238.279 276.223 238.279 M 282.19 257.381 C 280.009 258.465 277.578 258.95 275.149 258.787 C 273.475 258.884 271.805 258.531 270.314 257.764 C 269.293 257.189 268.685 256.09 268.737 254.923 C 268.649 253.661 269.144 252.428 270.082 251.58 C 271.19 250.732 272.565 250.311 273.958 250.396 L 278.61 250.396 C 280.196 250.264 281.79 250.522 283.253 251.147 C 284.063 251.741 284.487 252.724 284.366 253.72 C 284.378 255.245 283.542 256.652 282.192 257.369"/><path fill="#0023c9" d="M 334.863 224.167 C 333.078 224.137 331.314 224.553 329.73 225.38 C 328.433 226.057 327.332 227.054 326.524 228.275 C 324.935 225.42 321.787 223.8 318.54 224.167 C 316.923 224.146 315.328 224.52 313.89 225.261 C 312.749 225.851 311.764 226.703 311.016 227.75 L 310.455 224.634 L 306.619 224.634 L 306.619 251.005 L 311.241 251.005 L 311.241 237.189 C 311.037 234.763 311.603 232.333 312.858 230.25 C 314.12 228.801 315.995 228.043 317.908 228.207 C 319.324 228.083 320.719 228.597 321.718 229.608 C 322.625 230.87 323.058 232.412 322.94 233.962 L 322.94 251.009 L 327.561 251.009 L 327.561 236.33 C 327.388 234.145 327.968 231.966 329.207 230.16 C 330.511 228.77 332.377 228.053 334.276 228.211 C 335.685 228.088 337.074 228.602 338.064 229.613 C 338.971 230.875 339.404 232.416 339.286 233.967 L 339.286 251.014 L 343.907 251.014 L 343.907 233.913 C 344.135 231.244 343.323 228.592 341.639 226.511 C 339.797 224.83 337.347 223.983 334.861 224.165"/><path fill="#0023c9" d="M 361.13 224.167 C 357.751 223.992 354.47 225.316 352.156 227.785 C 349.869 230.603 348.719 234.173 348.929 237.796 C 348.877 240.284 349.384 242.751 350.416 245.017 C 351.332 246.999 352.817 248.663 354.678 249.804 C 356.581 250.927 358.76 251.5 360.971 251.462 C 364.359 251.632 367.653 250.299 369.968 247.82 C 374.31 241.875 374.31 233.804 369.968 227.859 C 367.724 225.372 364.489 224.016 361.144 224.158 M 355.568 230.551 C 356.889 228.919 358.921 228.036 361.014 228.183 C 363.14 228.029 365.209 228.922 366.556 230.577 C 367.96 232.703 368.626 235.231 368.451 237.774 C 368.626 240.338 367.963 242.891 366.556 245.043 C 363.611 248.27 358.525 248.27 355.58 245.043 C 354.181 242.891 353.518 240.346 353.686 237.786 C 353.504 235.236 354.157 232.696 355.549 230.553"/><path fill="#0023c9" d="M 390.59 224.215 C 387.628 224.061 384.757 225.268 382.796 227.494 C 382.877 226.161 382.917 224.684 382.917 223.088 L 382.917 213.878 L 378.293 213.878 L 378.293 251.005 L 381.747 251.005 L 382.519 247.898 C 383.412 249.028 384.565 249.927 385.879 250.517 C 387.368 251.161 388.978 251.483 390.6 251.464 C 393.728 251.604 396.734 250.256 398.711 247.83 C 402.571 241.709 402.578 233.917 398.733 227.79 C 396.739 225.38 393.725 224.051 390.6 224.205 M 390.034 228.207 C 392.023 228.043 393.957 228.912 395.158 230.508 C 396.436 232.698 397.023 235.222 396.843 237.753 C 397 240.293 396.412 242.827 395.153 245.041 C 394.035 246.691 392.122 247.624 390.131 247.484 C 388.059 247.671 386.023 246.859 384.648 245.301 C 382.365 240.58 382.349 235.08 384.6 230.345 C 385.971 228.806 387.995 228.012 390.046 228.214"/><path fill="#0023c9" d="M 409.972 215.109 C 409.271 215.085 408.589 215.341 408.078 215.819 C 407.521 216.418 407.242 217.223 407.306 218.04 C 407.249 218.852 407.526 219.652 408.073 220.256 C 408.577 220.753 409.259 221.023 409.967 221.007 C 410.666 221.016 411.338 220.746 411.838 220.261 C 412.401 219.664 412.688 218.857 412.631 218.04 C 412.69 217.223 412.401 216.418 411.835 215.826 C 411.331 215.348 410.663 215.087 409.97 215.097"/><rect width="4.624" height="26.371" x="407.64" y="224.634" fill="#0023c9"/><rect width="4.624" height="37.127" x="420.079" y="213.878" fill="#0023c9"/><path fill="#0023c9" d="M 434.693 215.109 C 433.992 215.085 433.31 215.341 432.798 215.819 C 432.242 216.418 431.963 217.223 432.027 218.04 C 431.97 218.852 432.247 219.652 432.794 220.256 C 433.298 220.753 433.98 221.023 434.688 221.007 C 435.384 221.014 436.056 220.746 436.556 220.261 C 437.119 219.664 437.406 218.857 437.349 218.04 C 437.408 217.223 437.119 216.418 436.554 215.826 C 436.049 215.348 435.382 215.087 434.688 215.097"/><rect width="4.624" height="26.371" x="432.358" y="224.634" fill="#0023c9"/><path fill="#0023c9" d="M 455.047 247.38 C 454.408 247.479 453.764 247.529 453.118 247.527 C 452.083 247.586 451.077 247.176 450.378 246.411 C 449.647 245.467 449.289 244.288 449.372 243.097 L 449.372 228.384 L 456.809 228.384 L 456.809 224.627 L 449.372 224.627 L 449.372 218.686 L 446.481 218.686 L 444.824 224.26 L 441.09 225.9 L 441.09 228.384 L 444.76 228.384 L 444.76 243.26 C 444.76 248.706 447.386 251.464 452.573 251.464 C 453.333 251.457 454.093 251.388 454.844 251.26 C 455.518 251.173 456.179 250.993 456.804 250.725 L 457.015 250.623 L 457.015 246.928 L 456.541 247.065 C 456.056 247.195 455.561 247.297 455.064 247.37"/><path fill="#0023c9" d="M 478.283 224.634 L 478.196 224.871 C 474.623 234.748 472.485 240.734 471.843 242.628 C 471.42 243.895 471.086 244.925 470.851 245.706 C 470.458 244.205 469.767 242.114 468.789 239.465 L 463.085 224.612 L 458.113 224.612 L 468.597 250.754 L 467.222 254.27 C 466.63 256.753 464.418 258.512 461.864 258.531 C 460.924 258.541 459.986 258.449 459.068 258.259 L 458.618 258.16 L 458.618 262.026 L 458.907 262.092 C 460.086 262.362 461.288 262.5 462.498 262.5 C 464.532 262.556 466.519 261.884 468.1 260.605 C 469.919 258.87 471.273 256.706 472.035 254.312 L 483.237 224.629 L 478.283 224.634 Z"/></svg>