<?xml version="1.0" encoding="utf-8"?>
<svg viewBox="30.769 126.886 445.538 138.673" xmlns="http://www.w3.org/2000/svg">
  <path d="M 102.556 126.886 C 62.914 126.886 30.769 158.715 30.769 197.976 C 30.769 229.388 51.338 256.036 79.861 265.437 C 83.449 266.095 84.767 263.895 84.767 262.017 C 84.767 260.322 84.698 254.721 84.67 248.781 C 64.698 253.081 60.483 240.393 60.483 240.393 C 57.218 232.176 52.513 229.99 52.513 229.99 C 46 225.578 53.004 225.669 53.004 225.669 C 60.213 226.171 64.008 232.995 64.008 232.995 C 70.411 243.865 80.802 240.722 84.898 238.905 C 85.543 234.309 87.403 231.174 89.456 229.399 C 73.511 227.601 56.749 221.505 56.749 194.265 C 56.749 186.503 59.553 180.161 64.146 175.182 C 63.401 173.391 60.944 166.16 64.842 156.368 C 64.842 156.368 70.868 154.459 84.589 163.656 C 90.315 162.08 96.455 161.292 102.556 161.264 C 108.657 161.292 114.803 162.08 120.541 163.656 C 134.242 154.459 140.262 156.368 140.262 156.368 C 144.17 166.16 141.712 173.391 140.967 175.182 C 145.569 180.161 148.353 186.503 148.353 194.265 C 148.353 221.569 131.561 227.583 115.575 229.342 C 118.15 231.548 120.445 235.875 120.445 242.507 C 120.445 252.02 120.361 259.675 120.361 262.017 C 120.361 263.909 121.653 266.125 125.292 265.427 C 153.8 256.016 174.343 229.378 174.343 197.976 C 174.343 158.715 142.203 126.886 102.556 126.886" style="fill: rgb(51, 51, 51);"/>
  <g fill="#121110" transform="matrix(0.565705, 0, 0, 0.539276, 204.699188, 66.2798)" style="">
    <path d="M92.375 230.65H52.019a1.887 1.887 0 0 0-1.886 1.886v19.731a1.89 1.89 0 0 0 1.886 1.889h15.743v24.513s-3.535 1.206-13.308 1.206c-11.53 0-27.637-4.214-27.637-39.632 0-35.425 16.772-40.087 32.518-40.087 13.63 0 19.502 2.401 23.238 3.556 1.174.36 2.26-.808 2.26-1.851l4.502-19.063c0-.487-.165-1.075-.721-1.474-1.517-1.082-10.774-6.262-34.16-6.262-26.941 0-54.576 11.463-54.576 66.562 0 55.103 31.64 63.313 58.302 63.313 22.076 0 35.468-9.434 35.468-9.434.552-.306.612-1.077.612-1.431v-61.537c0-1.04-.844-1.885-1.885-1.885M300.354 181.664a1.88 1.88 0 0 0-1.873-1.896h-22.724a1.889 1.889 0 0 0-1.882 1.896l.006 43.913h-35.419v-43.913a1.882 1.882 0 0 0-1.875-1.896h-22.722a1.887 1.887 0 0 0-1.877 1.896v118.904c0 1.048.843 1.901 1.877 1.901h22.722c1.039 0 1.875-.854 1.875-1.901v-50.86h35.419l-.062 50.86c0 1.048.844 1.901 1.883 1.901h22.777c1.041 0 1.873-.854 1.875-1.901V181.664M135.254 197.268c0-8.183-6.56-14.795-14.653-14.795-8.085 0-14.65 6.612-14.65 14.795 0 8.173 6.565 14.802 14.65 14.802 8.093 0 14.653-6.629 14.653-14.802M133.629 275.486V220.6a1.89 1.89 0 0 0-1.88-1.895h-22.651c-1.039 0-1.969 1.072-1.969 2.115v78.634c0 2.312 1.44 2.998 3.304 2.998h20.408c2.239 0 2.788-1.1 2.788-3.034v-23.932M386.71 218.884h-22.549c-1.034 0-1.876.852-1.876 1.901v58.302s-5.729 4.192-13.859 4.192c-8.13 0-10.287-3.689-10.287-11.65v-50.844c0-1.049-.841-1.901-1.875-1.901h-22.886c-1.032 0-1.879.852-1.879 1.901v54.693c0 23.646 13.179 29.431 31.31 29.431 14.873 0 26.864-8.216 26.864-8.216s.571 4.329.829 4.843c.259.512.932 1.029 1.659 1.029l14.56-.064c1.032 0 1.879-.854 1.879-1.898l-.008-79.817c0-1.05-.843-1.902-1.882-1.902M439.445 283.207c-7.821-.238-13.126-3.788-13.126-3.788v-37.653s5.233-3.208 11.654-3.782c8.12-.727 15.944 1.726 15.944 21.095.001 20.426-3.53 24.457-14.472 24.128zm8.894-66.993c-12.807 0-21.518 5.714-21.518 5.714v-40.263c0-1.05-.839-1.897-1.875-1.897h-22.787a1.887 1.887 0 0 0-1.878 1.897v118.903c0 1.048.842 1.901 1.881 1.901h15.811c.711 0 1.25-.367 1.648-1.009.393-.639.96-5.482.96-5.482s9.318 8.83 26.957 8.83c20.708 0 32.584-10.504 32.584-47.154 0-36.651-18.967-41.44-31.783-41.44M198.936 218.695h-17.045l-.026-22.519c0-.852-.439-1.278-1.424-1.278h-23.228c-.903 0-1.388.398-1.388 1.265v23.271s-11.64 2.809-12.427 3.037a1.886 1.886 0 0 0-1.361 1.812v14.623c0 1.052.84 1.898 1.879 1.898h11.909v35.178c0 26.13 18.328 28.697 30.696 28.697 5.651 0 12.411-1.814 13.527-2.228.675-.248 1.067-.947 1.067-1.705l.019-16.086c0-1.05-.886-1.897-1.884-1.897-.993 0-3.534.404-6.15.404-8.372 0-11.209-3.893-11.209-8.932l-.001-33.432h17.046c1.039 0 1.88-.847 1.88-1.898v-18.317a1.884 1.884 0 0 0-1.88-1.893" style="fill: rgb(51, 51, 51);"/>
  </g>
</svg>