<?xml version="1.0" encoding="utf-8"?>
<svg viewBox="15.114 105.163 441.873 217.189" xmlns="http://www.w3.org/2000/svg">
  <path d="M 163.584 227.51 C 163.357 227.245 163.026 227.092 162.678 227.092 L 139.621 227.092 C 139.034 227.092 138.535 227.519 138.444 228.098 L 125.001 313.298 C 124.888 314.022 125.447 314.675 126.179 314.675 L 149.227 314.675 C 149.813 314.675 150.312 314.248 150.404 313.669 L 163.855 228.469 C 163.909 228.126 163.81 227.775 163.585 227.51 L 163.584 227.51 Z M 205.671 291.809 C 205.444 291.544 205.112 291.391 204.764 291.391 L 192.888 291.395 C 190.326 291.157 188.384 290.148 186.951 288.311 C 184.349 284.974 183.555 278.672 184.773 271.018 C 185.354 267.316 187.321 258.181 193.011 253.318 C 196.421 250.483 200.051 250.262 201.083 250.262 C 201.21 250.262 201.286 250.266 201.298 250.267 L 201.377 250.269 L 211.629 250.269 C 212.216 250.269 212.715 249.842 212.806 249.263 L 216.086 228.47 C 216.2 227.747 215.641 227.093 214.909 227.093 L 203.669 227.098 C 200.649 227.098 189.992 227.671 179.659 235.036 C 168.924 242.689 162.181 254.853 159.619 271.188 C 157.304 285.777 159.567 297.572 166.165 305.3 C 171.341 311.363 178.84 314.567 187.85 314.567 L 201.484 314.567 C 202.071 314.567 202.57 314.141 202.662 313.561 L 205.942 292.769 C 205.996 292.425 205.897 292.074 205.671 291.809 L 205.671 291.809 Z M 132.563 249.263 L 135.839 228.47 C 135.953 227.747 135.394 227.093 134.662 227.092 L 85.732 227.092 C 85.145 227.092 84.646 227.519 84.554 228.098 L 81.279 248.892 C 81.165 249.615 81.724 250.269 82.456 250.269 L 93.713 250.269 L 83.763 313.297 C 83.647 314.021 84.207 314.677 84.94 314.675 L 107.988 314.675 C 108.575 314.675 109.074 314.248 109.166 313.669 L 119.183 250.269 L 131.386 250.269 C 131.973 250.269 132.472 249.842 132.563 249.263 L 132.563 249.263 Z M 81.678 227.51 C 81.451 227.245 81.12 227.092 80.772 227.092 L 62.612 227.092 C 62.572 227.092 62.532 227.094 62.492 227.098 C 43.593 227.171 33.821 244.331 32.1 255.15 C 31.175 260.782 31.929 265.74 34.422 270.34 C 36.912 274.607 40.543 277.997 44.049 281.104 C 44.072 281.124 44.097 281.144 44.122 281.163 C 45.551 282.243 46.41 283.095 46.996 284.013 C 47.021 284.053 47.048 284.09 47.077 284.126 C 47.903 285.14 48.162 286.262 47.916 287.776 C 47.771 288.722 47.321 289.569 46.602 290.272 C 45.548 291.248 43.655 291.375 43.134 291.39 L 27.392 291.39 C 26.806 291.39 26.306 291.816 26.215 292.395 L 22.928 313.19 C 22.813 313.914 23.372 314.568 24.105 314.568 L 41.126 314.568 C 56.658 314.568 70.296 302.318 72.847 286.073 C 73.797 280.031 73.201 275.253 70.974 271.041 C 68.774 266.881 65.044 263.596 61.333 260.668 C 60.98 260.32 60.583 259.974 60.163 259.608 C 59.383 258.928 58.575 258.224 58.005 257.464 C 56.979 256.093 56.597 254.934 56.81 253.768 C 56.916 253.011 57.266 252.308 57.84 251.688 C 57.937 251.587 58.035 251.493 58.152 251.388 C 59.161 250.504 60.314 250.308 60.931 250.27 L 77.486 250.27 C 78.072 250.27 78.571 249.843 78.663 249.264 L 81.948 228.471 C 82.002 228.127 81.904 227.777 81.678 227.511 L 81.678 227.51 Z M 437.544 227.51 C 437.317 227.245 436.986 227.092 436.638 227.092 L 418.478 227.092 C 418.438 227.092 418.398 227.094 418.358 227.098 C 399.46 227.171 389.688 244.331 387.966 255.15 C 387.041 260.781 387.795 265.74 390.289 270.34 C 392.779 274.607 396.409 277.997 399.916 281.104 C 399.939 281.124 399.963 281.144 399.988 281.163 C 401.418 282.243 402.278 283.096 402.863 284.013 C 402.887 284.053 402.914 284.09 402.943 284.126 C 403.769 285.14 404.029 286.262 403.783 287.776 C 403.638 288.721 403.188 289.569 402.469 290.272 C 401.414 291.248 399.522 291.375 399 291.39 L 383.259 291.39 C 382.672 291.39 382.173 291.816 382.081 292.395 L 379.56 308.355 L 369.924 278.701 C 378.706 275.009 384.626 267.103 386.239 256.833 C 387.7 247.433 386.362 240.471 382.148 235.551 C 377.205 229.78 368.579 227.092 355.002 227.092 L 332.736 227.092 C 332.149 227.092 331.65 227.519 331.559 228.098 L 318.116 313.298 C 318.003 314.021 318.561 314.674 319.293 314.675 L 342.342 314.675 C 342.928 314.675 343.426 314.249 343.518 313.67 L 347.134 290.957 C 347.468 288.881 347.76 286.797 348.01 284.708 L 353.833 313.718 C 353.945 314.274 354.433 314.675 355.002 314.675 L 379.973 314.675 C 380.146 314.675 380.315 314.637 380.468 314.567 L 396.993 314.567 C 412.526 314.567 426.163 302.317 428.714 286.072 C 429.664 280.03 429.069 275.253 426.841 271.04 C 424.641 266.88 420.911 263.595 417.2 260.667 C 416.847 260.318 416.45 259.972 416.03 259.607 C 415.249 258.927 414.442 258.223 413.872 257.463 C 412.846 256.092 412.464 254.933 412.677 253.767 C 412.783 253.01 413.133 252.307 413.71 251.685 C 413.805 251.585 413.902 251.492 414.019 251.387 C 415.029 250.503 416.181 250.307 416.799 250.269 L 433.353 250.269 C 433.939 250.269 434.439 249.842 434.53 249.263 L 437.815 228.47 C 437.869 228.126 437.77 227.776 437.545 227.51 L 437.544 227.51 Z M 353.987 247.76 C 355.839 247.777 358.303 248.172 359.78 249.917 C 361.05 251.417 361.44 253.691 360.934 256.704 C 360.247 261.573 356.646 266.501 351.089 266.526 L 350.957 266.516 L 353.987 247.76 Z M 256.423 269.57 L 281.007 228.9 C 281.481 228.115 280.927 227.111 280.009 227.093 C 280.002 227.093 279.994 227.092 279.987 227.092 L 255.697 227.092 C 255.247 227.092 254.836 227.345 254.633 227.747 L 239.568 257.59 L 244.104 228.467 C 244.216 227.745 243.657 227.092 242.926 227.092 L 219.869 227.092 C 219.283 227.092 218.783 227.519 218.692 228.098 L 205.25 313.298 C 205.137 314.021 205.695 314.674 206.427 314.675 L 229.474 314.675 C 230.06 314.675 230.559 314.249 230.651 313.67 L 235.899 280.69 L 242.772 313.726 C 242.887 314.278 243.374 314.675 243.938 314.675 L 268.688 314.675 C 269.49 314.676 270.063 313.9 269.828 313.133 L 256.423 269.57 Z M 318.396 292.595 C 318.169 292.331 317.838 292.178 317.49 292.178 L 299.11 292.178 L 300.77 281.57 L 317.49 281.57 C 318.074 281.57 318.572 281.147 318.666 280.57 L 321.951 260.458 C 322.07 259.733 321.51 259.073 320.775 259.074 L 304.414 259.074 L 305.862 249.588 L 324.612 249.588 C 325.198 249.588 325.697 249.161 325.789 248.582 L 328.954 228.469 C 329.067 227.746 328.508 227.092 327.776 227.092 L 284.946 227.092 C 284.36 227.092 283.861 227.519 283.77 228.098 L 270.327 313.298 C 270.214 314.021 270.772 314.674 271.504 314.675 L 314.325 314.675 C 314.912 314.675 315.411 314.248 315.502 313.668 L 318.667 293.555 C 318.721 293.211 318.622 292.86 318.396 292.595 L 318.396 292.595 Z" fill="#f47857"/>
  <path d="M 190.448 163.143 C 190.448 168.687 191.076 174.256 191.714 179.66 L 178.636 143.236 L 157.7 143.236 L 157.7 206.566 L 144.261 143.236 L 118.085 143.236 L 99.869 219.116 L 122.851 219.116 L 124.51 209.663 L 135.845 209.663 L 137.305 219.115 L 179.188 219.115 L 179.188 196.383 C 179.188 192.218 178.868 188.04 178.515 183.964 L 190.794 219.115 L 211.944 219.115 L 211.944 143.235 L 190.448 143.235 L 190.448 163.143 Z M 133.175 191.683 L 127.542 191.683 L 130.048 176.01 C 130.291 174.583 130.506 173.141 130.703 171.7 C 130.856 173.125 131.019 174.55 131.199 175.959 L 133.175 191.683 Z M 109.701 143.236 L 65.108 143.236 L 65.108 163.557 L 76.03 163.557 L 76.03 219.115 L 98.295 219.115 L 98.295 163.557 L 109.701 163.557 L 109.701 143.236 Z M 48.626 143.264 L 46.134 143.248 C 29.234 143.248 22.937 158.31 22.937 167.804 C 22.937 172.795 24.293 177.092 27.087 180.944 C 29.765 184.584 33.451 187.528 37.043 190.264 C 38.135 191.014 39.266 191.826 40.049 192.773 L 40.093 192.823 C 40.924 193.721 41.301 194.679 41.311 195.923 L 41.304 196.033 C 41.302 196.195 41.287 196.357 41.26 196.516 L 41.244 196.582 C 40.96 197.87 39.822 198.789 38.504 198.795 L 22.936 198.795 L 22.936 219.115 L 42.233 219.115 L 42.233 218.918 C 54.456 217.426 63.213 207.196 63.213 194.183 C 63.213 188.881 62.018 184.739 59.465 181.166 C 56.957 177.52 53.255 174.709 49.623 172.215 C 49.333 171.985 49.016 171.747 48.688 171.501 C 47.825 170.854 46.933 170.186 46.24 169.438 C 45.59 168.741 45.166 168.133 44.907 167.522 C 44.833 167.351 44.774 167.174 44.732 166.992 C 44.689 166.793 44.669 166.589 44.672 166.384 C 44.671 166.36 44.669 166.336 44.668 166.311 L 44.672 166.258 L 44.685 166.128 C 44.779 164.688 45.971 163.565 47.415 163.557 L 63.213 163.557 L 63.213 143.236 L 49.198 143.244 C 49.014 143.244 48.818 143.245 48.625 143.264 L 48.626 143.264 Z M 446.031 114.215 L 379.661 114.215 C 378.819 114.213 378.012 114.548 377.419 115.144 L 372.696 119.869 L 372.696 117.386 C 372.693 115.636 371.275 114.218 369.525 114.215 L 349.638 114.215 C 348.803 114.215 347.986 114.553 347.395 115.144 L 339.243 123.298 C 333.768 116.518 326.236 112.944 317.376 112.944 L 315.866 112.944 C 308.043 112.944 301.398 115.634 296.149 120.905 L 271.78 145.266 C 271.713 145.335 271.648 145.406 271.587 145.478 C 267.761 149.128 264.637 154.288 262.548 160.404 C 256.81 149.304 245.724 143.236 231.014 143.236 L 213.838 143.236 L 213.838 219.116 L 232.38 219.116 C 248.973 219.116 259.71 212.329 264.356 198.93 C 269.339 212.624 279.361 220.386 292.306 220.386 C 300.124 220.386 306.765 217.703 312.046 212.412 L 322.731 201.732 C 326.001 213.947 335.222 220.386 349.526 220.386 C 358.768 220.386 365.899 217.684 370.721 212.356 L 386.508 196.568 L 386.508 215.955 C 386.51 217.705 387.928 219.124 389.678 219.126 L 409.559 219.126 C 410.406 219.126 411.202 218.797 411.802 218.198 L 436.869 193.134 C 437.475 192.529 437.81 191.703 437.799 190.846 L 437.799 148.044 L 448.279 137.565 C 448.91 136.935 449.245 136.064 449.202 135.168 L 449.202 117.386 C 449.199 115.636 447.78 114.217 446.03 114.215 L 446.031 114.215 Z M 236.104 198.882 L 236.104 164.03 C 240.109 164.609 244.348 168.401 244.348 181.858 C 244.348 195.336 239.271 198.328 236.104 198.882 Z" fill="#fff"/>
  <path d="M 451.072 316.206 C 451.036 315.97 451.014 315.732 451.007 315.492 C 450.997 315.252 450.984 315.012 450.966 314.78 C 450.939 314.554 450.901 314.329 450.851 314.106 C 450.806 313.9 450.728 313.703 450.621 313.521 C 450.516 313.343 450.374 313.189 450.205 313.07 C 450 312.93 449.767 312.837 449.522 312.8 L 449.522 312.773 C 450.108 312.609 450.532 312.31 450.796 311.87 C 451.062 311.43 451.196 310.919 451.196 310.333 C 451.196 309.553 450.935 308.939 450.423 308.491 C 449.905 308.043 449.188 307.818 448.273 307.818 L 443.748 307.818 L 443.748 317.43 L 445.028 317.43 L 445.028 313.324 L 448.151 313.324 C 448.466 313.324 448.72 313.37 448.905 313.466 C 449.095 313.561 449.245 313.684 449.365 313.844 C 449.479 314 449.565 314.184 449.621 314.394 C 449.672 314.604 449.718 314.827 449.753 315.061 C 449.799 315.293 449.826 315.532 449.835 315.771 C 449.842 316.015 449.851 316.242 449.862 316.456 C 449.869 316.664 449.892 316.855 449.922 317.028 C 449.944 317.177 450.007 317.316 450.104 317.43 L 451.531 317.43 C 451.394 317.266 451.291 317.077 451.225 316.873 C 451.157 316.655 451.106 316.432 451.072 316.206 L 451.072 316.206 Z M 449.25 311.916 C 449.046 312.046 448.81 312.136 448.542 312.179 C 448.272 312.224 447.99 312.249 447.694 312.249 L 445.028 312.249 L 445.028 308.895 L 448.206 308.895 C 448.806 308.895 449.242 309.049 449.513 309.354 C 449.78 309.657 449.915 310.054 449.915 310.538 C 449.915 310.886 449.857 311.17 449.732 311.393 C 449.612 311.611 449.45 311.785 449.25 311.916 L 449.25 311.916 Z" fill="#484743"/>
  <path d="M 447.298 302.982 C 441.949 302.982 437.613 307.319 437.613 312.667 C 437.613 318.016 441.949 322.352 447.298 322.352 C 452.646 322.352 456.983 318.016 456.983 312.667 C 456.983 307.319 452.646 302.982 447.298 302.982 Z M 447.298 321.068 C 442.666 321.068 438.898 317.299 438.898 312.668 C 438.898 308.035 442.666 304.266 447.298 304.266 C 451.931 304.266 455.699 308.035 455.699 312.667 C 455.699 317.299 451.931 321.068 447.299 321.068 L 447.298 321.068 Z" fill="#484743"/>
  <path d="M 316.622 116.87 C 296.446 116.87 288.55 136.955 288.55 154.888 C 288.55 172.825 296.446 192.904 316.622 192.904 C 336.801 192.904 344.697 172.825 344.697 154.888 C 344.697 136.955 336.801 116.869 316.622 116.869 L 316.622 116.87 Z M 316.622 135.393 C 324.129 135.393 324.42 150.314 324.42 154.888 C 324.42 159.471 324.13 174.385 316.622 174.385 C 314.277 174.385 312.636 172.928 311.489 170.786 C 311.372 170.569 311.262 170.348 311.159 170.123 C 310.712 169.158 310.353 168.08 310.061 166.953 C 309.955 166.545 309.858 166.134 309.771 165.721 C 308.894 161.584 308.827 157.068 308.827 154.888 C 308.827 150.314 309.117 135.393 316.622 135.393 L 316.622 135.393 Z M 403.073 118.14 L 403.073 136.078 L 413.99 136.078 L 413.99 191.645 L 433.873 191.645 L 433.873 136.078 L 445.277 136.078 L 445.277 118.14 L 403.073 118.14 Z M 378.91 118.14 L 378.91 164.443 C 378.91 166.296 379.005 168.829 378.42 170.88 C 377.934 172.825 376.67 174.385 373.837 174.385 C 371.109 174.385 369.843 172.825 369.254 170.779 C 368.664 168.829 368.77 166.296 368.77 164.346 L 368.77 118.14 L 348.884 118.14 L 348.884 166.196 C 348.884 175.065 350.84 192.904 373.837 192.904 C 396.847 192.904 398.795 175.064 398.795 166.196 L 398.795 118.14 L 378.91 118.14 Z" fill="#8bd0c0"/>
  <path d="M 352.965 246.594 L 349.57 267.609 L 351.042 267.719 C 357.142 267.719 361.329 262.411 362.111 256.872 C 363.362 249.419 359.286 246.254 352.965 246.594 Z M 446.031 106.434 L 349.638 106.434 C 346.713 106.434 343.962 107.574 341.893 109.643 L 339.146 112.39 C 333.013 107.68 325.542 105.163 317.376 105.163 L 315.867 105.163 C 306.091 105.163 297.397 108.682 290.709 115.34 C 290.655 115.393 290.6 115.446 290.544 115.503 L 266.241 139.803 C 266.15 139.894 266.061 139.988 265.973 140.083 C 265.844 140.208 265.72 140.341 265.593 140.469 L 265.588 140.464 L 265.38 140.685 C 264.57 141.514 263.789 142.386 263.044 143.307 C 262.341 144.13 261.668 144.977 261.027 145.847 C 253.505 139.111 243.232 135.455 231.015 135.455 L 46.134 135.468 C 23.566 135.468 15.156 155.303 15.156 167.805 C 15.156 174.401 17.05 180.357 20.819 185.554 C 22.309 187.578 23.979 189.374 25.734 191.013 L 24.128 191.013 C 19.172 191.014 15.156 195.031 15.156 199.986 L 15.156 217.924 C 15.156 222.88 19.172 226.897 24.128 226.897 L 40.28 226.897 C 38.199 228.53 36.286 230.366 34.57 232.377 C 29.386 238.422 25.583 246.482 24.405 253.89 C 23.189 261.29 24.217 267.874 27.546 274.017 C 27.591 274.1 27.638 274.183 27.686 274.265 C 29.829 277.937 32.493 280.937 35.259 283.612 L 27.375 283.612 C 22.96 283.612 19.201 286.824 18.512 291.184 L 15.226 311.979 C 14.366 317.426 18.575 322.352 24.089 322.352 L 396.992 322.352 C 416.318 322.352 433.26 307.275 436.401 287.283 C 437.625 279.496 436.772 273.179 433.719 267.406 C 431.762 263.702 429.077 260.689 426.179 258.051 L 433.353 258.051 C 437.768 258.052 441.527 254.84 442.216 250.479 L 445.501 229.684 C 446.362 224.238 442.153 219.311 436.639 219.311 L 421.694 219.311 L 442.367 198.641 C 444.441 196.56 445.598 193.736 445.58 190.797 L 445.58 151.267 L 453.783 143.067 C 455.904 140.942 457.061 138.039 456.983 135.036 L 456.983 117.386 C 456.983 111.346 452.07 106.434 446.031 106.434 L 446.031 106.434 Z M 143.296 144.428 L 158.892 217.924 L 158.892 144.428 L 177.798 144.428 L 193.688 188.684 L 193.886 188.486 C 193.108 180.009 191.64 171.62 191.64 163.143 L 191.64 144.428 L 210.752 144.428 L 210.752 217.924 L 191.64 217.924 L 176.83 175.524 L 176.631 175.715 C 177.115 182.636 177.996 189.462 177.996 196.383 L 177.996 217.923 L 138.328 217.923 L 136.868 208.471 L 123.508 208.471 L 121.849 217.924 L 101.379 217.924 L 119.024 144.428 L 143.296 144.428 Z M 66.3 144.428 L 108.509 144.428 L 108.509 162.365 L 97.104 162.365 L 97.104 217.924 L 77.222 217.924 L 77.222 162.365 L 66.3 162.365 L 66.3 144.428 Z M 24.128 217.924 L 24.128 199.986 L 38.504 199.986 C 40.385 199.985 42.011 198.672 42.409 196.833 L 42.423 196.778 C 42.47 196.544 42.492 196.301 42.496 196.054 C 42.496 196.025 42.503 196 42.503 195.971 C 42.503 194.276 41.926 193.048 40.968 192.013 C 40.11 190.977 38.957 190.133 37.718 189.283 C 33.884 186.36 30.541 183.629 28.048 180.238 C 25.656 176.94 24.128 172.99 24.128 167.805 C 24.128 159.513 29.482 144.44 46.134 144.44 L 48.626 144.44 C 48.629 144.428 62.022 144.428 62.022 144.428 L 62.022 162.365 L 47.415 162.365 C 45.325 162.365 43.633 163.995 43.497 166.05 C 43.491 166.11 43.482 166.17 43.479 166.23 C 43.479 166.257 43.471 166.282 43.471 166.31 C 43.471 166.348 43.481 166.383 43.482 166.42 C 43.484 166.703 43.508 166.985 43.572 167.259 C 43.629 167.509 43.712 167.752 43.812 167.988 C 44.171 168.836 44.745 169.582 45.37 170.252 C 46.422 171.387 47.856 172.33 48.916 173.174 C 53.03 175.997 56.279 178.635 58.484 181.842 C 60.775 185.048 62.022 188.814 62.022 194.184 C 62.022 206.717 53.55 216.865 41.042 217.84 L 41.042 217.924 L 24.128 217.924 Z M 77.471 249.078 L 60.882 249.078 C 60.117 249.119 58.647 249.357 57.351 250.492 C 57.215 250.612 57.084 250.737 56.961 250.868 C 56.267 251.616 55.765 252.532 55.614 253.604 C 55.294 255.344 56.058 256.872 57.036 258.178 C 58.021 259.492 59.549 260.585 60.526 261.562 C 64.674 264.83 67.943 267.886 69.906 271.598 C 71.868 275.311 72.632 279.672 71.656 285.89 C 69.257 301.158 56.6 313.38 41.11 313.38 L 24.089 313.38 L 27.375 292.585 L 43.117 292.585 C 44.029 292.559 46.091 292.357 47.395 291.15 C 48.251 290.313 48.879 289.253 49.077 287.96 C 49.397 285.996 48.962 284.575 47.985 283.376 C 47.221 282.176 46.128 281.2 44.823 280.214 C 41.003 276.83 37.726 273.668 35.435 269.742 C 33.365 265.922 32.273 261.349 33.258 255.344 C 34.786 245.744 43.614 228.291 62.594 228.29 L 62.596 228.284 L 80.757 228.284 L 77.471 249.078 Z M 107.991 313.379 L 84.942 313.379 L 95.092 249.079 L 82.442 249.079 L 85.717 228.284 L 134.648 228.284 L 131.372 249.078 L 118.15 249.078 L 107.991 313.379 Z M 126.182 313.379 L 139.608 228.284 L 162.667 228.284 L 149.231 313.379 L 126.182 313.379 Z M 201.474 313.379 L 187.84 313.379 C 169.622 313.379 156.317 299.523 160.785 271.376 C 166.567 234.507 192.858 228.29 203.658 228.29 L 214.9 228.285 L 211.62 249.078 L 201.367 249.078 C 201.367 249.078 196.614 248.763 192.239 252.403 C 187.082 256.81 184.551 264.679 183.585 270.835 C 182.116 280.067 182.869 291.708 192.825 292.589 L 204.755 292.586 L 201.474 313.379 Z M 243.908 313.379 L 235.796 274.391 L 235.686 274.391 L 229.483 313.379 L 206.433 313.379 L 219.86 228.284 L 242.918 228.284 L 237.268 264.554 L 237.379 264.554 L 255.689 228.284 L 279.981 228.284 L 255.119 269.413 L 268.649 313.379 L 243.908 313.379 Z M 317.485 293.373 L 314.337 313.379 L 271.514 313.379 L 284.94 228.284 L 327.772 228.284 L 324.606 248.397 L 304.833 248.397 L 303.021 260.267 L 320.77 260.267 L 317.485 280.381 L 299.745 280.381 L 297.712 293.373 L 317.485 293.373 Z M 354.977 313.379 L 347.877 278.007 L 347.537 278.227 C 347.085 282.414 346.634 286.591 345.954 290.769 L 342.354 313.379 L 319.306 313.379 L 332.731 228.284 L 354.998 228.284 C 375.002 228.284 388.555 234.164 385.058 256.651 C 383.586 266.027 378.158 274.391 368.441 278.007 L 379.935 313.379 L 354.977 313.379 Z M 436.639 228.284 L 433.353 249.078 L 416.763 249.078 C 415.999 249.119 414.528 249.357 413.233 250.492 C 413.097 250.611 412.966 250.737 412.843 250.868 C 412.149 251.616 411.646 252.532 411.496 253.604 C 411.176 255.344 411.94 256.872 412.916 258.178 C 413.903 259.492 415.431 260.585 416.407 261.562 C 420.555 264.83 423.824 267.886 425.787 271.598 C 427.75 275.311 428.514 279.672 427.537 285.89 C 425.139 301.158 412.482 313.38 396.992 313.38 L 379.97 313.38 L 383.256 292.585 L 398.999 292.585 C 399.91 292.559 401.972 292.357 403.276 291.15 C 404.133 290.313 404.761 289.253 404.959 287.96 C 405.279 285.996 404.843 284.575 403.866 283.376 C 403.102 282.176 402.01 281.2 400.704 280.214 C 396.885 276.83 393.608 273.668 391.316 269.742 C 389.246 265.922 388.154 261.349 389.14 255.344 C 390.668 245.744 399.496 228.291 418.476 228.29 L 418.477 228.284 L 436.639 228.284 Z M 448.011 135.2 C 448.046 135.767 447.838 136.321 447.438 136.723 L 436.608 147.551 L 436.608 190.846 C 436.619 191.387 436.41 191.908 436.029 192.29 L 410.96 217.355 C 410.588 217.727 410.085 217.935 409.56 217.935 L 389.68 217.935 C 388.586 217.936 387.699 217.049 387.7 215.955 L 387.7 193.69 L 369.906 211.486 L 369.871 211.52 C 365.283 216.612 358.439 219.194 349.527 219.194 C 334.984 219.194 326.025 212.364 323.404 199.374 L 311.291 211.486 C 311.264 211.513 311.236 211.539 311.209 211.564 C 306.159 216.627 299.8 219.194 292.306 219.194 C 277.112 219.194 268.068 208.431 264.308 194.858 C 259.244 215.716 242.543 217.924 232.38 217.924 L 215.03 217.924 L 215.03 144.428 L 231.015 144.428 C 246.935 144.428 257.672 151.493 262.64 163.425 C 262.683 163.524 262.732 163.619 262.772 163.72 L 262.777 163.73 C 263.048 162.74 263.343 161.77 263.667 160.825 L 263.667 160.819 C 265.678 154.917 268.67 149.888 272.467 146.287 C 272.515 146.225 272.567 146.166 272.624 146.109 L 296.888 121.848 L 296.96 121.779 C 302.011 116.707 308.372 114.136 315.867 114.136 L 317.377 114.136 C 326.347 114.136 333.822 117.915 339.13 125.099 L 348.239 115.986 C 348.61 115.615 349.113 115.407 349.639 115.406 L 369.525 115.406 C 370.618 115.407 371.504 116.293 371.504 117.386 L 371.504 122.746 L 378.262 115.986 C 378.635 115.614 379.138 115.406 379.662 115.406 L 446.032 115.406 C 447.125 115.407 448.011 116.293 448.011 117.386 L 448.011 135.2 Z M 234.912 162.754 L 234.912 200.184 C 243.976 200.089 245.54 188.779 245.54 181.858 C 245.54 173.866 243.976 162.754 234.912 162.754 L 234.912 162.754 Z M 132.382 175.81 C 131.795 171.23 131.406 166.556 130.914 161.976 L 130.724 161.976 C 130.136 166.556 129.652 171.231 128.874 175.81 L 126.144 192.875 L 134.526 192.875 L 132.382 175.81 Z" fill="#484743"/>
</svg>