<?xml version="1.0" encoding="utf-8"?>
<svg viewBox="163.172 302.782 281.938 51.16" xmlns="http://www.w3.org/2000/svg">
  <defs>
    <clipPath id="b5a6acedab">
      <path d="M 41.367188 4.425781 L 92.367188 4.425781 L 92.367188 55.425781 L 41.367188 55.425781 Z M 41.367188 4.425781 " clip-rule="nonzero"/>
    </clipPath>
    <clipPath id="d252cf8261">
      <path d="M 51.417969 14.480469 L 82.167969 14.480469 L 82.167969 20.480469 L 51.417969 20.480469 Z M 51.417969 14.480469 " clip-rule="nonzero"/>
    </clipPath>
    <clipPath id="7881ca1840">
      <path d="M 76.457031 14.476562 L 82.457031 14.476562 L 82.457031 45.226562 L 76.457031 45.226562 Z M 76.457031 14.476562 " clip-rule="nonzero"/>
    </clipPath>
    <clipPath id="11c6e30c94">
      <path d="M 44 17 L 81 17 L 81 52 L 44 52 Z M 44 17 " clip-rule="nonzero"/>
    </clipPath>
    <clipPath id="a17fc5a6d0">
      <path d="M 80.371094 21.582031 L 49.015625 51.734375 L 44.859375 47.40625 L 76.214844 17.257812 Z M 80.371094 21.582031 " clip-rule="nonzero"/>
    </clipPath>
    <clipPath id="9cce84d4bf">
      <path d="M 41 39 L 57 39 L 57 56 L 41 56 Z M 41 39 " clip-rule="nonzero"/>
    </clipPath>
    <clipPath id="4a2b4df410">
      <path d="M 46.132812 39.40625 L 56.75 51.042969 L 51.765625 55.589844 L 41.148438 43.957031 Z M 46.132812 39.40625 " clip-rule="nonzero"/>
    </clipPath>
  </defs>
  <g clip-path="url(#b5a6acedab)" transform="matrix(1, 0, 0, 1, 122.019646, 298.355804)">
    <path d="M 47.035156 4.425781 C 43.917969 4.425781 41.367188 6.976562 41.367188 10.09375 L 41.367188 49.761719 C 41.367188 52.878906 43.917969 55.425781 47.035156 55.425781 L 86.703125 55.425781 C 89.820312 55.425781 92.367188 52.878906 92.367188 49.761719 L 92.367188 10.09375 C 92.367188 6.976562 89.820312 4.425781 86.703125 4.425781 Z M 86.703125 49.761719 L 47.035156 49.761719 L 47.035156 10.09375 L 86.703125 10.09375 Z M 86.703125 49.761719 " fill-opacity="1" fill-rule="nonzero" style="fill: rgb(255, 255, 255);"/>
  </g>
  <g clip-path="url(#d252cf8261)" transform="matrix(1, 0, 0, 1, 122.019646, 298.355804)">
    <path d="M 51.441406 14.480469 L 82.144531 14.480469 L 82.144531 20.480469 L 51.441406 20.480469 L 51.441406 14.480469 " fill-opacity="1" fill-rule="nonzero" style="fill: rgb(255, 255, 255);"/>
  </g>
  <g fill="#000000" fill-opacity="1" transform="matrix(1, 0, 0, 1, 122.019646, 298.355804)">
    <g transform="translate(105.235798, 43.261729)">
      <g>
        <path d="M 23.15625 -28.203125 L 30.59375 -28.203125 L 17.765625 0 L 11.921875 0 L -0.921875 -28.203125 L 6.71875 -28.203125 L 14.921875 -9.15625 Z M 23.15625 -28.203125 " style="fill: rgb(255, 255, 255);"/>
      </g>
    </g>
  </g>
  <g fill="#000000" fill-opacity="1" transform="matrix(1, 0, 0, 1, 122.019646, 298.355804)">
    <g transform="translate(134.952841, 43.261729)">
      <g>
        <path d="M 2.5625 0 L 2.5625 -28.203125 L 22.59375 -28.203125 L 22.59375 -22.515625 L 9.71875 -22.515625 L 9.71875 -17.15625 L 21.796875 -17.15625 L 21.796875 -11.515625 L 9.71875 -11.515625 L 9.71875 -5.6875 L 22.59375 -5.6875 L 22.59375 0 Z M 2.5625 0 " style="fill: rgb(255, 255, 255);"/>
      </g>
    </g>
  </g>
  <g fill="#000000" fill-opacity="1" transform="matrix(1, 0, 0, 1, 122.019646, 298.355804)">
    <g transform="translate(158.830469, 43.261729)">
      <g>
        <path d="M 27.921875 0 L 19.84375 0 L 14.953125 -9 C 14.347656 -10.039062 13.378906 -10.5625 12.046875 -10.5625 L 9.796875 -10.5625 L 9.796875 0 L 2.5625 0 L 2.5625 -28.203125 L 16 -28.203125 C 19.414062 -28.203125 21.984375 -27.460938 23.703125 -25.984375 C 25.421875 -24.503906 26.28125 -22.363281 26.28125 -19.5625 C 26.28125 -17.425781 25.691406 -15.617188 24.515625 -14.140625 C 23.347656 -12.660156 21.695312 -11.664062 19.5625 -11.15625 C 21.1875 -10.8125 22.476562 -9.757812 23.4375 -8 Z M 14.84375 -16.078125 C 16.46875 -16.078125 17.632812 -16.328125 18.34375 -16.828125 C 19.050781 -17.335938 19.40625 -18.164062 19.40625 -19.3125 C 19.40625 -20.488281 19.050781 -21.335938 18.34375 -21.859375 C 17.632812 -22.378906 16.46875 -22.640625 14.84375 -22.640625 L 9.71875 -22.640625 L 9.71875 -16.078125 Z M 14.84375 -16.078125 " style="fill: rgb(255, 255, 255);"/>
      </g>
    </g>
  </g>
  <g fill="#000000" fill-opacity="1" transform="matrix(1, 0, 0, 1, 122.019646, 298.355804)">
    <g transform="translate(187.107663, 43.261729)">
      <g>
        <path d="M 21.484375 -14.640625 C 23.128906 -14.128906 24.390625 -13.28125 25.265625 -12.09375 C 26.148438 -10.90625 26.59375 -9.445312 26.59375 -7.71875 C 26.59375 -6.175781 26.1875 -4.820312 25.375 -3.65625 C 24.5625 -2.5 23.398438 -1.597656 21.890625 -0.953125 C 20.390625 -0.316406 18.625 0 16.59375 0 L 2.5625 0 L 2.5625 -28.203125 L 16.203125 -28.203125 C 19.160156 -28.203125 21.507812 -27.539062 23.25 -26.21875 C 25 -24.894531 25.875 -23.113281 25.875 -20.875 C 25.875 -19.4375 25.488281 -18.164062 24.71875 -17.0625 C 23.945312 -15.957031 22.867188 -15.148438 21.484375 -14.640625 Z M 9.71875 -17.125 L 14.953125 -17.125 C 16.347656 -17.125 17.363281 -17.335938 18 -17.765625 C 18.632812 -18.191406 18.953125 -18.867188 18.953125 -19.796875 C 18.953125 -20.785156 18.632812 -21.503906 18 -21.953125 C 17.363281 -22.410156 16.347656 -22.640625 14.953125 -22.640625 L 9.71875 -22.640625 Z M 15.6875 -5.5625 C 17.144531 -5.5625 18.1875 -5.789062 18.8125 -6.25 C 19.445312 -6.71875 19.765625 -7.488281 19.765625 -8.5625 C 19.765625 -9.625 19.445312 -10.390625 18.8125 -10.859375 C 18.1875 -11.328125 17.144531 -11.5625 15.6875 -11.5625 L 9.71875 -11.5625 L 9.71875 -5.5625 Z M 15.6875 -5.5625 " style="fill: rgb(255, 255, 255);"/>
      </g>
    </g>
  </g>
  <g fill="#000000" fill-opacity="1" transform="matrix(1, 0, 0, 1, 122.019646, 298.355804)">
    <g transform="translate(214.904903, 43.261729)">
      <g>
        <path d="M 37.359375 -28.203125 L 44.3125 -28.203125 L 34.234375 0 L 28.40625 0 L 22.4375 -16.921875 L 16.40625 0 L 10.515625 0 L 0.484375 -28.203125 L 7.953125 -28.203125 L 13.796875 -10.3125 L 20.125 -28.203125 L 25.203125 -28.203125 L 31.234375 -10 Z M 37.359375 -28.203125 " style="fill: rgb(255, 255, 255);"/>
      </g>
    </g>
  </g>
  <g fill="#000000" fill-opacity="1" transform="matrix(1, 0, 0, 1, 122.019646, 298.355804)">
    <g transform="translate(259.740449, 43.261729)">
      <g>
        <path d="M 2.5625 0 L 2.5625 -28.203125 L 9.921875 -28.203125 L 9.921875 0 Z M 2.5625 0 " style="fill: rgb(255, 255, 255);"/>
      </g>
    </g>
  </g>
  <g fill="#000000" fill-opacity="1" transform="matrix(1, 0, 0, 1, 122.019646, 298.355804)">
    <g transform="translate(272.219212, 43.261729)">
      <g>
        <path d="M 27.921875 0 L 19.84375 0 L 14.953125 -9 C 14.347656 -10.039062 13.378906 -10.5625 12.046875 -10.5625 L 9.796875 -10.5625 L 9.796875 0 L 2.5625 0 L 2.5625 -28.203125 L 16 -28.203125 C 19.414062 -28.203125 21.984375 -27.460938 23.703125 -25.984375 C 25.421875 -24.503906 26.28125 -22.363281 26.28125 -19.5625 C 26.28125 -17.425781 25.691406 -15.617188 24.515625 -14.140625 C 23.347656 -12.660156 21.695312 -11.664062 19.5625 -11.15625 C 21.1875 -10.8125 22.476562 -9.757812 23.4375 -8 Z M 14.84375 -16.078125 C 16.46875 -16.078125 17.632812 -16.328125 18.34375 -16.828125 C 19.050781 -17.335938 19.40625 -18.164062 19.40625 -19.3125 C 19.40625 -20.488281 19.050781 -21.335938 18.34375 -21.859375 C 17.632812 -22.378906 16.46875 -22.640625 14.84375 -22.640625 L 9.71875 -22.640625 L 9.71875 -16.078125 Z M 14.84375 -16.078125 " style="fill: rgb(255, 255, 255);"/>
      </g>
    </g>
  </g>
  <g fill="#000000" fill-opacity="1" transform="matrix(1, 0, 0, 1, 122.019646, 298.355804)">
    <g transform="translate(300.496394, 43.261729)">
      <g>
        <path d="M 2.5625 0 L 2.5625 -28.203125 L 22.59375 -28.203125 L 22.59375 -22.515625 L 9.71875 -22.515625 L 9.71875 -17.15625 L 21.796875 -17.15625 L 21.796875 -11.515625 L 9.71875 -11.515625 L 9.71875 -5.6875 L 22.59375 -5.6875 L 22.59375 0 Z M 2.5625 0 " style="fill: rgb(255, 255, 255);"/>
      </g>
    </g>
  </g>
  <g clip-path="url(#7881ca1840)" transform="matrix(1, 0, 0, 1, 122.019646, 298.355804)">
    <path d="M 82.457031 14.5 L 82.457031 45.207031 L 76.457031 45.207031 L 76.457031 14.5 L 82.457031 14.5 " fill-opacity="1" fill-rule="nonzero" style="fill: rgb(255, 255, 255);"/>
  </g>
  <g clip-path="url(#11c6e30c94)" transform="matrix(1, 0, 0, 1, 122.019646, 298.355804)">
    <g clip-path="url(#a17fc5a6d0)">
      <path d="M 80.351562 21.605469 L 49.039062 51.710938 L 44.878906 47.386719 L 76.191406 17.277344 L 80.351562 21.605469 " fill-opacity="1" fill-rule="nonzero" style="fill: rgb(255, 255, 255);"/>
    </g>
  </g>
  <g clip-path="url(#9cce84d4bf)" transform="matrix(1, 0, 0, 1, 122.019646, 298.355804)">
    <g clip-path="url(#4a2b4df410)">
      <path d="M 46.136719 39.414062 L 56.742188 51.035156 L 51.757812 55.585938 L 41.152344 43.964844 L 46.136719 39.414062 " fill-opacity="1" fill-rule="nonzero" style="fill: rgb(255, 255, 255);"/>
    </g>
  </g>
</svg>